SplineFontDB: 3.2
FontName: SteMiAlfa-Regular
FullName: SteMiAlfa-Regular
FamilyName: SteMi
Weight: Regular
Copyright: Created by Krzysztof (Stenografow) Smirnow, with FontForge 2.0 (https://www.stenografia.pl)
UComments: "PL: Font, kt+APMA-rego zadaniem jest umo+AXwA-liwienie tworzenia tekst+APMA-w przy pomocy stenograficznego pisma SteMi: +AAoA-https://www.stenografia.pl/blog/2013-02-28_kurs-stemi-lekcja-01/+AAoA-EN:+AKAA Font whose task is to enable the creation of texts using the SteMi shorthand script (Polish basically, but)"
FontLog: "v. 2.0 began in 2023+AAoA-v. 1.0 postponed in 2013+AAoA-v. 1.0 began in 2012"
Version: 002.200
ItalicAngle: 0
UnderlinePosition: -298
UnderlineWidth: 148
Ascent: 1365
Descent: 683
InvalidEm: 0
sfntRevision: 0x00020000
LayerCount: 3
Layer: 0 1 "Warstwa t+AUIA-a" 1
Layer: 1 1 "Plan pierwszy" 1
Layer: 2 0 "Warstwa t+AUIA-a 2" 1
HasVMetrics: 1
XUID: [1021 102 369710040 11306370]
BaseHoriz: 0
StyleMap: 0x0040
FSType: 0
OS2Version: 4
OS2_WeightWidthSlopeOnly: 0
OS2_UseTypoMetrics: 1
CreationTime: 1379607424
ModificationTime: 1718275340
PfmFamily: 17
TTFWeight: 300
TTFWidth: 3
LineGap: 270
VLineGap: 270
Panose: 2 0 5 3 0 0 0 0 0 0
OS2TypoAscent: 2000
OS2TypoAOffset: 0
OS2TypoDescent: -1000
OS2TypoDOffset: 0
OS2TypoLinegap: 270
OS2WinAscent: 3557
OS2WinAOffset: 0
OS2WinDescent: 1092
OS2WinDOffset: 0
HheadAscent: 3557
HheadAOffset: 0
HheadDescent: -1092
HheadDOffset: 0
OS2SubXSize: 1950
OS2SubYSize: 2100
OS2SubXOff: 0
OS2SubYOff: 420
OS2SupXSize: 1950
OS2SupYSize: 2100
OS2SupXOff: 0
OS2SupYOff: 1440
OS2StrikeYSize: 149
OS2StrikeYPos: 776
OS2CapHeight: 3432
OS2XHeight: 1520
OS2FamilyClass: 2560
OS2Vendor: 'KsMi'
OS2CodePages: 00000001.00000000
OS2UnicodeRanges: 00000007.02000000.04000000.00000000
MarkAttachClasses: 1
DEI: 91125
TtTable: prep
PUSHW_1
 511
SCANCTRL
PUSHB_1
 1
SCANTYPE
SVTCA[y-axis]
MPPEM
PUSHB_1
 8
LT
IF
PUSHB_2
 1
 1
INSTCTRL
EIF
PUSHB_2
 70
 6
CALL
IF
POP
PUSHB_1
 16
EIF
MPPEM
PUSHB_1
 20
GT
IF
POP
PUSHB_1
 128
EIF
SCVTCI

StartChar: .notdef
Encoding: 1114112 -1 0
Width: 1200
VWidth: 3000
Flags: HW
LayerCount: 3
Fore
SplineSet
150 150 m 1
 1050 150 l 1
 1050 1183 l 1
 150 1183 l 1
 150 150 l 1
0 0 m 1
 0 1333 l 1
 1200 1333 l 1
 1200 0 l 1
 0 0 l 1
EndSplineSet
Validated: 1
EndChar

StartChar: exclam
Encoding: 33 33 5
Width: 461
GlyphClass: 2
Flags: HW
LayerCount: 3
Fore
SplineSet
205.78515625 260 m 1025
16.998046875 -479.360351562 m 1025
103.62890625 -68.853515625 m 1025
325.783203125 1340 m 1
 325.78515625 1340 l 1
 325.78515625 260.5 l 1
 325.78515625 260 l 1
 325.783203125 260 l 1
 325.606445312 235.81640625 325.606445312 235.81640625 308.28515625 218 c 0
 290.78515625 200 290.78515625 200 265.78515625 200 c 0
 240.78515625 200 240.78515625 200 223.78515625 218 c 0
 205.78515625 235 205.78515625 235 205.78515625 260 c 2
 205.78515625 1340 l 2
 205.78515625 1365 205.78515625 1365 223.78515625 1382 c 0
 241.78515625 1400 241.78515625 1400 265.78515625 1400 c 0
 289.78515625 1400 289.78515625 1400 307.78515625 1382.5 c 0
 325.78515625 1365 325.78515625 1365 325.78515625 1340.5 c 0
 325.78515625 1340.25 325.78515625 1340.25 325.783203125 1340 c 1
441.96875 -224.09375 m 1
 441.969726562 -224.094726562 l 1
 350.419921875 -315.64453125 l 1
 443.748046875 -408.97265625 l 2
 461.42578125 -426.650390625 461.42578125 -426.650390625 460.71875 -451.3984375 c 0
 460.71875 -476.854492188 460.71875 -476.854492188 443.748046875 -493.825195312 c 0
 426.77734375 -510.795898438 426.77734375 -510.795898438 401.674804688 -511.149414062 c 0
 376.572265625 -511.502929688 376.572265625 -511.502929688 359.248046875 -494.178710938 c 0
 359.071289062 -494.001953125 359.071289062 -494.001953125 358.895507812 -493.82421875 c 1
 358.89453125 -493.825195312 l 1
 265.567382812 -400.498046875 l 1
 102.2109375 -563.854492188 l 2
 102.208007812 -563.857421875 102.208007812 -563.857421875 102.205078125 -563.860351562 c 0
 102.202148438 -563.86328125 102.202148438 -563.86328125 102.19921875 -563.866210938 c 2
 101.8515625 -564.213867188 l 1
 101.850585938 -564.212890625 l 1
 84.6240234375 -581.1875 84.6240234375 -581.1875 59.7783203125 -581.537109375 c 0
 34.67578125 -581.890625 34.67578125 -581.890625 16.998046875 -564.213867188 c 0
 -0.6796875 -546.536132812 -0.6796875 -546.536132812 0.02734375 -521.787109375 c 0
 -0.6796875 -497.038085938 -0.6796875 -497.038085938 16.998046875 -479.360351562 c 2
 180.713867188 -315.64453125 l 1
 19.1298828125 -154.060546875 l 1
 18.7763671875 -153.70703125 l 1
 18.77734375 -153.706054688 l 1
 1.8017578125 -136.479492188 1.8017578125 -136.479492188 1.4521484375 -111.633789062 c 0
 1.0986328125 -86.53125 1.0986328125 -86.53125 18.7763671875 -68.853515625 c 0
 36.4541015625 -51.17578125 36.4541015625 -51.17578125 61.203125 -51.8837890625 c 0
 85.951171875 -51.17578125 85.951171875 -51.17578125 103.62890625 -68.853515625 c 2
 265.567382812 -230.791992188 l 1
 357.1171875 -139.2421875 l 2
 374.793945312 -121.564453125 374.793945312 -121.564453125 399.54296875 -122.271484375 c 0
 424.999023438 -122.271484375 424.999023438 -122.271484375 441.969726562 -139.2421875 c 0
 458.940429688 -156.212890625 458.940429688 -156.212890625 459.293945312 -181.315429688 c 0
 459.647460938 -206.416992188 459.647460938 -206.416992188 442.323242188 -223.741210938 c 0
 442.146484375 -223.91796875 442.146484375 -223.91796875 441.96875 -224.09375 c 1
EndSplineSet
Validated: 524289
EndChar

StartChar: quotedbl
Encoding: 34 34 6
Width: 649
GlyphClass: 2
Flags: HW
LayerCount: 3
Fore
SplineSet
16.998046875 1792.55078125 m 1025
140.96875 1810.20214844 m 25,0,-1
 140.96875 1850.20214844 l 25,1,-1
 160.967773438 1830.20214844 l 25,2,-1
 120.96875 1830.20214844 l 1049,3,-1
138.967773438 1311.20214844 m 25,0,-1
 138.967773438 1351.20214844 l 25,1,-1
 158.967773438 1331.20214844 l 25,2,-1
 118.967773438 1331.20214844 l 1049,3,-1
396.998046875 1792.55078125 m 1025
520.96875 1810.20214844 m 25,0,-1
 520.96875 1850.20214844 l 25,1,-1
 540.967773438 1830.20214844 l 25,2,-1
 500.96875 1830.20214844 l 1049,3,-1
518.967773438 1311.20214844 m 25,0,-1
 518.967773438 1351.20214844 l 25,1,-1
 538.967773438 1331.20214844 l 25,2,-1
 498.967773438 1331.20214844 l 1049,3,-1
138.467773438 1271.20214844 m 0
 111.967773438 1271.20214844 111.967773438 1271.20214844 95.9677734375 1287.20214844 c 0
 78.9677734375 1304.20214844 78.9677734375 1304.20214844 78.9677734375 1331.20214844 c 0
 78.9677734375 1355.52929688 78.9677734375 1355.52929688 90.1689453125 1370.65039062 c 0
 147.963867188 1477.61425781 147.963867188 1477.61425781 147.887695312 1569.64648438 c 0
 147.940429688 1653.20019531 147.940429688 1653.20019531 121.5390625 1727.38671875 c 1
 101.850585938 1707.69824219 l 1
 101.849609375 1707.69921875 l 1
 84.623046875 1690.72363281 84.623046875 1690.72363281 59.7783203125 1690.37402344 c 0
 34.67578125 1690.02050781 34.67578125 1690.02050781 16.998046875 1707.69824219 c 0
 -0.6796875 1725.37597656 -0.6796875 1725.37597656 0.02734375 1750.125 c 0
 -0.6796875 1774.87304688 -0.6796875 1774.87304688 16.998046875 1792.55078125 c 2
 88.6767578125 1864.22949219 l 2
 92.4267578125 1870.96582031 92.4267578125 1870.96582031 98.001953125 1876.20214844 c 0
 103.116210938 1880.98632812 103.116210938 1880.98632812 109.751953125 1884.13574219 c 0
 124.83203125 1894.9296875 124.83203125 1894.9296875 144.27734375 1894.37402344 c 0
 169.733398438 1894.37402344 169.733398438 1894.37402344 186.704101562 1877.40332031 c 0
 199.541015625 1864.56738281 199.541015625 1864.56738281 202.870117188 1847.07714844 c 1
 268.963867188 1724.5625 268.963867188 1724.5625 268.88671875 1569.64648438 c 0
 268.967773438 1435.68457031 268.967773438 1435.68457031 192.258789062 1302.43554688 c 0
 187.978515625 1294.21191406 187.978515625 1294.21191406 180.967773438 1287.20117188 c 0
 164.96875 1271.20214844 164.96875 1271.20214844 138.467773438 1271.20214844 c 0
518.467773438 1271.20214844 m 0
 491.967773438 1271.20214844 491.967773438 1271.20214844 475.967773438 1287.20214844 c 0
 458.967773438 1304.20214844 458.967773438 1304.20214844 458.967773438 1331.20214844 c 0
 458.967773438 1355.52929688 458.967773438 1355.52929688 470.168945312 1370.65039062 c 0
 527.963867188 1477.61425781 527.963867188 1477.61425781 527.887695312 1569.64648438 c 0
 527.940429688 1653.20019531 527.940429688 1653.20019531 501.5390625 1727.38671875 c 1
 481.850585938 1707.69824219 l 1
 481.849609375 1707.69921875 l 1
 464.623046875 1690.72363281 464.623046875 1690.72363281 439.778320312 1690.37402344 c 0
 414.67578125 1690.02050781 414.67578125 1690.02050781 396.998046875 1707.69824219 c 0
 379.3203125 1725.37597656 379.3203125 1725.37597656 380.02734375 1750.125 c 0
 379.3203125 1774.87304688 379.3203125 1774.87304688 396.998046875 1792.55078125 c 2
 468.676757812 1864.22949219 l 2
 472.426757812 1870.96582031 472.426757812 1870.96582031 478.001953125 1876.20214844 c 0
 483.116210938 1880.98632812 483.116210938 1880.98632812 489.751953125 1884.13574219 c 0
 504.83203125 1894.9296875 504.83203125 1894.9296875 524.27734375 1894.37402344 c 0
 549.733398438 1894.37402344 549.733398438 1894.37402344 566.704101562 1877.40332031 c 0
 579.541015625 1864.56738281 579.541015625 1864.56738281 582.870117188 1847.07714844 c 1
 648.963867188 1724.5625 648.963867188 1724.5625 648.88671875 1569.64648438 c 0
 648.967773438 1435.68457031 648.967773438 1435.68457031 572.258789062 1302.43554688 c 0
 567.978515625 1294.21191406 567.978515625 1294.21191406 560.967773438 1287.20117188 c 0
 544.96875 1271.20214844 544.96875 1271.20214844 518.467773438 1271.20214844 c 0
EndSplineSet
Validated: 524323
EndChar

StartChar: numbersign
Encoding: 35 35 7
Width: 602
GlyphClass: 2
Flags: HW
LayerCount: 3
Fore
SplineSet
542 210.5 m 1025
541 475.5 m 1025
72.5 114 m 1025
315.5 117 m 1025
61 330.498046875 m 1
 61 330.5 l 1
 72.5 330.5 l 1
 72.5 475.5 l 1
 60 475.5 l 2
 35 475.5 35 475.5 18 493.5 c 0
 0 511.5 0 511.5 0 535.5 c 0
 0 559.5 0 559.5 17.5 577.5 c 0
 35 595.5 35 595.5 59.5 595.5 c 0
 59.75 595.5 59.75 595.5 60 595.498046875 c 1
 60 595.5 l 1
 72.501953125 595.5 l 1
 72.6806640625 620.169921875 72.6806640625 620.169921875 90.5 637 c 0
 108.5 655 108.5 655 132.5 655 c 0
 156.5 655 156.5 655 174.5 637.5 c 0
 192.5 620 192.5 620 192.5 595.5 c 1
 315.5 595.5 l 1
 315.5 598 l 2
 315.5 623 315.5 623 333.5 640 c 0
 351.5 658 351.5 658 375.5 658 c 0
 399.5 658 399.5 658 417.5 640.5 c 0
 435.5 623 435.5 623 435.5 598.5 c 0
 435.5 598.25 435.5 598.25 435.498046875 598 c 1
 435.5 598 l 1
 435.5 595.5 l 1
 540.5 595.5 l 1
 541 595.5 l 1
 541 595.498046875 l 1
 565.18359375 595.321289062 565.18359375 595.321289062 583 578 c 0
 601 560.5 601 560.5 601 535.5 c 0
 601 510.5 601 510.5 583 493.5 c 0
 566 475.5 566 475.5 541 475.5 c 2
 435.5 475.5 l 1
 435.5 330.5 l 1
 541.5 330.5 l 1
 542 330.5 l 1
 542 330.498046875 l 1
 566.18359375 330.321289062 566.18359375 330.321289062 584 313 c 0
 602 295.5 602 295.5 602 270.5 c 0
 602 245.5 602 245.5 584 228.5 c 0
 567 210.5 567 210.5 542 210.5 c 2
 435.5 210.5 l 1
 435.5 117.5 l 1
 435.5 117 l 1
 435.498046875 117 l 1
 435.321289062 92.81640625 435.321289062 92.81640625 418 75 c 0
 400.5 57 400.5 57 375.5 57 c 0
 350.5 57 350.5 57 333.5 75 c 0
 315.5 92 315.5 92 315.5 117 c 2
 315.5 210.5 l 1
 192.5 210.5 l 1
 192.5 114.5 l 1
 192.5 114 l 1
 192.498046875 114 l 1
 192.321289062 89.81640625 192.321289062 89.81640625 175 72 c 0
 157.5 54 157.5 54 132.5 54 c 0
 107.5 54 107.5 54 90.5 72 c 0
 72.5 89 72.5 89 72.5 114 c 2
 72.5 210.5 l 1
 61 210.5 l 2
 36 210.5 36 210.5 19 228.5 c 0
 1 246.5 1 246.5 1 270.5 c 0
 1 294.5 1 294.5 18.5 312.5 c 0
 36 330.5 36 330.5 60.5 330.5 c 0
 60.75 330.5 60.75 330.5 61 330.498046875 c 1
192.5 475.5 m 1
 192.5 330.5 l 1
 315.5 330.5 l 1
 315.5 475.5 l 1
 192.5 475.5 l 1
EndSplineSet
Validated: 524289
EndChar

StartChar: dollar
Encoding: 36 36 8
Width: 853
GlyphClass: 2
Flags: HW
LayerCount: 3
Fore
SplineSet
370 14 m 1025
60 504.875 m 0
 85 504.875 85 504.875 102 486.875 c 0
 120 468.875 120 468.875 120 444.875 c 0
 120 439.879366446 120 439.879366446 119.241777421 435.143694919 c 0
 124.734259257 325.185678787 124.734259257 325.185678787 255 241.375 c 0
 292.601281117 217.560855292 292.601281117 217.560855292 370 213.645429467 c 1
 370 754.364631182 l 1
 255.35361031 772.671384899 255.35361031 772.671384899 172.760742188 867.75390625 c 0
 76.2607421875 977.75390625 76.2607421875 977.75390625 76 1128.12792969 c 0
 76.0244463911 1142.71894594 76.0244463911 1142.71894594 76.9035068217 1157.00782773 c 0
 74.75390625 1164.58510023 74.75390625 1164.58510023 74.75390625 1172.87890625 c 0
 74.75390625 1172.94491747 74.75390625 1172.94491747 74.7540386387 1173.0108833 c 1
 74.3770193194 1173.0108833 74.3770193194 1173.0108833 74 1173.01171875 c 0
 73.75390625 1324.87890625 73.75390625 1324.87890625 191.75390625 1427.37890625 c 0
 196.195366029 1431.27527778 196.195366029 1431.27527778 200.702649078 1435.01474926 c 0
 272.894207034 1507.25167221 272.894207034 1507.25167221 370 1523.22139079 c 1
 370 1694 l 2
 370 1719 370 1719 388 1736 c 0
 406 1754 406 1754 430 1754 c 0
 454 1754 454 1754 472 1736.5 c 0
 490 1719 490 1719 490 1694.5 c 0
 490 1694.24966068 490 1694.24966068 489.998172893 1694 c 1
 490 1694 l 1
 490 1522.59590341 l 1
 622.711539353 1511.85377154 622.711539353 1511.85377154 729.008789062 1426.39648438 c 0
 846.826356415 1330.87399654 846.826356415 1330.87399654 851.556092454 1185.27799355 c 0
 852.753905681 1179.32799431 852.753905681 1179.32799431 852.75390625 1172.87890625 c 0
 852.75390625 1147.87890625 852.75390625 1147.87890625 834.75390625 1130.87890625 c 0
 817.75390625 1112.87890625 817.75390625 1112.87890625 792.75390625 1112.87890625 c 0
 767.75390625 1112.87890625 767.75390625 1112.87890625 750.75390625 1130.87890625 c 0
 732.75390625 1148.87890625 732.75390625 1148.87890625 732.75390625 1172.87890625 c 0
 732.75390625 1177.8745398 732.75390625 1177.8745398 733.512128829 1182.61021133 c 0
 728.019646993 1292.56822746 728.019646993 1292.56822746 597.75390625 1376.37890625 c 0
 561.93445542 1399.06455844 561.93445542 1399.06455844 490 1403.69270834 c 1
 490 864.770310684 l 1
 602.257123423 845.528384742 602.257123423 845.528384742 683.5 752 c 0
 780 642 780 642 780.260742188 491.625976562 c 0
 780.221626807 468.279661631 780.221626807 468.279661631 777.994570337 445.706856557 c 0
 778.000000023 445.291833226 778.000000023 445.291833226 778 444.875 c 0
 778 444.808988781 778 444.808988781 777.999867611 444.743022952 c 1
 778.376886931 444.743022952 778.376886931 444.743022952 778.75390625 444.7421875 c 0
 778.999562741 293.144837693 778.999562741 293.144837693 661.41895121 190.739400414 c 1
 588.710029637 114.593755804 588.710029637 114.593755804 490 97.169950573 c 1
 490 14.5 l 1
 490 14 l 1
 489.998172893 14 l 1
 489.8211862 -10.1839227656 489.8211862 -10.1839227656 472.5 -28 c 0
 455 -46 455 -46 430 -46 c 0
 405 -46 405 -46 388 -28 c 0
 370 -11 370 -11 370 14 c 2
 370 94.6284483913 l 1
 232.936457754 103.573440898 232.936457754 103.573440898 123.745117188 191.357421875 c 0
 5.92754983485 286.879909711 5.92754983485 286.879909711 1.19781379619 432.475912702 c 0
 5.68502260601e-07 438.425911938 5.68502260601e-07 438.425911938 0 444.875 c 0
 0 469.875 0 469.875 18 486.875 c 0
 35 504.875 35 504.875 60 504.875 c 0
490 220.283437094 m 1
 490.820885915 220.454586305 490.820885915 220.454586305 491.632734404 220.62968936 c 0
 569.462389927 248.021543249 569.462389927 248.021543249 632.5 346 c 0
 652.482120656 377.550716826 652.482120656 377.550716826 658.454236378 437.121443873 c 0
 657.999999815 440.903589329 657.999999815 440.903589329 658 444.875 c 0
 658 453.731022569 658 453.731022569 660.258759809 461.583152166 c 0
 660.751216458 471.526887746 660.751216458 471.526887746 660.916500679 482.124969302 c 0
 660.000000124 487.35881786 660.000000124 487.35881786 660 493 c 0
 660 498.644432397 660 498.644432397 660.917556972 503.881061696 c 0
 659.480656464 597.061966227 659.480656464 597.061966227 633 633 c 0
 569.492796156 718.406239653 569.492796156 718.406239653 490 741.406745936 c 1
 490 220.283437094 l 1
370 877.302145527 m 1
 370 1398.87271788 l 1
 363.022430561 1397.6221905 363.022430561 1397.6221905 356.639987783 1396.1112952 c 0
 283.547499328 1366.67960878 283.547499328 1366.67960878 223.760742188 1273.75390625 c 0
 196.803378605 1231.18964796 196.803378605 1231.18964796 195.344241509 1137.62893695 c 0
 196.260742063 1132.39508839 196.260742063 1132.39508839 196.260742188 1126.75390625 c 0
 196.260742188 1121.10947385 196.260742188 1121.10947385 195.343185215 1115.87284455 c 0
 196.780085723 1022.69194002 196.780085723 1022.69194002 223.260742188 986.75390625 c 0
 288.25808656 899.343684507 288.25808656 899.343684507 370 877.302145527 c 1
EndSplineSet
Validated: 524321
EndChar

StartChar: percent
Encoding: 37 37 9
Width: 1768
GlyphClass: 2
Flags: HW
LayerCount: 3
Fore
SplineSet
293.163085938 781.255859375 m 1025
133.51953125 -61.3369140625 m 1025
118.940429688 -77.0400390625 m 1025
793 277.853515625 m 0
 792.856445312 224 792.856445312 224 822.962890625 192.453125 c 0
 854.951171875 158.948242188 854.951171875 158.948242188 909.736328125 157.922851562 c 0
 911.283203125 158 911.283203125 158 912.856445312 158 c 0
 914.4921875 158 914.4921875 158 916.100585938 157.918945312 c 0
 973.669921875 158.815429688 973.669921875 158.815429688 1002.75 187.959960938 c 0
 1034.85644531 220 1034.85644531 220 1034.71289062 277.853515625 c 0
 1034.85644531 332 1034.85644531 332 1000.25488281 366.244140625 c 0
 968.49609375 396.44140625 968.49609375 396.44140625 918.108398438 398.205078125 c 0
 915.525390625 398 915.525390625 398 912.856445312 398 c 0
 910.131835938 398 910.131835938 398 907.501953125 398.213867188 c 0
 853.530273438 396.516601562 853.530273438 396.516601562 826.461914062 366.244140625 c 0
 793.091796875 329.26171875 793.091796875 329.26171875 793 278.5703125 c 0
 793 278.461914062 793 278.461914062 793 278.353515625 c 0
 793 278.223632812 793 278.223632812 792.999023438 278.094726562 c 0
 792.999023438 277.973632812 792.999023438 277.973632812 793 277.853515625 c 0
120 873.853515625 m 0
 119.856445312 820 119.856445312 820 149.962890625 788.453125 c 0
 181.951171875 754.948242188 181.951171875 754.948242188 236.736328125 753.922851562 c 0
 238.283203125 754 238.283203125 754 239.856445312 754 c 0
 241.4921875 754 241.4921875 754 243.100585938 753.918945312 c 0
 260.857421875 754.1953125 260.857421875 754.1953125 275.903320312 757.159179688 c 1
 280.912109375 770.9765625 280.912109375 770.9765625 293.163085938 781.255859375 c 2
 357.581054688 835.30859375 l 1
 361.764648438 852.885742188 361.764648438 852.885742188 361.712890625 873.853515625 c 0
 361.856445312 928 361.856445312 928 327.254882812 962.244140625 c 0
 295.49609375 992.44140625 295.49609375 992.44140625 245.108398438 994.205078125 c 0
 242.525390625 994 242.525390625 994 239.856445312 994 c 0
 237.131835938 994 237.131835938 994 234.501953125 994.213867188 c 0
 180.530273438 992.516601562 180.530273438 992.516601562 153.461914062 962.244140625 c 0
 120.091796875 925.26171875 120.091796875 925.26171875 120 874.5703125 c 0
 120 874.461914062 120 874.461914062 120 874.353515625 c 0
 120 874.223632812 120 874.223632812 119.999023438 874.094726562 c 0
 119.999023438 873.973632812 119.999023438 873.973632812 120 873.853515625 c 0
814.072265625 1218.35253906 m 2
 833.223632812 1234.421875 833.223632812 1234.421875 857.81640625 1231.56054688 c 0
 865.766601562 1230.86523438 865.766601562 1230.86523438 872.741210938 1228.58007812 c 1
 958.940429688 1377.88183594 l 2
 971.440429688 1399.53222656 971.440429688 1399.53222656 995.528320312 1405.25488281 c 0
 1020.1171875 1411.84277344 1020.1171875 1411.84277344 1040.90136719 1399.84277344 c 0
 1061.68652344 1387.84277344 1061.68652344 1387.84277344 1068.52441406 1363.6875 c 0
 1075.36328125 1339.53222656 1075.36328125 1339.53222656 1063.11328125 1318.31445312 c 0
 1062.98828125 1318.09765625 1062.98828125 1318.09765625 1062.86230469 1317.8828125 c 1
 1062.86328125 1317.88183594 l 1
 391.59765625 155.216796875 l 1
 654.4296875 375.758789062 l 1
 654.4296875 375.758789062 l 2
 673.581054688 391.828125 673.581054688 391.828125 698.173828125 388.966796875 c 0
 699.760742188 388.828125 699.760742188 388.828125 701.307617188 388.625976562 c 0
 718.395507812 418.940429688 718.395507812 418.940429688 745.81640625 446 c 0
 815.94921875 515.134765625 815.94921875 515.134765625 906.845703125 517.708984375 c 0
 909.802734375 518 909.802734375 518 912.856445312 518 c 0
 915.494140625 518 915.494140625 518 918.060546875 517.788085938 c 0
 1011.24316406 516.623046875 1011.24316406 516.623046875 1082.35644531 446 c 0
 1152.93261719 375.911132812 1152.93261719 375.911132812 1154.62304688 283.98828125 c 0
 1154.85644531 281.290039062 1154.85644531 281.290039062 1154.85644531 278.5 c 0
 1154.85644531 275.540039062 1154.85644531 275.540039062 1154.60058594 272.674804688 c 0
 1152.52050781 178.696289062 1152.52050781 178.696289062 1082.35644531 109.5 c 0
 1011.29980469 39.423828125 1011.29980469 39.423828125 918.208984375 38.212890625 c 0
 915.577148438 38 915.577148438 38 912.856445312 38 c 0
 909.627929688 38 909.627929688 38 906.533203125 38.2998046875 c 0
 815.831054688 40.9775390625 815.831054688 40.9775390625 745.879882812 109.821289062 c 0
 688.754882812 165.502929688 688.754882812 165.502929688 676.435546875 237.57421875 c 1
 210.654296875 -153.262695312 l 1
 210.653320312 -153.26171875 l 1
 193.825195312 -167.172851562 193.825195312 -167.172851562 171.991210938 -167.043945312 c 0
 155.848632812 -167.631835938 155.848632812 -167.631835938 140.901367188 -159.001953125 c 0
 119.250976562 -146.501953125 119.250976562 -146.501953125 113.528320312 -122.413085938 c 0
 106.440429688 -98.69140625 106.440429688 -98.69140625 118.940429688 -77.0400390625 c 2
 740.98828125 1000.37890625 l 1
 449.342773438 755.658203125 l 1
 433.3203125 729.133789062 433.3203125 729.133789062 409.356445312 705.5 c 0
 338.299804688 635.423828125 338.299804688 635.423828125 245.208984375 634.212890625 c 0
 242.577148438 634 242.577148438 634 239.856445312 634 c 0
 236.627929688 634 236.627929688 634 233.533203125 634.299804688 c 0
 142.831054688 636.977539062 142.831054688 636.977539062 72.8798828125 705.821289062 c 0
 1.4736328125 775.423828125 1.4736328125 775.423828125 0.076171875 870.633789062 c 0
 -0 872.2265625 -0 872.2265625 0 873.853515625 c 0
 0 875.176757812 0 875.176757812 0.05078125 876.477539062 c 0
 0.439453125 970.575195312 0.439453125 970.575195312 72.81640625 1042 c 0
 142.94921875 1111.13476562 142.94921875 1111.13476562 233.845703125 1113.70898438 c 0
 236.802734375 1114 236.802734375 1114 239.856445312 1114 c 0
 242.494140625 1114 242.494140625 1114 245.060546875 1113.78808594 c 0
 338.243164062 1112.62304688 338.243164062 1112.62304688 409.356445312 1042 c 0
 458.704101562 992.9921875 458.704101562 992.9921875 474.374023438 933.310546875 c 1
 814.072265625 1218.35253906 l 1
 814.072265625 1218.35253906 l 2
EndSplineSet
Validated: 524325
Layer: 2
SplineSet
243 1216 m 4
 243 1305.33300781 273.666992188 1381.33300781 335 1444 c 4
 396.333007812 1505.33300781 472 1536 562 1536 c 4
 604 1536 645 1528 685 1512 c 4
 724.333007812 1495.33300781 758.666992188 1472.33300781 788 1443 c 132
 817.333007812 1413.66699219 840.333007812 1379.33300781 857 1340 c 4
 871 1307.33300781 879 1273 881 1237 c 5
 1504 2001 l 5
 1691 2001 l 5
 551 -474 l 5
 1205 391 l 6
 1211.66699219 399 1217 404.666992188 1221 408 c 4
 1282.33300781 470 1357.66699219 501 1447 501 c 4
 1489.66699219 501 1530.33300781 493 1569 477 c 4
 1607 461 1641.33300781 437.666992188 1672 407 c 4
 1702 377 1725.66699219 342 1743 302 c 4
 1759.66699219 264 1768 223.666992188 1768 181 c 4
 1768 92.3330078125 1737 17 1675 -45 c 132
 1613 -107 1537 -138 1447 -138 c 4
 1356.33300781 -138 1280.66699219 -107.333007812 1220 -46 c 4
 1171.33300781 2.6669921875 1142 61.3330078125 1132 130 c 5
 482 -749 l 5
 289 -749 l 5
 1473 1809 l 5
 789 990 l 5
 727 928 651.333007812 897 562 897 c 4
 472 897 396.333007812 927.666992188 335 989 c 132
 273.666992188 1050.33300781 243 1126 243 1216 c 4
378 1216 m 4
 378 1163.33300781 395.666992188 1119.33300781 431 1084 c 4
 465.666992188 1049.33300781 509.333007812 1032 562 1032 c 4
 613.333007812 1032 657 1050 693 1086 c 4
 729 1120.66699219 747 1164 747 1216 c 132
 747 1268 729 1311.33300781 693 1346 c 4
 657 1382 613.333007812 1400 562 1400 c 4
 511.333007812 1400 467.666992188 1382.33300781 431 1347 c 4
 395.666992188 1311.66699219 378 1268 378 1216 c 4
1264 181 m 4
 1264 128.333007812 1281.66699219 84.6669921875 1317 50 c 4
 1351 14.6669921875 1394.33300781 -3 1447 -3 c 4
 1498.33300781 -3 1541.66699219 14.6669921875 1577 50 c 4
 1613 86 1631 129.666992188 1631 181 c 132
 1631 232.333007812 1613 276 1577 312 c 132
 1541 348 1497.66699219 366 1447 366 c 4
 1394.33300781 366 1351 348.333007812 1317 313 c 4
 1281.66699219 278.333007812 1264 234.333007812 1264 181 c 4
EndSplineSet
EndChar

StartChar: ampersand
Encoding: 38 38 10
Width: 844
GlyphClass: 2
Flags: HW
LayerCount: 3
Fore
SplineSet
669.28515625 238.421875 m 1
 723.7109375 308.588867188 723.7109375 308.588867188 723.7109375 504.149414062 c 0,0,0
 723.7109375 522.88671875 723.7109375 522.88671875 723.211914062 542.775390625 c 1
 723.68359375 542.775390625 l 1
 723.68359375 542.887695312 723.68359375 542.887695312 723.68359375 543 c 0
 723.68359375 568 723.68359375 568 741.68359375 585 c 0
 759.68359375 603 759.68359375 603 783.68359375 603 c 0
 807.68359375 603 807.68359375 603 825.68359375 585.5 c 0
 843.68359375 568 843.68359375 568 843.68359375 543.5 c 0
 843.68359375 543.13671875 843.68359375 543.13671875 843.6796875 542.775390625 c 1
 844.361328125 542.775390625 l 1
 844.361328125 513.963867188 l 2
 844.68359375 279 844.68359375 279 734.29296875 150.513671875 c 1
 805.68359375 48 l 1
 804.116210938 46.9345703125 l 1
 814.68359375 32.2724609375 814.68359375 32.2724609375 814.68359375 13.5 c 0
 814.68359375 -11 814.68359375 -11 797.18359375 -29 c 0
 779.68359375 -47 779.68359375 -47 754.68359375 -47 c 0
 729.68359375 -47 729.68359375 -47 712.68359375 -29 c 0
 708.360351562 -24.91796875 708.360351562 -24.91796875 705.076171875 -20.3740234375 c 1
 702.68359375 -22 l 1
 644.907226562 61.8671875 l 1
 524.68359375 -40 524.68359375 -40 368.18359375 -40 c 0
 211.68359375 -40 211.68359375 -40 106.18359375 58 c 0
 0 156.634765625 0 156.634765625 0 311.431640625 c 0,0,0
 0 510.33203125 0 510.33203125 204.630859375 657.276367188 c 1
 132.846679688 761.465820312 132.846679688 761.465820312 132.846679688 869.090820312 c 0,0,0
 132.846679688 976.141601562 132.846679688 976.141601562 206.108398438 1039.93359375 c 0
 270.817382812 1095.953125 270.817382812 1095.953125 335.384765625 1096.07519531 c 0
 355.68359375 1096 355.68359375 1096 392.68359375 1091 c 0
 429.68359375 1086 429.68359375 1086 486.68359375 1043.5 c 0
 543.68359375 1001 543.68359375 1001 553.68359375 964 c 0
 563.68359375 927 563.68359375 927 563.6484375 895.143554688 c 0
 563.68359375 818 563.68359375 818 515.68359375 746 c 0
 467.68359375 674 467.68359375 674 386.35546875 618.124023438 c 1
 669.28515625 238.421875 l 1
321.348632812 708.987304688 m 1
 353.852539062 720.067382812 353.852539062 720.067382812 381.922851562 752.202148438 c 0
 437.758789062 816.1171875 437.758789062 816.1171875 439.54296875 880.369140625 c 2
 439.54296875 883.325195312 l 2
 439.54296875 932.69921875 439.54296875 932.69921875 386.35546875 960.151367188 c 0
 360.5 974.186523438 360.5 974.186523438 342.770507812 974.186523438 c 0
 325.041992188 974.186523438 325.041992188 974.186523438 303.618164062 956.45703125 c 0
 262.250976562 923.215820312 262.250976562 923.215820312 262.250976562 873.721679688 c 0
 262.250976562 824.227539062 262.250976562 824.227539062 277.763671875 788.029296875 c 0
 293.27734375 751.833007812 293.27734375 751.833007812 321.348632812 708.987304688 c 1
166.217773438 467.055664062 m 0
 130.01953125 409.8046875 130.01953125 409.8046875 130.01953125 315.248046875 c 0
 130.01953125 220.69140625 130.01953125 220.69140625 204.630859375 147.190429688 c 0
 279.241210938 73.6875 279.241210938 73.6875 385.986328125 73.6875 c 0
 492.731445312 73.6875 492.731445312 73.6875 581.377929688 146.081054688 c 1
 265.205078125 574.540039062 l 1
 202.4140625 524.306640625 202.4140625 524.306640625 166.217773438 467.055664062 c 0
EndSplineSet
Validated: 524321
EndChar

StartChar: quotesingle
Encoding: 39 39 11
Width: 269
GlyphClass: 2
Flags: HW
LayerCount: 3
Fore
SplineSet
16.998046875 1792.55078125 m 1025
140.96875 1810.20214844 m 25,0,-1
 140.96875 1850.20214844 l 25,1,-1
 160.967773438 1830.20214844 l 25,2,-1
 120.96875 1830.20214844 l 1049,3,-1
138.967773438 1311.20214844 m 25,0,-1
 138.967773438 1351.20214844 l 25,1,-1
 158.967773438 1331.20214844 l 25,2,-1
 118.967773438 1331.20214844 l 1049,3,-1
138.467773438 1271.20214844 m 0
 111.967773438 1271.20214844 111.967773438 1271.20214844 95.9677734375 1287.20214844 c 0
 78.9677734375 1304.20214844 78.9677734375 1304.20214844 78.9677734375 1331.20214844 c 0
 78.9677734375 1355.52929688 78.9677734375 1355.52929688 90.1689453125 1370.65039062 c 0
 147.963867188 1477.61425781 147.963867188 1477.61425781 147.887695312 1569.64648438 c 0
 147.940429688 1653.20019531 147.940429688 1653.20019531 121.5390625 1727.38671875 c 1
 101.850585938 1707.69824219 l 1
 101.849609375 1707.69921875 l 1
 84.623046875 1690.72363281 84.623046875 1690.72363281 59.7783203125 1690.37402344 c 0
 34.67578125 1690.02050781 34.67578125 1690.02050781 16.998046875 1707.69824219 c 0
 -0.6796875 1725.37597656 -0.6796875 1725.37597656 0.02734375 1750.125 c 0
 -0.6796875 1774.87304688 -0.6796875 1774.87304688 16.998046875 1792.55078125 c 2
 88.6767578125 1864.22949219 l 2
 92.4267578125 1870.96582031 92.4267578125 1870.96582031 98.001953125 1876.20214844 c 0
 103.116210938 1880.98632812 103.116210938 1880.98632812 109.751953125 1884.13574219 c 0
 124.83203125 1894.9296875 124.83203125 1894.9296875 144.27734375 1894.37402344 c 0
 169.733398438 1894.37402344 169.733398438 1894.37402344 186.704101562 1877.40332031 c 0
 199.541015625 1864.56738281 199.541015625 1864.56738281 202.870117188 1847.07714844 c 1
 268.963867188 1724.5625 268.963867188 1724.5625 268.88671875 1569.64648438 c 0
 268.967773438 1435.68457031 268.967773438 1435.68457031 192.258789062 1302.43554688 c 0
 187.978515625 1294.21191406 187.978515625 1294.21191406 180.967773438 1287.20117188 c 0
 164.96875 1271.20214844 164.96875 1271.20214844 138.467773438 1271.20214844 c 0
EndSplineSet
Validated: 524323
EndChar

StartChar: parenleft
Encoding: 40 40 12
Width: 656
GlyphClass: 2
Flags: HW
LayerCount: 3
Fore
SplineSet
340 712.5 m 1025
648.40625 2715.18261719 m 1
 650.5 2714 l 1
 426.5 2226 426.5 2226 301.5 1692 c 0
 208.708984375 1298.11132812 208.708984375 1298.11132812 206.466796875 832.5 c 1
 339.5 832.5 l 1
 340 832.5 l 1
 340 832.498046875 l 1
 364.18359375 832.321289062 364.18359375 832.321289062 382 815 c 0
 400 797.5 400 797.5 400 772.5 c 0
 400 747.5 400 747.5 382 730.5 c 0
 365 712.5 365 712.5 340 712.5 c 2
 212.104492188 712.5 l 1
 260.111328125 157.84375 260.111328125 157.84375 353.5 -161 c 0
 452.5 -499 452.5 -499 623.5 -813 c 1
 622.026367188 -813.83203125 l 1
 629.5 -826.712890625 629.5 -826.712890625 629.5 -842.5 c 0
 629.5 -867 629.5 -867 612 -885 c 0
 594.5 -903 594.5 -903 569.5 -903 c 0
 544.5 -903 544.5 -903 527.5 -885 c 0
 521.53125 -879.36328125 521.53125 -879.36328125 517.541992188 -872.846679688 c 1
 515.5 -874 l 1
 313.5 -506 313.5 -506 231.5 -213 c 0
 89.5859375 297.692382812 89.5859375 297.692382812 79.51171875 712.5 c 1
 60 712.5 l 2
 35 712.5 35 712.5 18 730.5 c 0
 0 748.5 0 748.5 0 772.5 c 0
 0 796.5 0 796.5 17.5 814.5 c 0
 35 832.5 35 832.5 59.5 832.5 c 0
 59.75 832.5 59.75 832.5 60 832.498046875 c 1
 60 832.5 l 1
 79.5 832.5 l 1
 79.5 833 l 1
 78.9462890625 865.969726562 78.9462890625 865.969726562 78.9462890625 898.822265625 c 0,0,0
 78.9462890625 1340.27246094 78.9462890625 1340.27246094 179 1760.5 c 0
 286.5 2212 286.5 2212 542.5 2775 c 1
 544.092773438 2774.10058594 l 1
 548.19140625 2781.04101562 548.19140625 2781.04101562 554.5 2787 c 0
 572.5 2805 572.5 2805 596.5 2805 c 0
 620.5 2805 620.5 2805 638.5 2787.5 c 0
 656.5 2770 656.5 2770 656.5 2745.5 c 0
 656.5 2728.83789062 656.5 2728.83789062 648.40625 2715.18261719 c 1
EndSplineSet
Validated: 524289
EndChar

StartChar: parenright
Encoding: 41 41 13
Width: 656
GlyphClass: 2
Flags: HW
LayerCount: 3
Fore
SplineSet
316.5 712.5 m 1025
596.5 832.498046875 m 1
 596.5 832.5 l 1
 577 832.5 l 1
 577 833 l 1
 577.58203125 867.618164062 577.58203125 867.618164062 577.58203125 901.982421875 c 0,0,0
 577.58203125 1340.12695312 577.58203125 1340.12695312 483 1737 c 0
 370 2212 370 2212 114 2775 c 1
 112.407226562 2774.10058594 l 1
 108.30859375 2781.04101562 108.30859375 2781.04101562 102 2787 c 0
 84 2805 84 2805 60 2805 c 0
 36 2805 36 2805 18 2787.5 c 0
 0 2770 0 2770 0 2745.5 c 0
 0 2728.83789062 0 2728.83789062 8.09375 2715.18261719 c 1
 6 2714 l 1
 230 2226 230 2226 355 1692 c 0
 447.791015625 1298.11132812 447.791015625 1298.11132812 450.033203125 832.5 c 1
 317 832.5 l 1
 316.5 832.5 l 1
 316.5 832.498046875 l 1
 292.31640625 832.321289062 292.31640625 832.321289062 274.5 815 c 0
 256.5 797.5 256.5 797.5 256.5 772.5 c 0
 256.5 747.5 256.5 747.5 274.5 730.5 c 0
 291.5 712.5 291.5 712.5 316.5 712.5 c 2
 444.374023438 712.5 l 1
 395.860351562 156.0625 395.860351562 156.0625 293.5 -193 c 0
 204 -499 204 -499 33 -813 c 1
 34.4736328125 -813.83203125 l 1
 27 -826.712890625 27 -826.712890625 27 -842.5 c 0
 27 -867 27 -867 44.5 -885 c 0
 62 -903 62 -903 87 -903 c 0
 112 -903 112 -903 129 -885 c 0
 134.96875 -879.36328125 134.96875 -879.36328125 138.958007812 -872.846679688 c 1
 141 -874 l 1
 343 -506 343 -506 425 -213 c 0
 566.9140625 297.692382812 566.9140625 297.692382812 576.98828125 712.5 c 1
 596.5 712.5 l 2
 621.5 712.5 621.5 712.5 638.5 730.5 c 0
 656.5 748.5 656.5 748.5 656.5 772.5 c 0
 656.5 796.5 656.5 796.5 639 814.5 c 0
 621.5 832.5 621.5 832.5 597 832.5 c 0
 596.75 832.5 596.75 832.5 596.5 832.498046875 c 1
EndSplineSet
Validated: 524297
EndChar

StartChar: asterisk
Encoding: 42 42 14
Width: 755
GlyphClass: 2
Flags: HW
LayerCount: 3
Fore
SplineSet
21.0361328125 940.845703125 m 1025
656.153320312 837.392578125 m 1025
316.649414062 708 m 1025
619.079101562 1286.01660156 m 1
 619.080078125 1286.015625 l 1
 463.635742188 1155.58203125 l 1
 732.837890625 929.6953125 l 2
 732.872070312 929.666992188 732.872070312 929.666992188 732.905273438 929.638671875 c 0
 732.939453125 929.610351562 732.939453125 929.610351562 732.97265625 929.58203125 c 2
 733.288085938 929.317382812 l 1
 733.287109375 929.31640625 l 1
 751.700195312 913.635742188 751.700195312 913.635742188 754.213867188 888.915039062 c 0
 756.752929688 863.938476562 756.752929688 863.938476562 740.68359375 844.788085938 c 0
 724.614257812 825.63671875 724.614257812 825.63671875 699.897460938 824.18359375 c 0
 675.3046875 821.322265625 675.3046875 821.322265625 656.153320312 837.392578125 c 2
 436.649414062 1021.57910156 l 1
 436.649414062 708.5 l 1
 436.649414062 708 l 1
 436.647460938 708 l 1
 436.470703125 683.81640625 436.470703125 683.81640625 419.149414062 666 c 0
 401.649414062 648 401.649414062 648 376.649414062 648 c 0
 351.649414062 648 351.649414062 648 334.649414062 666 c 0
 316.649414062 683 316.649414062 683 316.649414062 708 c 2
 316.649414062 1032.24511719 l 1
 98.1708984375 848.919921875 l 1
 98.169921875 848.920898438 l 1
 79.529296875 833.51171875 79.529296875 833.51171875 54.748046875 835.329101562 c 0
 29.7099609375 837.1640625 29.7099609375 837.1640625 13.640625 856.315429688 c 0
 -2.4296875 875.466796875 -2.4296875 875.466796875 0.4326171875 900.059570312 c 0
 1.884765625 924.775390625 1.884765625 924.775390625 21.0361328125 940.845703125 c 2
 276.94921875 1155.58300781 l 1
 135.244140625 1274.48828125 l 1
 135.244140625 1274.48828125 l 2
 116.092773438 1290.55761719 116.092773438 1290.55761719 114.640625 1315.27441406 c 0
 112.421875 1340.6328125 112.421875 1340.6328125 127.848632812 1359.01757812 c 0
 143.275390625 1377.40332031 143.275390625 1377.40332031 168.250976562 1379.94335938 c 0
 193.227539062 1382.48339844 193.227539062 1382.48339844 211.995117188 1366.734375 c 0
 212.186523438 1366.57324219 212.186523438 1366.57324219 212.376953125 1366.41210938 c 1
 212.377929688 1366.41308594 l 1
 316.649414062 1278.91894531 l 1
 316.649414062 1388 l 2
 316.649414062 1413 316.649414062 1413 334.649414062 1430 c 0
 352.649414062 1448 352.649414062 1448 376.649414062 1448 c 0
 400.649414062 1448 400.649414062 1448 418.649414062 1430.5 c 0
 436.649414062 1413 436.649414062 1413 436.649414062 1388.5 c 0
 436.649414062 1388.25 436.649414062 1388.25 436.647460938 1388 c 1
 436.649414062 1388 l 1
 436.649414062 1289.58789062 l 1
 541.9453125 1377.94140625 l 2
 561.096679688 1394.01074219 561.096679688 1394.01074219 585.689453125 1391.14941406 c 0
 611.048828125 1388.93066406 611.048828125 1388.93066406 626.475585938 1370.54589844 c 0
 641.90234375 1352.16113281 641.90234375 1352.16113281 640.067382812 1327.12304688 c 0
 638.231445312 1302.0859375 638.231445312 1302.0859375 619.462890625 1286.33691406 c 0
 619.271484375 1286.17578125 619.271484375 1286.17578125 619.079101562 1286.01660156 c 1
EndSplineSet
Validated: 524293
EndChar

StartChar: plus
Encoding: 43 43 15
Width: 800
GlyphClass: 2
Flags: HW
LayerCount: 3
Fore
SplineSet
60 949.5 m 1025
418.5 467 m 1025
740 829.501827107 m 1
 740 829.5 l 1
 538.5 829.5 l 1
 538.5 467.5 l 1
 538.5 467 l 1
 538.498172893 467 l 1
 538.3211862 442.816077234 538.3211862 442.816077234 521 425 c 0
 503.5 407 503.5 407 478.5 407 c 0
 453.5 407 453.5 407 436.5 425 c 0
 418.5 442 418.5 442 418.5 467 c 2
 418.5 829.5 l 1
 60.5 829.5 l 1
 60 829.5 l 1
 60 829.501827107 l 1
 35.8160772344 829.6788138 35.8160772344 829.6788138 18 847 c 0
 0 864.5 0 864.5 0 889.5 c 0
 0 914.5 0 914.5 18 931.5 c 0
 35 949.5 35 949.5 60 949.5 c 2
 418.5 949.5 l 1
 418.5 1147 l 2
 418.5 1172 418.5 1172 436.5 1189 c 0
 454.5 1207 454.5 1207 478.5 1207 c 0
 502.5 1207 502.5 1207 520.5 1189.5 c 0
 538.5 1172 538.5 1172 538.5 1147.5 c 0
 538.5 1147.24966068 538.5 1147.24966068 538.498172893 1147 c 1
 538.5 1147 l 1
 538.5 949.5 l 1
 740 949.5 l 2
 765 949.5 765 949.5 782 931.5 c 0
 800 913.5 800 913.5 800 889.5 c 0
 800 865.5 800 865.5 782.5 847.5 c 0
 765 829.5 765 829.5 740.5 829.5 c 0
 740.24966068 829.5 740.24966068 829.5 740 829.501827107 c 1
EndSplineSet
Validated: 524289
EndChar

StartChar: comma
Encoding: 44 44 16
Width: 654
GlyphClass: 2
Flags: HW
LayerCount: 3
Fore
SplineSet
401.63671875 -121.678710938 m 25,0,-1
 429.920898438 -93.39453125 l 25,1,-1
 429.920898438 -121.678710938 l 25,2,-1
 401.63671875 -93.39453125 l 1049,3,-1
47.3759765625 -473.110351562 m 25,0,-1
 75.66015625 -444.826171875 l 25,1,-1
 75.66015625 -473.110351562 l 25,2,-1
 47.3759765625 -444.826171875 l 1049,3,-1
301.495117188 -46.5 m 1025
18.73828125 -501.041015625 m 0
 0 -482.302734375 0 -482.302734375 0 -458.967773438 c 0
 0 -435.633789062 0 -435.633789062 20.15234375 -415.481445312 c 0
 37.345703125 -398.288085938 37.345703125 -398.288085938 55.8251953125 -396.278320312 c 0
 172.145507812 -361.069335938 172.145507812 -361.069335938 247.034179688 -286.1796875 c 0
 298.66796875 -234.546875 298.66796875 -234.546875 329.994140625 -166.5 c 1
 301.995117188 -166.5 l 1
 301.495117188 -166.5 l 1
 301.495117188 -166.498046875 l 1
 277.311523438 -166.321289062 277.311523438 -166.321289062 259.495117188 -149 c 0
 241.495117188 -131.5 241.495117188 -131.5 241.495117188 -106.5 c 0
 241.495117188 -81.5 241.495117188 -81.5 259.495117188 -64.5 c 0
 276.495117188 -46.5 276.495117188 -46.5 301.495117188 -46.5 c 2
 401.8984375 -46.5 l 2
 409.091796875 -44.365234375 409.091796875 -44.365234375 416.485351562 -44.603515625 c 0
 423.727539062 -44.8369140625 423.727539062 -44.8369140625 430.737304688 -47.154296875 c 0
 449.736328125 -49.931640625 449.736328125 -49.931640625 463.495117188 -64.5 c 0
 481.495117188 -82.5 481.495117188 -82.5 481.495117188 -106.5 c 0
 481.495117188 -124.618164062 481.495117188 -124.618164062 471.522460938 -139.31640625 c 1
 432.16015625 -272.174804688 432.16015625 -272.174804688 332.240234375 -372.094726562 c 0
 228.2578125 -476.077148438 228.2578125 -476.077148438 81.2685546875 -516.336914062 c 0
 71.9228515625 -519.780273438 71.9228515625 -519.780273438 61.517578125 -519.780273438 c 0
 37.4765625 -519.780273438 37.4765625 -519.780273438 18.73828125 -501.041015625 c 0
EndSplineSet
Validated: 524291
Layer: 2
SplineSet
418.995117188 250 m 1
 653.995117188 249 l 1
 652.995117188 125 l 1026
EndSplineSet
EndChar

StartChar: hyphen
Encoding: 45 45 17
Width: 1699
GlyphClass: 2
Flags: HW
LayerCount: 3
Fore
SplineSet
1430.15820312 395.314453125 m 1025
1618.09765625 526.91015625 m 1025
456.33203125 877.458984375 m 1
 1471.20117188 508.077148438 l 1
 1471.20019531 508.075195312 l 1
 1493.86523438 499.638671875 1493.86523438 499.638671875 1504.68261719 477.267578125 c 0
 1515.61132812 454.666992188 1515.61132812 454.666992188 1507.06152344 431.174804688 c 0
 1498.51074219 407.682617188 1498.51074219 407.682617188 1475.78222656 397.864257812 c 0
 1453.65039062 386.763671875 1453.65039062 386.763671875 1430.15820312 395.314453125 c 2
 415.290039062 764.6953125 l 2
 391.797851562 773.24609375 391.797851562 773.24609375 381.979492188 795.975585938 c 0
 371.220703125 819.045898438 371.220703125 819.045898438 379.4296875 841.598632812 c 0
 387.637695312 864.151367188 387.637695312 864.151367188 410.239257812 875.080078125 c 0
 432.83984375 886.009765625 432.83984375 886.009765625 455.862304688 877.629882812 c 0
 456.096679688 877.543945312 456.096679688 877.543945312 456.331054688 877.45703125 c 1
 456.33203125 877.458984375 l 1
80.4560546875 1214.26660156 m 1
 1659.13964844 639.673828125 l 1
 1659.13867188 639.671875 l 1
 1681.80371094 631.234375 1681.80371094 631.234375 1692.62207031 608.864257812 c 0
 1703.55078125 586.262695312 1703.55078125 586.262695312 1695 562.770507812 c 0
 1686.45019531 539.278320312 1686.45019531 539.278320312 1663.72070312 529.459960938 c 0
 1641.58984375 518.359375 1641.58984375 518.359375 1618.09765625 526.91015625 c 2
 39.4130859375 1101.50390625 l 1
 39.4130859375 1101.50390625 l 2
 15.9208984375 1110.0546875 15.9208984375 1110.0546875 6.1025390625 1132.78320312 c 0
 -4.6552734375 1155.85351562 -4.6552734375 1155.85351562 3.552734375 1178.40625 c 0
 11.76171875 1200.95898438 11.76171875 1200.95898438 34.3623046875 1211.88867188 c 0
 56.962890625 1222.81738281 56.962890625 1222.81738281 79.9853515625 1214.4375 c 0
 80.220703125 1214.3515625 80.220703125 1214.3515625 80.455078125 1214.26464844 c 1
 80.4560546875 1214.26660156 l 1
EndSplineSet
Validated: 524293
EndChar

StartChar: period
Encoding: 46 46 18
Width: 1535
VWidth: 0
GlyphClass: 2
Flags: HW
LayerCount: 3
Fore
SplineSet
103.62890625 -20.853515625 m 1025
16.998046875 -431.360351562 m 1025
358.895507812 -445.82421875 m 1
 358.89453125 -445.825195312 l 1
 265.567382812 -352.498046875 l 1
 102.2109375 -515.854492188 l 2
 102.208007812 -515.857421875 102.208007812 -515.857421875 102.205078125 -515.860351562 c 0
 102.202148438 -515.86328125 102.202148438 -515.86328125 102.19921875 -515.866210938 c 2
 101.8515625 -516.213867188 l 1
 101.850585938 -516.212890625 l 1
 84.6240234375 -533.1875 84.6240234375 -533.1875 59.7783203125 -533.537109375 c 0
 34.67578125 -533.890625 34.67578125 -533.890625 16.998046875 -516.213867188 c 0
 -0.6796875 -498.536132812 -0.6796875 -498.536132812 0.02734375 -473.787109375 c 0
 -0.6796875 -449.038085938 -0.6796875 -449.038085938 16.998046875 -431.360351562 c 2
 180.713867188 -267.64453125 l 1
 19.1298828125 -106.060546875 l 1
 18.7763671875 -105.70703125 l 1
 18.77734375 -105.706054688 l 1
 1.8017578125 -88.4794921875 1.8017578125 -88.4794921875 1.4521484375 -63.6337890625 c 0
 1.0986328125 -38.53125 1.0986328125 -38.53125 18.7763671875 -20.853515625 c 0
 36.4541015625 -3.17578125 36.4541015625 -3.17578125 61.203125 -3.8837890625 c 0
 85.951171875 -3.17578125 85.951171875 -3.17578125 103.62890625 -20.853515625 c 2
 265.567382812 -182.791992188 l 1
 357.1171875 -91.2421875 l 2
 374.793945312 -73.564453125 374.793945312 -73.564453125 399.54296875 -74.271484375 c 0
 424.999023438 -74.271484375 424.999023438 -74.271484375 441.969726562 -91.2421875 c 0
 458.940429688 -108.212890625 458.940429688 -108.212890625 459.293945312 -133.315429688 c 0
 459.647460938 -158.416992188 459.647460938 -158.416992188 442.323242188 -175.741210938 c 0
 442.146484375 -175.91796875 442.146484375 -175.91796875 441.96875 -176.09375 c 1
 441.969726562 -176.094726562 l 1
 350.419921875 -267.64453125 l 1
 443.748046875 -360.97265625 l 2
 461.42578125 -378.650390625 461.42578125 -378.650390625 460.71875 -403.3984375 c 0
 460.71875 -428.854492188 460.71875 -428.854492188 443.748046875 -445.825195312 c 0
 426.77734375 -462.795898438 426.77734375 -462.795898438 401.674804688 -463.149414062 c 0
 376.572265625 -463.502929688 376.572265625 -463.502929688 359.248046875 -446.178710938 c 0
 359.071289062 -446.001953125 359.071289062 -446.001953125 358.895507812 -445.82421875 c 1
EndSplineSet
Validated: 524289
Layer: 2
SplineSet
1352.765625 196 m 5
 1534.765625 197 l 5
 1366.765625 6 l 5
 1524.765625 -186 l 5
 1342.765625 -188 l 5
 1292.765625 -78 l 5
 1221.765625 -192 l 5
 1060.765625 -188 l 5
 1221.765625 -1 l 5
 1061.765625 197 l 5
 1238.765625 197 l 5
 1298.765625 93 l 5
 1352.765625 196 l 5
EndSplineSet
EndChar

StartChar: slash
Encoding: 47 47 19
Width: 2245
GlyphClass: 2
Flags: HW
LayerCount: 3
Fore
SplineSet
2132.97753906 2772.28222656 m 0
 2145.47753906 2793.93261719 2145.47753906 2793.93261719 2169.56542969 2799.65527344 c 0
 2194.15429688 2806.24414062 2194.15429688 2806.24414062 2214.93945312 2794.24414062 c 0
 2235.72363281 2782.24414062 2235.72363281 2782.24414062 2242.5625 2758.08886719 c 0
 2249.40039062 2733.93261719 2249.40039062 2733.93261719 2237.15136719 2712.71582031 c 0
 2237.02636719 2712.5 2237.02636719 2712.5 2236.90039062 2712.28515625 c 1
 2236.90332031 2712.28320312 l 1
 111.904296875 -968.323242188 l 2
 111.90234375 -968.323242188 111.90234375 -968.323242188 111.900390625 -968.321289062 c 1
 99.654296875 -989.178710938 99.654296875 -989.178710938 75.7451171875 -995.948242188 c 0
 51.5888671875 -1002.78710938 51.5888671875 -1002.78710938 29.9384765625 -990.286132812 c 0
 8.2880859375 -977.786132812 8.2880859375 -977.786132812 2.5654296875 -953.697265625 c 0
 -4.5234375 -929.975585938 -4.5234375 -929.975585938 7.9775390625 -908.325195312 c 0
 8.1357421875 -908.05078125 8.1357421875 -908.05078125 8.2958984375 -907.779296875 c 2
 2132.71289062 2771.81933594 l 2
 2132.84375 2772.05078125 2132.84375 2772.05078125 2132.97753906 2772.28222656 c 0
EndSplineSet
Validated: 524289
EndChar

StartChar: zero
Encoding: 48 48 20
Width: 967
GlyphClass: 2
Flags: HW
LayerCount: 3
Fore
SplineSet
483 131 m 0
 764 131 764 131 764 745 c 0
 764 975 764 975 727 1116 c 1
 338 187 l 1
 399 131 399 131 483 131 c 0
483 1360 m 0
 203 1360 203 1360 203 745 c 0
 203 471 203 471 257 321 c 1
 647 1285 l 1
 583 1360 583 1360 483 1360 c 0
845 167 m 0
 722 -29 722 -29 482.5 -29 c 0
 243 -29 243 -29 121.5 167.5 c 0
 0 364 0 364 0 745.5 c 0
 0 1127 0 1127 121.5 1323.5 c 0
 243 1520 243 1520 482.5 1520 c 0
 722 1520 722 1520 845 1324 c 0
 967 1127 967 1127 967 745.5 c 0
 967 364 967 364 845 167 c 0
EndSplineSet
Validated: 1
EndChar

StartChar: one
Encoding: 49 49 21
Width: 848
GlyphClass: 2
Flags: HW
LayerCount: 3
Fore
SplineSet
24 170 m 1
 338 170 l 1
 338 1311 l 1
 0 1235 l 1
 0 1419 l 1
 336 1493 l 1
 538 1493 l 1
 538 170 l 1
 848 170 l 1
 848 0 l 1
 24 0 l 1
 24 170 l 1
EndSplineSet
Validated: 1
EndChar

StartChar: two
Encoding: 50 50 22
Width: 907
GlyphClass: 2
Flags: HW
LayerCount: 3
Fore
SplineSet
12 1421 m 1
 218.25 1520 218.25 1520 424.125 1520 c 0
 630 1520 630 1520 764 1404 c 0
 897 1287 897 1287 897 1098 c 0
 897 911.63671875 897 911.63671875 708 694 c 0
 624.435546875 596.028320312 624.435546875 596.028320312 221 170 c 1
 907 170 l 1
 907 0 l 1
 0 0 l 1
 0 170 l 1
 377.509765625 563.57421875 377.509765625 563.57421875 498.754882812 707.787109375 c 0
 620 852 620 852 655 929 c 0
 690 1006 690 1006 690 1083 c 0
 690 1209 690 1209 616.5 1279.5 c 0
 543 1350 543 1350 415 1350 c 0
 234.328125 1350 234.328125 1350 12 1217 c 1
 12 1421 l 1
EndSplineSet
Validated: 524289
EndChar

StartChar: three
Encoding: 51 51 23
Width: 942
GlyphClass: 2
Flags: HW
LayerCount: 3
Fore
SplineSet
907 1120 m 0
 907 870.060546875 907 870.060546875 639 799 c 1
 786 760 786 760 864 660.5 c 0
 942 561 942 561 942 412 c 0
 942 206 942 206 803.5 88.5 c 0
 665 -29 665 -29 438.213867188 -29 c 0
 211.428710938 -29 211.428710938 -29 0 45 c 1
 0 246 l 1
 202.36328125 141 202.36328125 141 383.681640625 141 c 0
 565 141 565 141 653.5 216 c 0
 742 291 742 291 742 427 c 0
 742 563 742 563 654 639 c 0
 566 715 566 715 412 715 c 2
 258 715 l 1
 258 881 l 1
 412 881 l 2
 552 881 552 881 629.5 942.5 c 0
 707 1004 707 1004 707 1116 c 0
 707 1228 707 1228 635 1289 c 0
 563 1350 563 1350 406 1350 c 0
 249 1350 249 1350 45 1270 c 1
 45 1456 l 1
 289 1520 289 1520 428 1520 c 0
 646 1520 646 1520 777 1411 c 0
 907 1301 907 1301 907 1120 c 0
EndSplineSet
Validated: 524289
EndChar

StartChar: four
Encoding: 52 52 24
Width: 1033
GlyphClass: 2
Flags: HW
LayerCount: 3
Fore
SplineSet
600 1493 m 1
 834 1493 l 1
 834 520 l 1
 1033 520 l 1
 1033 356 l 1
 834 356 l 1
 834 0 l 1
 633 0 l 1
 633 356 l 1
 0 356 l 1
 0 547 l 1
 600 1493 l 1
633 1309 m 1
 162 520 l 1
 633 520 l 1
 633 1309 l 1
EndSplineSet
Validated: 1
EndChar

StartChar: five
Encoding: 53 53 25
Width: 926
GlyphClass: 2
Flags: HW
LayerCount: 3
Fore
SplineSet
723 479 m 0
 723 640 723 640 629 728.5 c 0
 535 817 535 817 368.5 817 c 0
 202 817 202 817 64 743 c 1
 64 1493 l 1
 820 1493 l 1
 820 1323 l 1
 248 1323 l 1
 248 956 l 1
 328.599609375 987 328.599609375 987 422 987 c 0
 653 987 653 987 789.5 850.5 c 0
 926 714 926 714 926 478.5 c 0
 926 243 926 243 784 107 c 0
 642 -29 642 -29 401.516601562 -29 c 0
 161.032226562 -29 161.032226562 -29 0 35 c 1
 0 240 l 1
 184.139648438 141 184.139648438 141 363.0703125 141 c 0
 542 141 542 141 633 229 c 0
 723 318 723 318 723 479 c 0
EndSplineSet
Validated: 524289
EndChar

StartChar: six
Encoding: 54 54 26
Width: 967
GlyphClass: 2
Flags: HW
LayerCount: 3
Fore
SplineSet
768 479 m 0
 768 829 768 829 498 829 c 0
 368 829 368 829 294.5 735.5 c 0
 221 642 221 642 221 479 c 0
 221 316 221 316 294.5 222.5 c 0
 368 129 368 129 498 129 c 0
 768 129 768 129 768 479 c 0
567 1520 m 0
 711.103515625 1520 711.103515625 1520 858 1460 c 1
 858 1274 l 1
 729.885742188 1350 729.885742188 1350 576 1350 c 0
 384 1350 384 1350 285 1205.5 c 0
 186 1061 186 1061 186 780 c 1
 234 880 234 880 319 934 c 0
 405 987 405 987 514 987 c 0
 731 987 731 987 849 855 c 0
 967 723 967 723 967 480.5 c 0
 967 238 967 238 845.5 104.5 c 0
 724 -29 724 -29 502 -29 c 0
 242 -29 242 -29 121 157 c 0
 0 343 0 343 0 732.5 c 0
 0 1122 0 1122 145.5 1321 c 0
 291 1520 291 1520 567 1520 c 0
EndSplineSet
Validated: 524289
EndChar

StartChar: seven
Encoding: 55 55 27
Width: 940
GlyphClass: 2
Flags: HW
LayerCount: 3
Fore
SplineSet
0 1493 m 1
 940 1493 l 1
 940 1407 l 1
 406 0 l 1
 195 0 l 1
 715 1323 l 1
 0 1323 l 1
 0 1493 l 1
EndSplineSet
Validated: 1
EndChar

StartChar: eight
Encoding: 56 56 28
Width: 971
GlyphClass: 2
Flags: HW
LayerCount: 3
Fore
SplineSet
300 1300 m 0
 236 1235 236 1235 236 1114.5 c 0
 236 994 236 994 300.5 931 c 0
 365 868 365 868 486 868 c 0
 607 868 607 868 671 931 c 0
 735 994 735 994 735 1115 c 0
 735 1236 735 1236 671.5 1300 c 0
 608 1364 608 1364 487 1364 c 0
 366 1364 366 1364 300 1300 c 0
309 793 m 1
 181 826 181 826 107 916 c 0
 35 1006 35 1006 35 1133 c 0
 35 1311 35 1311 156 1416 c 0
 278 1520 278 1520 485.5 1520 c 0
 693 1520 693 1520 815 1416 c 0
 936 1311 936 1311 936 1133 c 0
 936 1005 936 1005 863.5 915.5 c 0
 791 826 791 826 662 793 c 1
 812 760 812 760 891.5 659.5 c 0
 971 559 971 559 971 401 c 0
 971 199 971 199 842 85 c 0
 713 -29 713 -29 485 -29 c 0
 257 -29 257 -29 128.5 84.5 c 0
 0 198 0 198 0 399 c 0
 0 560 0 560 79 660 c 0
 158 760 158 760 309 793 c 1
695 205 m 0
 768 281 768 281 768 418.5 c 0
 768 556 768 556 694 632.5 c 0
 620 709 620 709 484.5 709 c 0
 349 709 349 709 276 633.5 c 0
 203 558 203 558 203 420.5 c 0
 203 283 203 283 277.5 206 c 0
 352 129 352 129 486 129 c 0
 620 129 620 129 695 205 c 0
EndSplineSet
Validated: 1
EndChar

StartChar: nine
Encoding: 57 57 29
Width: 967
GlyphClass: 2
Flags: HW
LayerCount: 3
Fore
SplineSet
399 -29 m 0
 255.896484375 -29 255.896484375 -29 109 31 c 1
 109 217 l 1
 237.114257812 141 237.114257812 141 391 141 c 1
 584 141 584 141 682 285.5 c 0
 780 430 780 430 780 711 c 1
 733 610 733 610 648 557 c 0
 563 504 563 504 453 504 c 0
 236 504 236 504 118 637 c 0
 0 770 0 770 0 1012.5 c 0
 0 1255 0 1255 121 1388 c 0
 243 1520 243 1520 465 1520 c 0
 725 1520 725 1520 846 1333 c 0
 967 1146 967 1146 967 757.5 c 0
 967 369 967 369 821.5 170 c 0
 676 -29 676 -29 399 -29 c 0
199 1012 m 0
 199 662 199 662 469 662 c 0
 597 662 597 662 671 755.5 c 0
 745 849 745 849 745 1012 c 0
 745 1175 745 1175 671 1268.5 c 0
 597 1362 597 1362 469 1362 c 0
 199 1362 199 1362 199 1012 c 0
EndSplineSet
Validated: 524289
EndChar

StartChar: colon
Encoding: 58 58 30
Width: 860
GlyphClass: 2
Flags: HW
LayerCount: 3
Fore
SplineSet
216.998046875 -479.360351562 m 1025
303.62890625 -68.853515625 m 1025
216.998046875 226.639648438 m 1025
303.62890625 637.146484375 m 1025
641.968434864 -224.093434894 m 1
 641.969726562 -224.094726562 l 1
 550.420053306 -315.644662681 l 1
 643.748046875 -408.97265625 l 2
 661.42578125 -426.650390625 661.42578125 -426.650390625 660.71875 -451.3984375 c 0
 660.71875 -476.854492188 660.71875 -476.854492188 643.748046875 -493.825195312 c 0
 626.77734375 -510.795898438 626.77734375 -510.795898438 601.674804688 -511.149414062 c 0
 576.572265625 -511.502929688 576.572265625 -511.502929688 559.248046875 -494.178710938 c 0
 559.071054208 -494.001708293 559.071054208 -494.001708293 558.895832881 -493.823893682 c 1
 558.89453125 -493.825195312 l 1
 465.567147779 -400.497811841 l 1
 302.210848703 -563.854579953 l 2
 302.207963659 -563.857465866 302.207963659 -563.857465866 302.205078125 -563.860351562 c 0
 302.202215253 -563.863214274 302.202215253 -563.863214274 302.199352168 -563.866076521 c 2
 301.8515625 -564.213867188 l 1
 301.850260818 -564.212565505 l 1
 284.6243851 -581.187205642 284.6243851 -581.187205642 259.778320312 -581.537109375 c 0
 234.67578125 -581.890625 234.67578125 -581.890625 216.998046875 -564.213867188 c 0
 199.3203125 -546.536132812 199.3203125 -546.536132812 200.02734375 -521.787109375 c 0
 199.3203125 -497.038085938 199.3203125 -497.038085938 216.998046875 -479.360351562 c 2
 380.714102221 -315.644766284 l 1
 219.129882812 -154.060546875 l 1
 218.776367188 -153.70703125 l 1
 218.777658871 -153.705739567 l 1
 201.802052272 -136.479861061 201.802052272 -136.479861061 201.452148438 -111.633789062 c 0
 201.098632812 -86.53125 201.098632812 -86.53125 218.776367188 -68.853515625 c 0
 236.454101562 -51.17578125 236.454101562 -51.17578125 261.203125 -51.8837890625 c 0
 285.951171875 -51.17578125 285.951171875 -51.17578125 303.62890625 -68.853515625 c 2
 465.567251382 -230.791860757 l 1
 557.1171875 -139.2421875 l 2
 574.793945312 -121.564453125 574.793945312 -121.564453125 599.54296875 -122.271484375 c 0
 624.999023438 -122.271484375 624.999023438 -122.271484375 641.969726562 -139.2421875 c 0
 658.940429688 -156.212890625 658.940429688 -156.212890625 659.293945312 -181.315429688 c 0
 659.647460938 -206.416992188 659.647460938 -206.416992188 642.323242188 -223.741210938 c 0
 642.146244486 -223.918208639 642.146244486 -223.918208639 641.968434864 -224.093434894 c 1
641.968434864 481.906565106 m 1
 641.969726562 481.905273438 l 1
 550.420053306 390.355337319 l 1
 643.748046875 297.02734375 l 2
 661.42578125 279.349609375 661.42578125 279.349609375 660.71875 254.6015625 c 0
 660.71875 229.145507812 660.71875 229.145507812 643.748046875 212.174804688 c 0
 626.77734375 195.204101562 626.77734375 195.204101562 601.674804688 194.850585938 c 0
 576.572265625 194.497070312 576.572265625 194.497070312 559.248046875 211.821289062 c 0
 559.071054208 211.998291707 559.071054208 211.998291707 558.895832881 212.176106318 c 1
 558.89453125 212.174804688 l 1
 465.567147779 305.502188159 l 1
 302.210848703 142.145420047 l 2
 302.207963659 142.142534134 302.207963659 142.142534134 302.205078125 142.139648438 c 0
 302.202215253 142.136785726 302.202215253 142.136785726 302.199352168 142.133923479 c 2
 301.8515625 141.786132812 l 1
 301.850260818 141.787434495 l 1
 284.6243851 124.812794358 284.6243851 124.812794358 259.778320312 124.462890625 c 0
 234.67578125 124.109375 234.67578125 124.109375 216.998046875 141.786132812 c 0
 199.3203125 159.463867188 199.3203125 159.463867188 200.02734375 184.212890625 c 0
 199.3203125 208.961914062 199.3203125 208.961914062 216.998046875 226.639648438 c 2
 380.714102221 390.355233716 l 1
 219.129882812 551.939453125 l 1
 218.776367188 552.29296875 l 1
 218.777658871 552.294260433 l 1
 201.802052272 569.520138939 201.802052272 569.520138939 201.452148438 594.366210938 c 0
 201.098632812 619.46875 201.098632812 619.46875 218.776367188 637.146484375 c 0
 236.454101562 654.82421875 236.454101562 654.82421875 261.203125 654.116210938 c 0
 285.951171875 654.82421875 285.951171875 654.82421875 303.62890625 637.146484375 c 2
 465.567251382 475.208139243 l 1
 557.1171875 566.7578125 l 2
 574.793945312 584.435546875 574.793945312 584.435546875 599.54296875 583.728515625 c 0
 624.999023438 583.728515625 624.999023438 583.728515625 641.969726562 566.7578125 c 0
 658.940429688 549.787109375 658.940429688 549.787109375 659.293945312 524.684570312 c 0
 659.647460938 499.583007812 659.647460938 499.583007812 642.323242188 482.258789062 c 0
 642.146244486 482.081791361 642.146244486 482.081791361 641.968434864 481.906565106 c 1
EndSplineSet
Validated: 524289
EndChar

StartChar: semicolon
Encoding: 59 59 31
Width: 614
GlyphClass: 2
Flags: HW
LayerCount: 3
Fore
SplineSet
96.85546875 186.639648438 m 1025
183.486328125 597.146484375 m 1025
298.142578125 -46.5 m 1025
398.284179688 -121.678710938 m 25,0,-1
 426.568359375 -93.39453125 l 25,1,-1
 426.568359375 -121.678710938 l 25,2,-1
 398.284179688 -93.39453125 l 1049,3,-1
44.0234375 -473.110351562 m 25,0,-1
 72.3076171875 -444.826171875 l 25,1,-1
 72.3076171875 -473.110351562 l 25,2,-1
 44.0234375 -444.826171875 l 1049,3,-1
15.3857421875 -501.041015625 m 0
 -3.3525390625 -482.302734375 -3.3525390625 -482.302734375 -3.3525390625 -459.67578125 c 0
 -3.3525390625 -435.633789062 -3.3525390625 -435.633789062 15.7392578125 -416.541992188 c 0
 32.9410397018 -399.340210298 32.9410397018 -399.340210298 51.5543020583 -396.568536804 c 0
 168.056277958 -361.801208785 168.056277958 -361.801208785 233.078125 -296.669921875 c 0
 292.197704876 -237.626160425 292.197704876 -237.626160425 325.986301805 -166.5 c 1
 298.642578125 -166.5 l 1
 298.142578125 -166.5 l 1
 298.142578125 -166.498172893 l 1
 273.958655359 -166.3211862 273.958655359 -166.3211862 256.142578125 -149 c 0
 238.142578125 -131.5 238.142578125 -131.5 238.142578125 -106.5 c 0
 238.142578125 -81.5 238.142578125 -81.5 256.142578125 -64.5 c 0
 273.142578125 -46.5 273.142578125 -46.5 298.142578125 -46.5 c 2
 399.510802303 -46.5 l 2
 406.926127891 -44.3885289719 406.926127891 -44.3885289719 414.571289062 -44.6279296875 c 0
 421.569975199 -44.8611747342 421.569975199 -44.8611747342 428.488849436 -47.3264205231 c 0
 446.785191523 -50.356885384 446.785191523 -50.356885384 460.142578125 -64.5 c 0
 478.142578125 -82.5 478.142578125 -82.5 478.142578125 -106.5 c 0
 478.142578125 -124.652947762 478.142578125 -124.652947762 468.130830852 -139.373296482 c 1
 428.234813825 -272.741282156 428.234813825 -272.741282156 318.637695312 -382.229492188 c 0
 223.966983353 -477.014483443 223.966983353 -477.014483443 75.5000047998 -516.993782719 c 0
 66.6613718312 -519.78027488 66.6613718312 -519.78027488 56.7509765625 -519.780273438 c 0
 34.1240234375 -519.780273438 34.1240234375 -519.780273438 15.3857421875 -501.041015625 c 0
521.825856739 441.906565106 m 1
 521.827148438 441.905273438 l 1
 430.277475181 350.355337319 l 1
 523.60546875 257.02734375 l 2
 541.283203125 239.349609375 541.283203125 239.349609375 540.576171875 214.6015625 c 0
 540.576171875 189.145507812 540.576171875 189.145507812 523.60546875 172.174804688 c 0
 506.634765625 155.204101562 506.634765625 155.204101562 481.532226562 154.850585938 c 0
 456.4296875 154.497070312 456.4296875 154.497070312 439.10546875 171.821289062 c 0
 438.928476083 171.998291707 438.928476083 171.998291707 438.753254756 172.176106318 c 1
 438.751953125 172.174804688 l 1
 345.424569654 265.502188159 l 1
 182.068270578 102.145420047 l 2
 182.065385534 102.142534134 182.065385534 102.142534134 182.0625 102.139648438 c 0
 182.059637128 102.136785726 182.059637128 102.136785726 182.056774043 102.133923479 c 2
 181.708984375 101.786132812 l 1
 181.707682693 101.787434495 l 1
 164.481806975 84.8127943579 164.481806975 84.8127943579 139.635742188 84.462890625 c 0
 114.533203125 84.109375 114.533203125 84.109375 96.85546875 101.786132812 c 0
 79.177734375 119.463867188 79.177734375 119.463867188 79.884765625 144.212890625 c 0
 79.177734375 168.961914062 79.177734375 168.961914062 96.85546875 186.639648438 c 2
 260.571524096 350.355233716 l 1
 98.9873046875 511.939453125 l 1
 98.6337890625 512.29296875 l 1
 98.6350807456 512.294260433 l 1
 81.6594741469 529.520138939 81.6594741469 529.520138939 81.3095703125 554.366210938 c 0
 80.9560546875 579.46875 80.9560546875 579.46875 98.6337890625 597.146484375 c 0
 116.311523438 614.82421875 116.311523438 614.82421875 141.060546875 614.116210938 c 0
 165.80859375 614.82421875 165.80859375 614.82421875 183.486328125 597.146484375 c 2
 345.424673257 435.208139243 l 1
 436.974609375 526.7578125 l 2
 454.651367188 544.435546875 454.651367188 544.435546875 479.400390625 543.728515625 c 0
 504.856445312 543.728515625 504.856445312 543.728515625 521.827148438 526.7578125 c 0
 538.797851562 509.787109375 538.797851562 509.787109375 539.151367188 484.684570312 c 0
 539.504882812 459.583007812 539.504882812 459.583007812 522.180664062 442.258789062 c 0
 522.003666361 442.081791361 522.003666361 442.081791361 521.825856739 441.906565106 c 1
EndSplineSet
Validated: 524291
EndChar

StartChar: less
Encoding: 60 60 32
Width: 1648
GlyphClass: 2
Flags: HW
LayerCount: 3
Fore
SplineSet
1484.62988281 170.622070312 m 1025
103.633789062 1072.6796875 m 1025
89.70703125 1114.54296875 m 1
 89.7080078125 1114.54492188 l 1
 132.927734375 1089.59179688 l 1
 1558.55566406 1912.6796875 l 2
 1580.20605469 1925.1796875 1580.20605469 1925.1796875 1603.92871094 1918.09179688 c 0
 1628.51757812 1911.50292969 1628.51757812 1911.50292969 1640.51757812 1890.71875 c 0
 1652.51757812 1869.93359375 1652.51757812 1869.93359375 1646.36132812 1845.59570312 c 0
 1640.20605469 1821.25683594 1640.20605469 1821.25683594 1618.98828125 1809.00683594 c 0
 1618.77246094 1808.88183594 1618.77246094 1808.88183594 1618.5546875 1808.75878906 c 1
 1618.55566406 1808.75683594 l 1
 252.927734375 1020.31054688 l 1
 1544.05761719 274.875976562 l 2
 1544.12792969 274.8359375 1544.12792969 274.8359375 1544.19726562 274.794921875 c 0
 1544.26855469 274.75390625 1544.26855469 274.75390625 1544.33886719 274.712890625 c 2
 1544.62988281 274.544921875 l 1
 1544.62988281 274.543945312 l 1
 1565.484375 262.297851562 1565.484375 262.297851562 1572.25292969 238.389648438 c 0
 1579.09179688 214.234375 1579.09179688 214.234375 1566.59179688 192.583984375 c 0
 1554.09179688 170.932617188 1554.09179688 170.932617188 1530.00292969 165.2109375 c 0
 1506.28027344 158.122070312 1506.28027344 158.122070312 1484.62988281 170.622070312 c 2
 29.7080078125 1010.62207031 l 2
 8.0576171875 1023.12207031 8.0576171875 1023.12207031 2.3349609375 1047.2109375 c 0
 -4.25390625 1071.79882812 -4.25390625 1071.79882812 7.74609375 1092.58398438 c 0
 19.74609375 1113.36816406 19.74609375 1113.36816406 43.9013671875 1120.20703125 c 0
 68.0576171875 1127.04492188 68.0576171875 1127.04492188 89.2744140625 1114.79492188 c 0
 89.4921875 1114.66992188 89.4921875 1114.66992188 89.70703125 1114.54296875 c 1
EndSplineSet
Validated: 524289
EndChar

StartChar: equal
Encoding: 61 61 33
Width: 1057
GlyphClass: 2
Flags: HW
LayerCount: 3
Fore
SplineSet
0 524 m 1
 1057 524 l 1
 1057 352 l 1
 618 352 l 1
 618 183 l 1
 450 183 l 1
 450 352 l 1
 0 352 l 1
 0 524 l 1
462 1098 m 1
 630 1098 l 1
 630 930 l 1
 1057 930 l 1
 1057 760 l 1
 0 760 l 1
 0 930 l 1
 462 930 l 1
 462 1098 l 1
EndSplineSet
Validated: 1
EndChar

StartChar: greater
Encoding: 62 62 34
Width: 1648
GlyphClass: 2
Flags: HW
LayerCount: 3
Fore
SplineSet
1544.81542969 964.919921875 m 1025
163.819335938 1866.97753906 m 1025
29.89453125 228.840820312 m 1
 29.8935546875 228.842773438 l 1
 1395.52148438 1017.2890625 l 1
 104.391601562 1762.72363281 l 2
 104.321289062 1762.76367188 104.321289062 1762.76367188 104.251953125 1762.8046875 c 0
 104.180664062 1762.84570312 104.180664062 1762.84570312 104.110351562 1762.88671875 c 2
 103.819335938 1763.0546875 l 1
 103.819335938 1763.05566406 l 1
 82.96484375 1775.30175781 82.96484375 1775.30175781 76.1962890625 1799.20996094 c 0
 69.357421875 1823.36523438 69.357421875 1823.36523438 81.857421875 1845.015625 c 0
 94.357421875 1866.66699219 94.357421875 1866.66699219 118.446289062 1872.38867188 c 0
 142.168945312 1879.47753906 142.168945312 1879.47753906 163.819335938 1866.97753906 c 2
 1618.74121094 1026.97753906 l 2
 1640.39160156 1014.47753906 1640.39160156 1014.47753906 1646.11425781 990.388671875 c 0
 1652.703125 965.80078125 1652.703125 965.80078125 1640.703125 945.015625 c 0
 1628.703125 924.231445312 1628.703125 924.231445312 1604.54785156 917.392578125 c 0
 1580.39160156 910.5546875 1580.39160156 910.5546875 1559.17480469 922.8046875 c 0
 1558.95703125 922.9296875 1558.95703125 922.9296875 1558.7421875 923.056640625 c 1
 1558.74121094 923.0546875 l 1
 1515.52148438 948.0078125 l 1
 89.8935546875 124.919921875 l 2
 68.2431640625 112.419921875 68.2431640625 112.419921875 44.5205078125 119.5078125 c 0
 19.931640625 126.096679688 19.931640625 126.096679688 7.931640625 146.880859375 c 0
 -4.068359375 167.666015625 -4.068359375 167.666015625 2.087890625 192.00390625 c 0
 8.2431640625 216.342773438 8.2431640625 216.342773438 29.4609375 228.592773438 c 0
 29.6767578125 228.717773438 29.6767578125 228.717773438 29.89453125 228.840820312 c 1
EndSplineSet
Validated: 524289
EndChar

StartChar: question
Encoding: 63 63 35
Width: 744
VWidth: 0
GlyphClass: 2
Flags: HW
LayerCount: 3
Fore
SplineSet
122.712890625 -434.360351562 m 1025
209.34375 -23.853515625 m 1025
27.599609375 1418.79980469 m 1
 227.385610143 1535.13606428 227.385610143 1535.13606428 356.388592549 1535.13606428 c 0,0,0
 378.880498792 1535.13606428 378.880498792 1535.13606428 399.220703125 1531.59960938 c 0
 697 1481 697 1481 740.400390625 1194.59960938 c 0
 744.107433234 1169.89238666 744.107433234 1169.89238666 744.107433234 1145.27978168 c 0,0,0
 744.107433234 953.569454331 744.107433234 953.569454331 519.200195312 767.599609375 c 0
 451 711 451 711 425.599609375 625.200195312 c 0
 420.079948512 606.274131095 420.079948512 606.274131095 419.224011953 398.460106453 c 0
 419.500000235 395.533717614 419.500000235 395.533717614 419.5 392.5 c 0
 419.5 368 419.5 368 402 350 c 0
 384.5 332 384.5 332 359.5 332 c 0
 334.5 332 334.5 332 317.5 350 c 0
 299.5 367 299.5 367 299.5 392 c 0
 299.5 393.859746987 299.5 393.859746987 299.599609375 395.67522314 c 2
 299.599609375 622.799804688 l 2
 300 716 300 716 444.400390625 852.400390625 c 1
 615.612042337 996.193742776 615.612042337 996.193742776 615.612042337 1145.44679646 c 0,0,0
 615.612042337 1163.88194634 615.612042337 1163.88194634 613 1182.40039062 c 0
 584 1384 584 1384 391.5 1411 c 0
 377.431099708 1412.88738597 377.431099708 1412.88738597 362.431709089 1412.88738597 c 0,0,0
 252.986139723 1412.88738597 252.986139723 1412.88738597 94 1312.40039062 c 1
 92.4180199099 1314.93534189 l 1
 78.1954581355 1305.40039062 78.1954581355 1305.40039062 60 1305.40039062 c 0
 35 1305.40039062 35 1305.40039062 18 1323.40039062 c 0
 0 1340.40039062 0 1340.40039062 0 1365.40039062 c 0
 0 1390.40039062 0 1390.40039062 18 1407.40039062 c 0
 23.284467561 1412.68485819 23.284467561 1412.68485819 29.0860758147 1416.41790367 c 1
 27.599609375 1418.79980469 l 1
547.683278614 -179.093434894 m 1
 547.684570312 -179.094726562 l 1
 456.134897056 -270.644662681 l 1
 549.462890625 -363.97265625 l 2
 567.140625 -381.650390625 567.140625 -381.650390625 566.43359375 -406.3984375 c 0
 566.43359375 -431.854492188 566.43359375 -431.854492188 549.462890625 -448.825195312 c 0
 532.4921875 -465.795898438 532.4921875 -465.795898438 507.389648438 -466.149414062 c 0
 482.287109375 -466.502929688 482.287109375 -466.502929688 464.962890625 -449.178710938 c 0
 464.785897958 -449.001708293 464.785897958 -449.001708293 464.610676631 -448.823893682 c 1
 464.609375 -448.825195312 l 1
 371.281991529 -355.497811841 l 1
 207.925692453 -518.854579953 l 2
 207.922807409 -518.857465866 207.922807409 -518.857465866 207.919921875 -518.860351562 c 0
 207.917059003 -518.863214274 207.917059003 -518.863214274 207.914195918 -518.866076521 c 2
 207.56640625 -519.213867188 l 1
 207.565104568 -519.212565505 l 1
 190.33922885 -536.187205642 190.33922885 -536.187205642 165.493164062 -536.537109375 c 0
 140.390625 -536.890625 140.390625 -536.890625 122.712890625 -519.213867188 c 0
 105.03515625 -501.536132812 105.03515625 -501.536132812 105.7421875 -476.787109375 c 0
 105.03515625 -452.038085938 105.03515625 -452.038085938 122.712890625 -434.360351562 c 2
 286.428945971 -270.644766284 l 1
 124.844726562 -109.060546875 l 1
 124.491210938 -108.70703125 l 1
 124.492502621 -108.705739567 l 1
 107.516896022 -91.4798610611 107.516896022 -91.4798610611 107.166992188 -66.6337890625 c 0
 106.813476562 -41.53125 106.813476562 -41.53125 124.491210938 -23.853515625 c 0
 142.168945312 -6.17578125 142.168945312 -6.17578125 166.91796875 -6.8837890625 c 0
 191.666015625 -6.17578125 191.666015625 -6.17578125 209.34375 -23.853515625 c 2
 371.282095132 -185.791860757 l 1
 462.83203125 -94.2421875 l 2
 480.508789062 -76.564453125 480.508789062 -76.564453125 505.2578125 -77.271484375 c 0
 530.713867188 -77.271484375 530.713867188 -77.271484375 547.684570312 -94.2421875 c 0
 564.655273438 -111.212890625 564.655273438 -111.212890625 565.008789062 -136.315429688 c 0
 565.362304688 -161.416992188 565.362304688 -161.416992188 548.038085938 -178.741210938 c 0
 547.861088236 -178.918208639 547.861088236 -178.918208639 547.683278614 -179.093434894 c 1
EndSplineSet
Validated: 524289
EndChar

StartChar: at
Encoding: 64 64 36
Width: 984
GlyphClass: 2
Flags: HW
LayerCount: 3
Fore
SplineSet
871.619140625 -171.83984375 m 1
 767.421875 -213.741210938 767.421875 -213.741210938 665.625976562 -213.741210938 c 0,0,0
 664.313476562 -213.741210938 664.313476562 -213.741210938 663 -213.734375 c 0
 662.594726562 -213.734375 662.594726562 -213.734375 662.189453125 -213.734375 c 0,0,0
 357.760742188 -213.734375 357.760742188 -213.734375 178.21484375 -14.51953125 c 0
 0 185 0 185 0 520.5 c 0
 0 856 0 856 160 1054 c 0
 319.78515625 1251.734375 319.78515625 1251.734375 590.454101562 1251.734375 c 0,0,0
 590.817382812 1251.734375 590.817382812 1251.734375 591.180664062 1251.734375 c 0
 591.598632812 1251.73535156 591.598632812 1251.73535156 592.016601562 1251.73535156 c 0,0,0
 771.24609375 1251.73535156 771.24609375 1251.73535156 877 1138 c 0
 983 1024 983 1024 983.625 832.78515625 c 0
 983.669921875 819.1796875 983.669921875 819.1796875 983.669921875 805.98828125 c 0,0,0
 983.669921875 549.162109375 983.669921875 549.162109375 966.525390625 448.890625 c 1
 931.345703125 305.247070312 931.345703125 305.247070312 842.977539062 234.28515625 c 0
 805 204 805 204 761.5 180.5 c 0
 718.611328125 157.330078125 718.611328125 157.330078125 648.752929688 157.330078125 c 0,0,0
 647.756835938 157.330078125 647.756835938 157.330078125 646.755859375 157.334960938 c 0
 646.311523438 157.333984375 646.311523438 157.333984375 645.8671875 157.333984375 c 0,0,0
 508.709960938 157.333984375 508.709960938 157.333984375 419 260.5 c 0
 329 364 329 364 329 525 c 0
 329 686 329 686 418.5 789 c 0
 508 892 508 892 646.755859375 892.634765625 c 0
 647.455078125 892.637695312 647.455078125 892.637695312 648.153320312 892.637695312 c 0,0,0
 725.598632812 892.637695312 725.598632812 892.637695312 792 852.5 c 0
 859 812 859 812 873 789 c 1
 873.095703125 793.9609375 873.095703125 793.9609375 873.095703125 798.870117188 c 0,0,0
 873.095703125 947.36328125 873.095703125 947.36328125 785.265625 1049.09960938 c 0
 716 1130 716 1130 586.049804688 1130.32519531 c 0
 375 1130 375 1130 251 966 c 0
 127 802 127 802 127 522 c 0
 127 242 127 242 269 74 c 0
 408.892578125 -91.5068359375 408.892578125 -91.5068359375 636.459960938 -91.5068359375 c 0,0,0
 639.887695312 -91.5068359375 639.887695312 -91.5068359375 643.334960938 -91.4697265625 c 0
 740.202148438 -90.53515625 740.202148438 -90.53515625 830.580078125 -56.4150390625 c 1
 830.9921875 -57.5751953125 l 1
 840.680664062 -53.83984375 840.680664062 -53.83984375 851.614257812 -53.83984375 c 0
 875.614257812 -53.83984375 875.614257812 -53.83984375 893.614257812 -71.33984375 c 0
 911.614257812 -88.83984375 911.614257812 -88.83984375 911.614257812 -113.33984375 c 0
 911.614257812 -137.83984375 911.614257812 -137.83984375 894.114257812 -155.83984375 c 0
 883.932617188 -166.3125 883.932617188 -166.3125 871.2109375 -170.692382812 c 1
 871.619140625 -171.83984375 l 1
809.205078125 347.14453125 m 0
 863.924804688 412.98046875 863.924804688 412.98046875 863.924804688 524.557617188 c 0
 863.924804688 636.134765625 863.924804688 636.134765625 809.205078125 701.969726562 c 0
 754.484375 767.805664062 754.484375 767.805664062 662.572265625 767.805664062 c 0
 570.66015625 767.805664062 570.66015625 767.805664062 515.939453125 702.397460938 c 0
 461.219726562 636.990234375 461.219726562 636.990234375 461.219726562 524.984375 c 0
 461.219726562 412.98046875 461.219726562 412.98046875 515.939453125 347.14453125 c 0
 570.66015625 281.309570312 570.66015625 281.309570312 662.145507812 281.309570312 c 0
 753.630859375 281.309570312 753.630859375 281.309570312 809.205078125 347.14453125 c 0
EndSplineSet
Validated: 524289
EndChar

StartChar: A
Encoding: 65 65 37
Width: 626
VWidth: 0
GlyphClass: 2
Flags: HW
LayerCount: 3
Fore
SplineSet
522.444335938 667.692382812 m 25,0,-1
 502.444335938 633.051757812 l 25,1,-1
 495.124023438 660.372070312 l 25,2,-1
 529.765625 640.372070312 l 1049,3,-1
182.444335938 78.794921875 m 25,0,-1
 162.444335938 44.154296875 l 25,1,-1
 155.124023438 71.474609375 l 25,2,-1
 189.765625 51.474609375 l 1049,3,-1
120.483398438 91.474609375 m 1025
72.9423828125 2067.16210938 m 25,0,-1
 52.9423828125 2032.52148438 l 25,1,-1
 45.6220703125 2059.84179688 l 25,2,-1
 80.2626953125 2039.84179688 l 1049,3,-1
552.68359375 2077.16210938 m 25,0,-1
 572.68359375 2042.52148438 l 25,1,-1
 545.36328125 2049.84179688 l 25,2,-1
 580.004882812 2069.84179688 l 1049,3,-1
319.813476562 2412 m 25,0,-1
 319.813476562 2372 l 25,1,-1
 299.813476562 2392 l 25,2,-1
 339.813476562 2392 l 1049,3,-1
542.877929688 702.083007812 m 0
 575.444335938 683.280273438 575.444335938 683.280273438 575.444335938 655.604492188 c 0,0,0
 575.444335938 639.4921875 575.444335938 639.4921875 564.40625 620.372070312 c 2
 224.40625 31.474609375 l 2
 205.38671875 -1.466796875 205.38671875 -1.466796875 177.541015625 -1.466796875 c 0,0,0
 161.463867188 -1.466796875 161.463867188 -1.466796875 142.444335938 9.513671875 c 0
 109.501953125 28.533203125 109.501953125 28.533203125 109.501953125 56.37890625 c 0,0,0
 109.501953125 72.455078125 109.501953125 72.455078125 120.483398438 91.474609375 c 2
 460.483398438 680.372070312 l 2
 472.483398438 701.15625 472.483398438 701.15625 495.33984375 708.744140625 c 0
 518.196289062 716.333007812 518.196289062 716.333007812 542.877929688 702.083007812 c 0
12.173828125 2081.83203125 m 2
 15.125 2086.57714844 15.125 2086.57714844 18.6796875 2090.59082031 c 2
 267.813476562 2426 l 1
 269.68359375 2426 l 1
 272.379882812 2430.13769531 272.379882812 2430.13769531 275.813476562 2434 c 0
 291.813476562 2452 291.813476562 2452 320.313476562 2452 c 0
 348.813476562 2452 348.813476562 2452 364.313476562 2435.5 c 0
 368.427734375 2431.12011719 368.427734375 2431.12011719 371.450195312 2426 c 1
 371.813476562 2426 l 1
 604.021484375 2104.921875 l 2
 608.928710938 2099.32519531 608.928710938 2099.32519531 613.377929688 2091.984375 c 2
 614.813476562 2090 l 1
 614.618164062 2089.88769531 l 1
 614.631835938 2089.86523438 614.631835938 2089.86523438 614.645507812 2089.84179688 c 0
 625.625976562 2070.82226562 625.625976562 2070.82226562 625.625976562 2054.74511719 c 0,0,0
 625.625976562 2026.89941406 625.625976562 2026.89941406 592.68359375 2007.87988281 c 0
 573.6640625 1996.89941406 573.6640625 1996.89941406 557.587890625 1996.89941406 c 0,0,0
 529.741210938 1996.89941406 529.741210938 1996.89941406 510.72265625 2029.84179688 c 0
 510.313476562 2030.54980469 510.313476562 2030.54980469 509.923828125 2031.26074219 c 2
 319.813476562 2301 l 1
 115.635742188 2021.12792969 l 2
 115.276367188 2020.48632812 115.276367188 2020.48632812 114.904296875 2019.84179688 c 0
 95.8837890625 1986.89941406 95.8837890625 1986.89941406 68.0380859375 1986.89941406 c 0,0,0
 51.9609375 1986.89941406 51.9609375 1986.89941406 32.9423828125 1997.87988281 c 0
 0 2016.89941406 0 2016.89941406 0 2044.74511719 c 0,0,0
 0 2060.82226562 -0 2060.82226562 10.9814453125 2079.84179688 c 0
 10.994140625 2079.86523438 10.994140625 2079.86523438 11.0078125 2079.88769531 c 1
 10.8134765625 2080 l 1
 12.173828125 2081.83203125 l 2
EndSplineSet
Validated: 524291
EndChar

StartChar: B
Encoding: 66 66 38
Width: 737
VWidth: 3070
GlyphClass: 2
Flags: HW
LayerCount: 3
Fore
SplineSet
288.80859375 70 m 1025
348.80859375 891 m 25,0,-1
 348.80859375 851 l 25,1,-1
 328.80859375 871 l 25,2,-1
 368.80859375 871 l 1049,3,-1
348.80859375 886 m 25,0,-1
 348.80859375 846 l 25,1,-1
 328.80859375 866 l 25,2,-1
 368.80859375 866 l 1049,3,-1
9.1806640625 2874.84667969 m 2
 11.94140625 2879.26953125 11.94140625 2879.26953125 15.2216796875 2882.97949219 c 2
 264.80859375 3219 l 1
 267.661132812 3219 l 1
 270.78515625 3223.20019531 270.78515625 3223.20019531 274.80859375 3227 c 0
 292.80859375 3245 292.80859375 3245 316.80859375 3245 c 0
 340.80859375 3245 340.80859375 3245 358.80859375 3227.5 c 0
 362.986328125 3223.43847656 362.986328125 3223.43847656 366.194335938 3219 c 1
 368.80859375 3219 l 1
 605.197265625 2892.14257812 l 2
 607.9765625 2888.84570312 607.9765625 2888.84570312 610.33984375 2885.03125 c 2
 611.80859375 2883 l 1
 611.61328125 2882.88671875 l 1
 623.584960938 2861.83496094 623.584960938 2861.83496094 617.485351562 2837.71875 c 0
 611.330078125 2813.37988281 611.330078125 2813.37988281 589.678710938 2800.87988281 c 0
 568.028320312 2788.37988281 568.028320312 2788.37988281 544.305664062 2795.46875 c 0
 520.217773438 2801.19042969 520.217773438 2801.19042969 507.717773438 2822.84179688 c 0
 507.310546875 2823.54785156 507.310546875 2823.54785156 506.923828125 2824.25585938 c 2
 316.80859375 3094 l 1
 112.641601562 2814.14160156 l 2
 112.399414062 2813.70703125 112.399414062 2813.70703125 112.149414062 2813.27441406 c 0
 99.8994140625 2792.05664062 99.8994140625 2792.05664062 75.744140625 2785.21875 c 0
 51.587890625 2778.37988281 51.587890625 2778.37988281 29.9375 2790.87988281 c 0
 8.287109375 2803.37988281 8.287109375 2803.37988281 2.564453125 2827.46875 c 0
 -4.5234375 2851.19042969 -4.5234375 2851.19042969 7.9765625 2872.84179688 c 0
 7.990234375 2872.86523438 7.990234375 2872.86523438 8.00390625 2872.88769531 c 1
 7.80859375 2873 l 1
 9.1806640625 2874.84667969 l 2
408.806640625 1750 m 1
 408.80859375 1750 l 1
 408.80859375 1498.58105469 l 1
 454.150390625 1520.01367188 454.150390625 1520.01367188 516.623046875 1520.01367188 c 0,0,0
 518.209960938 1520.01367188 518.209960938 1520.01367188 519.80859375 1520 c 0
 624.80859375 1519 624.80859375 1519 686.80859375 1431 c 0
 737.069335938 1358.56542969 737.069335938 1358.56542969 737.069335938 1283.9453125 c 0,0,0
 737.069335938 1207.13085938 737.069335938 1207.13085938 683.80859375 1128 c 0
 661.80859375 1095 661.80859375 1095 596.80859375 1029 c 0
 529.370117188 960.569335938 529.370117188 960.569335938 408.80859375 847.876953125 c 1
 408.80859375 70.5 l 1
 408.80859375 70 l 1
 408.806640625 70 l 1
 408.629882812 45.81640625 408.629882812 45.81640625 391.30859375 28 c 0
 373.80859375 10 373.80859375 10 348.80859375 10 c 0
 323.80859375 10 323.80859375 10 306.80859375 28 c 0
 288.80859375 45 288.80859375 45 288.80859375 70 c 2
 288.80859375 865 l 1
 288.80859375 866 l 1
 288.80859375 871 l 1
 288.80859375 1235 l 1
 288.80859375 1750 l 2
 288.80859375 1775 288.80859375 1775 306.80859375 1792 c 0
 324.80859375 1810 324.80859375 1810 348.80859375 1810 c 0
 372.80859375 1810 372.80859375 1810 390.80859375 1792.5 c 0
 408.80859375 1775 408.80859375 1775 408.80859375 1750.5 c 0
 408.80859375 1750.25 408.80859375 1750.25 408.806640625 1750 c 1
408.80859375 1232 m 2
 408.80859375 1009 l 1
 455.80859375 1057 455.80859375 1057 502.80859375 1105 c 0
 617.8828125 1220.07421875 617.8828125 1220.07421875 617.8828125 1279.98925781 c 0,0,0
 617.8828125 1393.59082031 617.8828125 1393.59082031 522.80859375 1400 c 0
 518.423828125 1400.26953125 518.423828125 1400.26953125 514.208007812 1400.26953125 c 0,0,0
 408.80859375 1400.26953125 408.80859375 1400.26953125 408.80859375 1232 c 2
EndSplineSet
Validated: 524291
EndChar

StartChar: C
Encoding: 67 67 39
Width: 1246
GlyphClass: 2
Flags: HW
LayerCount: 3
Fore
SplineSet
858.80859375 168 m 0
 936.80859375 168 936.80859375 168 997.30859375 140.5 c 0
 1057.80859375 113 1057.80859375 113 1115.80859375 60 c 0
 1173.80859375 6 1173.80859375 6 1209.80859375 -75.5 c 0
 1245.80859375 -157 1245.80859375 -157 1245.80859375 -255 c 0
 1245.80859375 -353 1245.80859375 -353 1206.80859375 -441 c 0
 1167.80859375 -529 1167.80859375 -529 1115.80859375 -570 c 0
 1048.80859375 -623 1048.80859375 -623 991.80859375 -650.5 c 0
 934.80859375 -678 934.80859375 -678 858.80859375 -678 c 0
 781.80859375 -678 781.80859375 -678 723.30859375 -650.5 c 0
 664.80859375 -623 664.80859375 -623 602.80859375 -570 c 0
 546.80859375 -524 546.80859375 -524 511.30859375 -439.5 c 0
 475.80859375 -355 475.80859375 -355 475.80859375 -255 c 0
 475.80859375 -54 475.80859375 -54 602.80859375 60 c 0
 660.80859375 112 660.80859375 112 720.80859375 140 c 0
 780.80859375 168 780.80859375 168 858.80859375 168 c 0
863.80859375 -515 m 0
 928.80859375 -515 928.80859375 -515 975.80859375 -492.5 c 0
 1022.80859375 -470 1022.80859375 -470 1047.80859375 -431.5 c 0
 1072.80859375 -393 1072.80859375 -393 1083.80859375 -350.5 c 0
 1094.80859375 -308 1094.80859375 -308 1094.80859375 -259 c 0
 1094.80859375 -204 1094.80859375 -204 1083.30859375 -158.5 c 0
 1071.80859375 -113 1071.80859375 -113 1046.80859375 -73.5 c 0
 1021.80859375 -34 1021.80859375 -34 974.80859375 -11.5 c 0
 927.80859375 11 927.80859375 11 863.80859375 11 c 2
 861.80859375 11 l 2
 803.80859375 11 803.80859375 11 758.30859375 -14 c 0
 712.80859375 -39 712.80859375 -39 686.30859375 -79 c 0
 659.80859375 -119 659.80859375 -119 646.30859375 -164.5 c 0
 632.80859375 -210 632.80859375 -210 632.80859375 -255 c 0
 632.80859375 -364 632.80859375 -364 690.80859375 -439.5 c 0
 748.80859375 -515 748.80859375 -515 863.80859375 -515 c 0
9.1806640625 2875.84667969 m 2
 11.94140625 2880.26953125 11.94140625 2880.26953125 15.2216796875 2883.97949219 c 2
 264.80859375 3220 l 1
 267.661132812 3220 l 1
 270.78515625 3224.20019531 270.78515625 3224.20019531 274.80859375 3228 c 0
 292.80859375 3246 292.80859375 3246 316.80859375 3246 c 0
 340.80859375 3246 340.80859375 3246 358.80859375 3228.5 c 0
 362.986328125 3224.43847656 362.986328125 3224.43847656 366.194335938 3220 c 1
 368.80859375 3220 l 1
 605.197265625 2893.14257812 l 2
 607.9765625 2889.84570312 607.9765625 2889.84570312 610.33984375 2886.03125 c 2
 611.80859375 2884 l 1
 611.61328125 2883.88671875 l 1
 623.584960938 2862.83496094 623.584960938 2862.83496094 617.485351562 2838.71875 c 0
 611.330078125 2814.37988281 611.330078125 2814.37988281 589.678710938 2801.87988281 c 0
 568.028320312 2789.37988281 568.028320312 2789.37988281 544.305664062 2796.46875 c 0
 520.217773438 2802.19042969 520.217773438 2802.19042969 507.717773438 2823.84179688 c 0
 507.310546875 2824.54785156 507.310546875 2824.54785156 506.923828125 2825.25585938 c 2
 316.80859375 3095 l 1
 112.641601562 2815.14160156 l 2
 112.399414062 2814.70703125 112.399414062 2814.70703125 112.149414062 2814.27441406 c 0
 99.8994140625 2793.05664062 99.8994140625 2793.05664062 75.744140625 2786.21875 c 0
 51.587890625 2779.37988281 51.587890625 2779.37988281 29.9375 2791.87988281 c 0
 8.287109375 2804.37988281 8.287109375 2804.37988281 2.564453125 2828.46875 c 0
 -4.5234375 2852.19042969 -4.5234375 2852.19042969 7.9765625 2873.84179688 c 0
 7.990234375 2873.86523438 7.990234375 2873.86523438 8.00390625 2873.88769531 c 1
 7.80859375 2874 l 1
 9.1806640625 2875.84667969 l 2
EndSplineSet
Validated: 524289
EndChar

StartChar: D
Encoding: 68 68 40
Width: 1124
VWidth: 0
GlyphClass: 2
Flags: HW
LayerCount: 3
Fore
SplineSet
60 -65.7001953125 m 25,0,-1
 60 -25.7001953125 l 25,1,-1
 80 -45.7001953125 l 25,2,-1
 40 -45.7001953125 l 1049,3,-1
317.87890625 -521.63671875 m 25,0,-1
 283.237304688 -501.63671875 l 25,1,-1
 310.55859375 -494.31640625 l 25,2,-1
 290.55859375 -528.95703125 l 1049,3,-1
352.26953125 -542.069335938 m 0
 339.01953125 -565.01953125 339.01953125 -565.01953125 317.163085938 -570.875976562 c 0
 293.940429688 -577.098632812 293.940429688 -577.098632812 270.55859375 -563.598632812 c 0
 267.927734375 -562.080078125 267.927734375 -562.080078125 265.508789062 -560.481445312 c 0
 0 -403.0234375 0 -403.0234375 0 -45.7001953125 c 0
 0 -15.7001953125 0 -15.7001953125 17.0341796875 0.2998046875 c 0
 32 14.2998046875 32 14.2998046875 60 14.2998046875 c 0
 88 14.2998046875 88 14.2998046875 102.965820312 0.2998046875 c 0
 120 -15.7001953125 120 -15.7001953125 120 -45.7001953125 c 0
 120 -335.700195312 120 -335.700195312 331 -459.700195312 c 1
 330.900390625 -459.873046875 l 1
 353.125 -472.862304688 353.125 -472.862304688 359.663085938 -497.263671875 c 0
 365.51953125 -519.120117188 365.51953125 -519.120117188 352.26953125 -542.069335938 c 0
513.37109375 2875.84667969 m 2
 516.1328125 2880.26953125 516.1328125 2880.26953125 519.412109375 2883.97949219 c 2
 769 3220 l 1
 771.852539062 3220 l 1
 774.9765625 3224.20019531 774.9765625 3224.20019531 779 3228 c 0
 797 3246 797 3246 821 3246 c 0
 845 3246 845 3246 863 3228.5 c 0
 867.177734375 3224.43847656 867.177734375 3224.43847656 870.385742188 3220 c 1
 873 3220 l 1
 1109.38769531 2893.14257812 l 2
 1112.16699219 2889.84570312 1112.16699219 2889.84570312 1114.53125 2886.03125 c 2
 1116 2884 l 1
 1115.80371094 2883.88671875 l 1
 1127.77539062 2862.83496094 1127.77539062 2862.83496094 1121.67675781 2838.71875 c 0
 1115.52148438 2814.37988281 1115.52148438 2814.37988281 1093.87011719 2801.87988281 c 0
 1072.21972656 2789.37988281 1072.21972656 2789.37988281 1048.49707031 2796.46875 c 0
 1024.40917969 2802.19042969 1024.40917969 2802.19042969 1011.90917969 2823.84179688 c 0
 1011.50195312 2824.54785156 1011.50195312 2824.54785156 1011.11523438 2825.25585938 c 2
 821 3095 l 1
 616.833007812 2815.14160156 l 2
 616.590820312 2814.70703125 616.590820312 2814.70703125 616.340820312 2814.27441406 c 0
 604.090820312 2793.05664062 604.090820312 2793.05664062 579.935546875 2786.21875 c 0
 555.779296875 2779.37988281 555.779296875 2779.37988281 534.12890625 2791.87988281 c 0
 512.478515625 2804.37988281 512.478515625 2804.37988281 506.755859375 2828.46875 c 0
 499.66796875 2852.19042969 499.66796875 2852.19042969 512.16796875 2873.84179688 c 0
 512.181640625 2873.86523438 512.181640625 2873.86523438 512.194335938 2873.88769531 c 1
 512 2874 l 1
 513.37109375 2875.84667969 l 2
EndSplineSet
Validated: 524291
EndChar

StartChar: E
Encoding: 69 69 41
Width: 629
VWidth: 0
GlyphClass: 2
Flags: HW
LayerCount: 3
Fore
SplineSet
54.796875 120.495117188 m 1025
544.42578125 42.875 m 1
 544.42578125 42.8740234375 l 1
 66.03515625 1.0205078125 l 2
 65.89453125 1.0078125 65.89453125 1.0078125 65.75390625 0.9951171875 c 0
 65.611328125 0.982421875 65.611328125 0.982421875 65.46875 0.970703125 c 2
 65.255859375 0.9521484375 l 1
 65.255859375 0.953125 l 1
 41.1484375 -0.9775390625 41.1484375 -0.9775390625 21.890625 14.724609375 c 0
 2.43359375 30.58984375 2.43359375 30.58984375 0.2548828125 55.494140625 c 0
 -1.923828125 80.3994140625 -1.923828125 80.3994140625 14.525390625 98.9033203125 c 0
 29.892578125 118.31640625 29.892578125 118.31640625 54.796875 120.495117188 c 2
 533.966796875 162.416992188 l 2
 558.872070312 164.595703125 558.872070312 164.595703125 577.375976562 148.146484375 c 0
 596.875976562 131.783203125 596.875976562 131.783203125 598.967773438 107.875 c 0
 601.059570312 83.9658203125 601.059570312 83.9658203125 585.1953125 64.509765625 c 0
 569.330078125 45.052734375 569.330078125 45.052734375 544.923828125 42.9169921875 c 0
 544.674804688 42.8955078125 544.674804688 42.8955078125 544.42578125 42.875 c 1
18.205078125 2083.84667969 m 2
 20.966796875 2088.26953125 20.966796875 2088.26953125 24.24609375 2091.97949219 c 2
 273.833984375 2428 l 1
 276.685546875 2428 l 1
 279.810546875 2432.20019531 279.810546875 2432.20019531 283.833984375 2436 c 0
 301.833984375 2454 301.833984375 2454 325.833984375 2454 c 0
 349.833984375 2454 349.833984375 2454 367.833984375 2436.5 c 0
 372.01171875 2432.43847656 372.01171875 2432.43847656 375.219726562 2428 c 1
 377.833984375 2428 l 1
 614.221679688 2101.14257812 l 2
 617.000976562 2097.84570312 617.000976562 2097.84570312 619.365234375 2094.03125 c 2
 620.833984375 2092 l 1
 620.637695312 2091.88671875 l 1
 632.609375 2070.83496094 632.609375 2070.83496094 626.510742188 2046.71875 c 0
 620.35546875 2022.37988281 620.35546875 2022.37988281 598.704101562 2009.87988281 c 0
 577.053710938 1997.37988281 577.053710938 1997.37988281 553.331054688 2004.46875 c 0
 529.243164062 2010.19042969 529.243164062 2010.19042969 516.743164062 2031.84179688 c 0
 516.3359375 2032.54785156 516.3359375 2032.54785156 515.948242188 2033.25585938 c 2
 325.833984375 2303 l 1
 121.666992188 2023.14160156 l 2
 121.424804688 2022.70703125 121.424804688 2022.70703125 121.174804688 2022.27441406 c 0
 108.924804688 2001.05664062 108.924804688 2001.05664062 84.76953125 1994.21875 c 0
 60.61328125 1987.37988281 60.61328125 1987.37988281 38.962890625 1999.87988281 c 0
 17.3125 2012.37988281 17.3125 2012.37988281 11.58984375 2036.46875 c 0
 4.501953125 2060.19042969 4.501953125 2060.19042969 17.001953125 2081.84179688 c 0
 17.015625 2081.86523438 17.015625 2081.86523438 17.0283203125 2081.88769531 c 1
 16.833984375 2082 l 1
 18.205078125 2083.84667969 l 2
EndSplineSet
Validated: 524289
EndChar

StartChar: F
Encoding: 70 70 42
Width: 620
VWidth: 0
GlyphClass: 2
Flags: HW
LayerCount: 3
Fore
SplineSet
381.80859375 45 m 1025
501.806640625 725 m 1
 501.80859375 725 l 1
 501.80859375 45.5 l 1
 501.80859375 45 l 1
 501.806640625 45 l 1
 501.629882812 20.81640625 501.629882812 20.81640625 484.30859375 3 c 0
 466.80859375 -15 466.80859375 -15 441.80859375 -15 c 0
 416.80859375 -15 416.80859375 -15 399.80859375 3 c 0
 381.80859375 20 381.80859375 20 381.80859375 45 c 2
 381.80859375 725 l 2
 381.80859375 750 381.80859375 750 399.80859375 767 c 0
 417.80859375 785 417.80859375 785 441.80859375 785 c 0
 465.80859375 785 465.80859375 785 483.80859375 767.5 c 0
 501.80859375 750 501.80859375 750 501.80859375 725.5 c 0
 501.80859375 725.25 501.80859375 725.25 501.806640625 725 c 1
9.1806640625 3175.84667969 m 2
 11.94140625 3180.26953125 11.94140625 3180.26953125 15.2216796875 3183.97949219 c 2
 264.80859375 3520 l 1
 267.661132812 3520 l 1
 270.78515625 3524.20019531 270.78515625 3524.20019531 274.80859375 3528 c 0
 292.80859375 3546 292.80859375 3546 316.80859375 3546 c 0
 340.80859375 3546 340.80859375 3546 358.80859375 3528.5 c 0
 362.986328125 3524.43847656 362.986328125 3524.43847656 366.194335938 3520 c 1
 368.80859375 3520 l 1
 605.197265625 3193.14257812 l 2
 607.9765625 3189.84570312 607.9765625 3189.84570312 610.33984375 3186.03125 c 2
 611.80859375 3184 l 1
 611.61328125 3183.88671875 l 1
 623.584960938 3162.83496094 623.584960938 3162.83496094 617.485351562 3138.71875 c 0
 611.330078125 3114.37988281 611.330078125 3114.37988281 589.678710938 3101.87988281 c 0
 568.028320312 3089.37988281 568.028320312 3089.37988281 544.305664062 3096.46875 c 0
 520.217773438 3102.19042969 520.217773438 3102.19042969 507.717773438 3123.84179688 c 0
 507.310546875 3124.54785156 507.310546875 3124.54785156 506.923828125 3125.25585938 c 2
 316.80859375 3395 l 1
 112.641601562 3115.14160156 l 2
 112.399414062 3114.70703125 112.399414062 3114.70703125 112.149414062 3114.27441406 c 0
 99.8994140625 3093.05664062 99.8994140625 3093.05664062 75.744140625 3086.21875 c 0
 51.587890625 3079.37988281 51.587890625 3079.37988281 29.9375 3091.87988281 c 0
 8.287109375 3104.37988281 8.287109375 3104.37988281 2.564453125 3128.46875 c 0
 -4.5234375 3152.19042969 -4.5234375 3152.19042969 7.9765625 3173.84179688 c 0
 7.990234375 3173.86523438 7.990234375 3173.86523438 8.00390625 3173.88769531 c 1
 7.80859375 3174 l 1
 9.1806640625 3175.84667969 l 2
EndSplineSet
Validated: 524289
EndChar

StartChar: G
Encoding: 71 71 43
Width: 714
VWidth: 0
GlyphClass: 2
Flags: HW
LayerCount: 3
Fore
SplineSet
593.80859375 44 m 1025
713.806640625 1724 m 1
 713.80859375 1724 l 1
 713.80859375 44.5 l 1
 713.80859375 44 l 1
 713.806640625 44 l 1
 713.629882812 19.81640625 713.629882812 19.81640625 696.30859375 2 c 0
 678.80859375 -16 678.80859375 -16 653.80859375 -16 c 0
 628.80859375 -16 628.80859375 -16 611.80859375 2 c 0
 593.80859375 19 593.80859375 19 593.80859375 44 c 2
 593.80859375 1724 l 2
 593.80859375 1749 593.80859375 1749 611.80859375 1766 c 0
 629.80859375 1784 629.80859375 1784 653.80859375 1784 c 0
 677.80859375 1784 677.80859375 1784 695.80859375 1766.5 c 0
 713.80859375 1749 713.80859375 1749 713.80859375 1724.5 c 0
 713.80859375 1724.25 713.80859375 1724.25 713.806640625 1724 c 1
9.1806640625 2875.84667969 m 2
 11.94140625 2880.26953125 11.94140625 2880.26953125 15.2216796875 2883.97949219 c 2
 264.80859375 3220 l 1
 267.661132812 3220 l 1
 270.78515625 3224.20019531 270.78515625 3224.20019531 274.80859375 3228 c 0
 292.80859375 3246 292.80859375 3246 316.80859375 3246 c 0
 340.80859375 3246 340.80859375 3246 358.80859375 3228.5 c 0
 362.986328125 3224.43847656 362.986328125 3224.43847656 366.194335938 3220 c 1
 368.80859375 3220 l 1
 605.197265625 2893.14257812 l 2
 607.9765625 2889.84570312 607.9765625 2889.84570312 610.33984375 2886.03125 c 2
 611.80859375 2884 l 1
 611.61328125 2883.88671875 l 1
 623.584960938 2862.83496094 623.584960938 2862.83496094 617.485351562 2838.71875 c 0
 611.330078125 2814.37988281 611.330078125 2814.37988281 589.678710938 2801.87988281 c 0
 568.028320312 2789.37988281 568.028320312 2789.37988281 544.305664062 2796.46875 c 0
 520.217773438 2802.19042969 520.217773438 2802.19042969 507.717773438 2823.84179688 c 0
 507.310546875 2824.54785156 507.310546875 2824.54785156 506.923828125 2825.25585938 c 2
 316.80859375 3095 l 1
 112.641601562 2815.14160156 l 2
 112.399414062 2814.70703125 112.399414062 2814.70703125 112.149414062 2814.27441406 c 0
 99.8994140625 2793.05664062 99.8994140625 2793.05664062 75.744140625 2786.21875 c 0
 51.587890625 2779.37988281 51.587890625 2779.37988281 29.9375 2791.87988281 c 0
 8.287109375 2804.37988281 8.287109375 2804.37988281 2.564453125 2828.46875 c 0
 -4.5234375 2852.19042969 -4.5234375 2852.19042969 7.9765625 2873.84179688 c 0
 7.990234375 2873.86523438 7.990234375 2873.86523438 8.00390625 2873.88769531 c 1
 7.80859375 2874 l 1
 9.1806640625 2875.84667969 l 2
EndSplineSet
Validated: 524289
EndChar

StartChar: H
Encoding: 72 72 44
Width: 620
VWidth: 0
GlyphClass: 3
Flags: HW
LayerCount: 3
Fore
SplineSet
484.80859375 56 m 1025
604.806640625 736 m 1
 604.80859375 736 l 1
 604.80859375 56.5 l 1
 604.80859375 56 l 1
 604.806640625 56 l 1
 604.629882812 31.81640625 604.629882812 31.81640625 587.30859375 14 c 0
 569.80859375 -4 569.80859375 -4 544.80859375 -4 c 0
 519.80859375 -4 519.80859375 -4 502.80859375 14 c 0
 484.80859375 31 484.80859375 31 484.80859375 56 c 2
 484.80859375 736 l 2
 484.80859375 761 484.80859375 761 502.80859375 778 c 0
 520.80859375 796 520.80859375 796 544.80859375 796 c 0
 568.80859375 796 568.80859375 796 586.80859375 778.5 c 0
 604.80859375 761 604.80859375 761 604.80859375 736.5 c 0
 604.80859375 736.25 604.80859375 736.25 604.806640625 736 c 1
9.1806640625 3135.84667969 m 2
 11.94140625 3140.26953125 11.94140625 3140.26953125 15.2216796875 3143.97949219 c 2
 264.80859375 3480 l 1
 267.661132812 3480 l 1
 270.78515625 3484.20019531 270.78515625 3484.20019531 274.80859375 3488 c 0
 292.80859375 3506 292.80859375 3506 316.80859375 3506 c 0
 340.80859375 3506 340.80859375 3506 358.80859375 3488.5 c 0
 362.986328125 3484.43847656 362.986328125 3484.43847656 366.194335938 3480 c 1
 368.80859375 3480 l 1
 605.197265625 3153.14257812 l 2
 607.9765625 3149.84570312 607.9765625 3149.84570312 610.33984375 3146.03125 c 2
 611.80859375 3144 l 1
 611.61328125 3143.88671875 l 1
 623.584960938 3122.83496094 623.584960938 3122.83496094 617.485351562 3098.71875 c 0
 611.330078125 3074.37988281 611.330078125 3074.37988281 589.678710938 3061.87988281 c 0
 568.028320312 3049.37988281 568.028320312 3049.37988281 544.305664062 3056.46875 c 0
 520.217773438 3062.19042969 520.217773438 3062.19042969 507.717773438 3083.84179688 c 0
 507.310546875 3084.54785156 507.310546875 3084.54785156 506.923828125 3085.25585938 c 2
 316.80859375 3355 l 1
 112.641601562 3075.14160156 l 2
 112.399414062 3074.70703125 112.399414062 3074.70703125 112.149414062 3074.27441406 c 0
 99.8994140625 3053.05664062 99.8994140625 3053.05664062 75.744140625 3046.21875 c 0
 51.587890625 3039.37988281 51.587890625 3039.37988281 29.9375 3051.87988281 c 0
 8.287109375 3064.37988281 8.287109375 3064.37988281 2.564453125 3088.46875 c 0
 -4.5234375 3112.19042969 -4.5234375 3112.19042969 7.9765625 3133.84179688 c 0
 7.990234375 3133.86523438 7.990234375 3133.86523438 8.00390625 3133.88769531 c 1
 7.80859375 3134 l 1
 9.1806640625 3135.84667969 l 2
EndSplineSet
Validated: 524289
LCarets2: 1 0
EndChar

StartChar: I
Encoding: 73 73 45
Width: 779
VWidth: 0
GlyphClass: 2
Flags: HW
LayerCount: 3
Fore
SplineSet
778.80859375 564 m 1
 778.80859375 6 l 1
 629.80859375 6 l 1
 629.80859375 564 l 1
 778.80859375 564 l 1
9.1806640625 2876.84667969 m 2
 11.94140625 2881.26953125 11.94140625 2881.26953125 15.2216796875 2884.97949219 c 2
 264.80859375 3221 l 1
 267.661132812 3221 l 1
 270.78515625 3225.20019531 270.78515625 3225.20019531 274.80859375 3229 c 0
 292.80859375 3247 292.80859375 3247 316.80859375 3247 c 0
 340.80859375 3247 340.80859375 3247 358.80859375 3229.5 c 0
 362.986328125 3225.43847656 362.986328125 3225.43847656 366.194335938 3221 c 1
 368.80859375 3221 l 1
 605.197265625 2894.14257812 l 2
 607.9765625 2890.84570312 607.9765625 2890.84570312 610.33984375 2887.03125 c 2
 611.80859375 2885 l 1
 611.61328125 2884.88671875 l 1
 623.584960938 2863.83496094 623.584960938 2863.83496094 617.485351562 2839.71875 c 0
 611.330078125 2815.37988281 611.330078125 2815.37988281 589.678710938 2802.87988281 c 0
 568.028320312 2790.37988281 568.028320312 2790.37988281 544.305664062 2797.46875 c 0
 520.217773438 2803.19042969 520.217773438 2803.19042969 507.717773438 2824.84179688 c 0
 507.310546875 2825.54785156 507.310546875 2825.54785156 506.923828125 2826.25585938 c 2
 316.80859375 3096 l 1
 112.641601562 2816.14160156 l 2
 112.399414062 2815.70703125 112.399414062 2815.70703125 112.149414062 2815.27441406 c 0
 99.8994140625 2794.05664062 99.8994140625 2794.05664062 75.744140625 2787.21875 c 0
 51.587890625 2780.37988281 51.587890625 2780.37988281 29.9375 2792.87988281 c 0
 8.287109375 2805.37988281 8.287109375 2805.37988281 2.564453125 2829.46875 c 0
 -4.5234375 2853.19042969 -4.5234375 2853.19042969 7.9765625 2874.84179688 c 0
 7.990234375 2874.86523438 7.990234375 2874.86523438 8.00390625 2874.88769531 c 1
 7.80859375 2875 l 1
 9.1806640625 2876.84667969 l 2
EndSplineSet
Validated: 524289
EndChar

StartChar: J
Encoding: 74 74 46
Width: 1066
VWidth: 0
GlyphClass: 2
Flags: HW
LayerCount: 3
Fore
SplineSet
616.80859375 250 m 1
 777.80859375 250 l 1
 777.80859375 70 l 1
 937.80859375 251 l 1
 1065.80859375 154 l 1
 777.80859375 -110 l 1
 616.80859375 -264 l 1
 616.80859375 250 l 1
9.1806640625 2871.84667969 m 2
 11.94140625 2876.26953125 11.94140625 2876.26953125 15.2216796875 2879.97949219 c 2
 264.80859375 3216 l 1
 267.661132812 3216 l 1
 270.78515625 3220.20019531 270.78515625 3220.20019531 274.80859375 3224 c 0
 292.80859375 3242 292.80859375 3242 316.80859375 3242 c 0
 340.80859375 3242 340.80859375 3242 358.80859375 3224.5 c 0
 362.986328125 3220.43847656 362.986328125 3220.43847656 366.194335938 3216 c 1
 368.80859375 3216 l 1
 605.197265625 2889.14257812 l 2
 607.9765625 2885.84570312 607.9765625 2885.84570312 610.33984375 2882.03125 c 2
 611.80859375 2880 l 1
 611.61328125 2879.88671875 l 1
 623.584960938 2858.83496094 623.584960938 2858.83496094 617.485351562 2834.71875 c 0
 611.330078125 2810.37988281 611.330078125 2810.37988281 589.678710938 2797.87988281 c 0
 568.028320312 2785.37988281 568.028320312 2785.37988281 544.305664062 2792.46875 c 0
 520.217773438 2798.19042969 520.217773438 2798.19042969 507.717773438 2819.84179688 c 0
 507.310546875 2820.54785156 507.310546875 2820.54785156 506.923828125 2821.25585938 c 2
 316.80859375 3091 l 1
 112.641601562 2811.14160156 l 2
 112.399414062 2810.70703125 112.399414062 2810.70703125 112.149414062 2810.27441406 c 0
 99.8994140625 2789.05664062 99.8994140625 2789.05664062 75.744140625 2782.21875 c 0
 51.587890625 2775.37988281 51.587890625 2775.37988281 29.9375 2787.87988281 c 0
 8.287109375 2800.37988281 8.287109375 2800.37988281 2.564453125 2824.46875 c 0
 -4.5234375 2848.19042969 -4.5234375 2848.19042969 7.9765625 2869.84179688 c 0
 7.990234375 2869.86523438 7.990234375 2869.86523438 8.00390625 2869.88769531 c 1
 7.80859375 2870 l 1
 9.1806640625 2871.84667969 l 2
EndSplineSet
Validated: 524289
EndChar

StartChar: K
Encoding: 75 75 47
Width: 684
VWidth: 0
GlyphClass: 2
Flags: HW
LayerCount: 3
Fore
SplineSet
564.150390625 55 m 1025
684.1484375 735 m 1
 684.150390625 735 l 1
 684.150390625 55.5 l 1
 684.150390625 55 l 1
 684.1484375 55 l 1
 683.971679688 30.81640625 683.971679688 30.81640625 666.650390625 13 c 0
 649.150390625 -5 649.150390625 -5 624.150390625 -5 c 0
 599.150390625 -5 599.150390625 -5 582.150390625 13 c 0
 564.150390625 30 564.150390625 30 564.150390625 55 c 2
 564.150390625 735 l 2
 564.150390625 760 564.150390625 760 582.150390625 777 c 0
 600.150390625 795 600.150390625 795 624.150390625 795 c 0
 648.150390625 795 648.150390625 795 666.150390625 777.5 c 0
 684.150390625 760 684.150390625 760 684.150390625 735.5 c 0
 684.150390625 735.25 684.150390625 735.25 684.1484375 735 c 1
9.1806640625 2875.84667969 m 2
 11.94140625 2880.26953125 11.94140625 2880.26953125 15.2216796875 2883.97949219 c 2
 264.80859375 3220 l 1
 267.661132812 3220 l 1
 270.78515625 3224.20019531 270.78515625 3224.20019531 274.80859375 3228 c 0
 292.80859375 3246 292.80859375 3246 316.80859375 3246 c 0
 340.80859375 3246 340.80859375 3246 358.80859375 3228.5 c 0
 362.986328125 3224.43847656 362.986328125 3224.43847656 366.194335938 3220 c 1
 368.80859375 3220 l 1
 605.197265625 2893.14257812 l 2
 607.9765625 2889.84570312 607.9765625 2889.84570312 610.33984375 2886.03125 c 2
 611.80859375 2884 l 1
 611.61328125 2883.88671875 l 1
 623.584960938 2862.83496094 623.584960938 2862.83496094 617.485351562 2838.71875 c 0
 611.330078125 2814.37988281 611.330078125 2814.37988281 589.678710938 2801.87988281 c 0
 568.028320312 2789.37988281 568.028320312 2789.37988281 544.305664062 2796.46875 c 0
 520.217773438 2802.19042969 520.217773438 2802.19042969 507.717773438 2823.84179688 c 0
 507.310546875 2824.54785156 507.310546875 2824.54785156 506.923828125 2825.25585938 c 2
 316.80859375 3095 l 1
 112.641601562 2815.14160156 l 2
 112.399414062 2814.70703125 112.399414062 2814.70703125 112.149414062 2814.27441406 c 0
 99.8994140625 2793.05664062 99.8994140625 2793.05664062 75.744140625 2786.21875 c 0
 51.587890625 2779.37988281 51.587890625 2779.37988281 29.9375 2791.87988281 c 0
 8.287109375 2804.37988281 8.287109375 2804.37988281 2.564453125 2828.46875 c 0
 -4.5234375 2852.19042969 -4.5234375 2852.19042969 7.9765625 2873.84179688 c 0
 7.990234375 2873.86523438 7.990234375 2873.86523438 8.00390625 2873.88769531 c 1
 7.80859375 2874 l 1
 9.1806640625 2875.84667969 l 2
EndSplineSet
Validated: 524289
EndChar

StartChar: L
Encoding: 76 76 48
Width: 914
GlyphClass: 2
Flags: HW
LayerCount: 3
Fore
SplineSet
746.80859375 373 m 0
 806.80859375 373 806.80859375 373 856.80859375 326 c 0
 913.80859375 274 913.80859375 274 913.80859375 190 c 0
 913.80859375 148 913.80859375 148 896.80859375 110 c 0
 879.80859375 72 879.80859375 72 857.80859375 54 c 0
 797.80859375 7 797.80859375 7 746.80859375 7 c 0
 691.80859375 7 691.80859375 7 635.80859375 54 c 0
 611.80859375 74 611.80859375 74 596.30859375 110.5 c 0
 580.80859375 147 580.80859375 147 580.80859375 190 c 0
 580.80859375 276 580.80859375 276 635.80859375 326 c 0
 687.80859375 373 687.80859375 373 746.80859375 373 c 0
9.1806640625 2875.84667969 m 2
 11.94140625 2880.26953125 11.94140625 2880.26953125 15.2216796875 2883.97949219 c 2
 264.80859375 3220 l 1
 267.661132812 3220 l 1
 270.78515625 3224.20019531 270.78515625 3224.20019531 274.80859375 3228 c 0
 292.80859375 3246 292.80859375 3246 316.80859375 3246 c 0
 340.80859375 3246 340.80859375 3246 358.80859375 3228.5 c 0
 362.986328125 3224.43847656 362.986328125 3224.43847656 366.194335938 3220 c 1
 368.80859375 3220 l 1
 605.197265625 2893.14257812 l 2
 607.9765625 2889.84570312 607.9765625 2889.84570312 610.33984375 2886.03125 c 2
 611.80859375 2884 l 1
 611.61328125 2883.88671875 l 1
 623.584960938 2862.83496094 623.584960938 2862.83496094 617.485351562 2838.71875 c 0
 611.330078125 2814.37988281 611.330078125 2814.37988281 589.678710938 2801.87988281 c 0
 568.028320312 2789.37988281 568.028320312 2789.37988281 544.305664062 2796.46875 c 0
 520.217773438 2802.19042969 520.217773438 2802.19042969 507.717773438 2823.84179688 c 0
 507.310546875 2824.54785156 507.310546875 2824.54785156 506.923828125 2825.25585938 c 2
 316.80859375 3095 l 1
 112.641601562 2815.14160156 l 2
 112.399414062 2814.70703125 112.399414062 2814.70703125 112.149414062 2814.27441406 c 0
 99.8994140625 2793.05664062 99.8994140625 2793.05664062 75.744140625 2786.21875 c 0
 51.587890625 2779.37988281 51.587890625 2779.37988281 29.9375 2791.87988281 c 0
 8.287109375 2804.37988281 8.287109375 2804.37988281 2.564453125 2828.46875 c 0
 -4.5234375 2852.19042969 -4.5234375 2852.19042969 7.9765625 2873.84179688 c 0
 7.990234375 2873.86523438 7.990234375 2873.86523438 8.00390625 2873.88769531 c 1
 7.80859375 2874 l 1
 9.1806640625 2875.84667969 l 2
EndSplineSet
Validated: 524289
EndChar

StartChar: M
Encoding: 77 77 49
Width: 758
VWidth: 0
GlyphClass: 2
Flags: HW
LayerCount: 3
Fore
SplineSet
637.583007812 60 m 1025
757.581054688 1740 m 1
 757.583007812 1740 l 1
 757.583007812 65.8974609375 l 2
 757.80859375 63.2431640625 757.80859375 63.2431640625 757.80859375 60.5 c 0
 757.80859375 36 757.80859375 36 740.30859375 18 c 0
 722.80859375 0 722.80859375 0 697.80859375 0 c 0
 697.752929688 0 697.752929688 0 697.698242188 0 c 0
 697.640625 0 697.640625 0 697.583007812 0 c 0
 672.583007812 0 672.583007812 0 655.583007812 18 c 0
 637.583007812 35 637.583007812 35 637.583007812 60 c 2
 637.583007812 1740 l 2
 637.583007812 1765 637.583007812 1765 655.583007812 1782 c 0
 673.583007812 1800 673.583007812 1800 697.583007812 1800 c 0
 721.583007812 1800 721.583007812 1800 739.583007812 1782.5 c 0
 757.583007812 1765 757.583007812 1765 757.583007812 1740.5 c 0
 757.583007812 1740.25 757.583007812 1740.25 757.581054688 1740 c 1
9.1806640625 2871.84667969 m 2
 11.94140625 2876.26953125 11.94140625 2876.26953125 15.2216796875 2879.97949219 c 2
 264.80859375 3216 l 1
 267.661132812 3216 l 1
 270.78515625 3220.20019531 270.78515625 3220.20019531 274.80859375 3224 c 0
 292.80859375 3242 292.80859375 3242 316.80859375 3242 c 0
 340.80859375 3242 340.80859375 3242 358.80859375 3224.5 c 0
 362.986328125 3220.43847656 362.986328125 3220.43847656 366.194335938 3216 c 1
 368.80859375 3216 l 1
 605.197265625 2889.14257812 l 2
 607.9765625 2885.84570312 607.9765625 2885.84570312 610.33984375 2882.03125 c 2
 611.80859375 2880 l 1
 611.61328125 2879.88671875 l 1
 623.584960938 2858.83496094 623.584960938 2858.83496094 617.485351562 2834.71875 c 0
 611.330078125 2810.37988281 611.330078125 2810.37988281 589.678710938 2797.87988281 c 0
 568.028320312 2785.37988281 568.028320312 2785.37988281 544.305664062 2792.46875 c 0
 520.217773438 2798.19042969 520.217773438 2798.19042969 507.717773438 2819.84179688 c 0
 507.310546875 2820.54785156 507.310546875 2820.54785156 506.923828125 2821.25585938 c 2
 316.80859375 3091 l 1
 112.641601562 2811.14160156 l 2
 112.399414062 2810.70703125 112.399414062 2810.70703125 112.149414062 2810.27441406 c 0
 99.8994140625 2789.05664062 99.8994140625 2789.05664062 75.744140625 2782.21875 c 0
 51.587890625 2775.37988281 51.587890625 2775.37988281 29.9375 2787.87988281 c 0
 8.287109375 2800.37988281 8.287109375 2800.37988281 2.564453125 2824.46875 c 0
 -4.5234375 2848.19042969 -4.5234375 2848.19042969 7.9765625 2869.84179688 c 0
 7.990234375 2869.86523438 7.990234375 2869.86523438 8.00390625 2869.88769531 c 1
 7.80859375 2870 l 1
 9.1806640625 2871.84667969 l 2
EndSplineSet
Validated: 524289
EndChar

StartChar: N
Encoding: 78 78 50
Width: 620
VWidth: 0
GlyphClass: 2
Flags: HW
LayerCount: 3
Fore
SplineSet
9.1806640625 2871.84667969 m 2
 11.94140625 2876.26953125 11.94140625 2876.26953125 15.2216796875 2879.97949219 c 2
 264.80859375 3216 l 1
 267.661132812 3216 l 1
 270.78515625 3220.20019531 270.78515625 3220.20019531 274.80859375 3224 c 0
 292.80859375 3242 292.80859375 3242 316.80859375 3242 c 0
 340.80859375 3242 340.80859375 3242 358.80859375 3224.5 c 0
 362.986328125 3220.43847656 362.986328125 3220.43847656 366.194335938 3216 c 1
 368.80859375 3216 l 1
 605.197265625 2889.14257812 l 2
 607.9765625 2885.84570312 607.9765625 2885.84570312 610.33984375 2882.03125 c 2
 611.80859375 2880 l 1
 611.61328125 2879.88671875 l 1
 623.584960938 2858.83496094 623.584960938 2858.83496094 617.485351562 2834.71875 c 0
 611.330078125 2810.37988281 611.330078125 2810.37988281 589.678710938 2797.87988281 c 0
 568.028320312 2785.37988281 568.028320312 2785.37988281 544.305664062 2792.46875 c 0
 520.217773438 2798.19042969 520.217773438 2798.19042969 507.717773438 2819.84179688 c 0
 507.310546875 2820.54785156 507.310546875 2820.54785156 506.923828125 2821.25585938 c 2
 316.80859375 3091 l 1
 112.641601562 2811.14160156 l 2
 112.399414062 2810.70703125 112.399414062 2810.70703125 112.149414062 2810.27441406 c 0
 99.8994140625 2789.05664062 99.8994140625 2789.05664062 75.744140625 2782.21875 c 0
 51.587890625 2775.37988281 51.587890625 2775.37988281 29.9375 2787.87988281 c 0
 8.287109375 2800.37988281 8.287109375 2800.37988281 2.564453125 2824.46875 c 0
 -4.5234375 2848.19042969 -4.5234375 2848.19042969 7.9765625 2869.84179688 c 0
 7.990234375 2869.86523438 7.990234375 2869.86523438 8.00390625 2869.88769531 c 1
 7.80859375 2870 l 1
 9.1806640625 2871.84667969 l 2
EndSplineSet
Validated: 524289
EndChar

StartChar: P
Encoding: 80 80 52
Width: 854
VWidth: 3070
GlyphClass: 2
Flags: HW
LayerCount: 3
Fore
SplineSet
373.80859375 52 m 1025
494.09765625 889 m 1
 734.10546875 1130.01171875 734.10546875 1130.01171875 734.10546875 1274.73925781 c 0,0,0
 734.10546875 1448 734.10546875 1448 608.09765625 1448 c 0
 494.09765625 1448 494.09765625 1448 494.09765625 1216 c 0
 494.09765625 1184 494.09765625 1184 494.09765625 889 c 1
374.09765625 744.51953125 m 2
 374.09765625 1223 l 2
 375.09765625 1571 375.09765625 1571 608.59765625 1571 c 0
 854.09765625 1571 854.09765625 1571 854.09765625 1272 c 0
 854.09765625 1081.45214844 854.09765625 1081.45214844 493.80859375 720.711914062 c 1
 493.80859375 52.5 l 1
 493.80859375 52 l 1
 493.806640625 52 l 1
 493.629882812 27.81640625 493.629882812 27.81640625 476.30859375 10 c 0
 458.80859375 -8 458.80859375 -8 433.80859375 -8 c 0
 408.80859375 -8 408.80859375 -8 391.80859375 10 c 0
 373.80859375 27 373.80859375 27 373.80859375 52 c 2
 373.80859375 732 l 2
 373.80859375 735.16796875 373.80859375 735.16796875 374.09765625 738.208007812 c 2
 374.09765625 743.48046875 l 2
 374.095703125 743.739257812 374.095703125 743.739257812 374.095703125 744 c 0
 374.095703125 744.260742188 374.095703125 744.260742188 374.09765625 744.51953125 c 2
9.1806640625 3099.84667969 m 2
 11.94140625 3104.26953125 11.94140625 3104.26953125 15.2216796875 3107.97949219 c 2
 264.80859375 3444 l 1
 267.661132812 3444 l 1
 270.78515625 3448.20019531 270.78515625 3448.20019531 274.80859375 3452 c 0
 292.80859375 3470 292.80859375 3470 316.80859375 3470 c 0
 340.80859375 3470 340.80859375 3470 358.80859375 3452.5 c 0
 362.986328125 3448.43847656 362.986328125 3448.43847656 366.194335938 3444 c 1
 368.80859375 3444 l 1
 605.197265625 3117.14257812 l 2
 607.9765625 3113.84570312 607.9765625 3113.84570312 610.33984375 3110.03125 c 2
 611.80859375 3108 l 1
 611.61328125 3107.88671875 l 1
 623.584960938 3086.83496094 623.584960938 3086.83496094 617.485351562 3062.71875 c 0
 611.330078125 3038.37988281 611.330078125 3038.37988281 589.678710938 3025.87988281 c 0
 568.028320312 3013.37988281 568.028320312 3013.37988281 544.305664062 3020.46875 c 0
 520.217773438 3026.19042969 520.217773438 3026.19042969 507.717773438 3047.84179688 c 0
 507.310546875 3048.54785156 507.310546875 3048.54785156 506.923828125 3049.25585938 c 2
 316.80859375 3319 l 1
 112.641601562 3039.14160156 l 2
 112.399414062 3038.70703125 112.399414062 3038.70703125 112.149414062 3038.27441406 c 0
 99.8994140625 3017.05664062 99.8994140625 3017.05664062 75.744140625 3010.21875 c 0
 51.587890625 3003.37988281 51.587890625 3003.37988281 29.9375 3015.87988281 c 0
 8.287109375 3028.37988281 8.287109375 3028.37988281 2.564453125 3052.46875 c 0
 -4.5234375 3076.19042969 -4.5234375 3076.19042969 7.9765625 3097.84179688 c 0
 7.990234375 3097.86523438 7.990234375 3097.86523438 8.00390625 3097.88769531 c 1
 7.80859375 3098 l 1
 9.1806640625 3099.84667969 l 2
EndSplineSet
Validated: 524289
EndChar

StartChar: Q
Encoding: 81 81 53
Width: 664
VWidth: 0
GlyphClass: 2
Flags: HW
LayerCount: 3
Fore
SplineSet
544.150390625 61 m 1025
664.1484375 741 m 1
 664.150390625 741 l 1
 664.150390625 61.5 l 1
 664.150390625 61 l 1
 664.1484375 61 l 1
 663.971679688 36.81640625 663.971679688 36.81640625 646.650390625 19 c 0
 629.150390625 1 629.150390625 1 604.150390625 1 c 0
 579.150390625 1 579.150390625 1 562.150390625 19 c 0
 544.150390625 36 544.150390625 36 544.150390625 61 c 2
 544.150390625 741 l 2
 544.150390625 766 544.150390625 766 562.150390625 783 c 0
 580.150390625 801 580.150390625 801 604.150390625 801 c 0
 628.150390625 801 628.150390625 801 646.150390625 783.5 c 0
 664.150390625 766 664.150390625 766 664.150390625 741.5 c 0
 664.150390625 741.25 664.150390625 741.25 664.1484375 741 c 1
9.1806640625 2871.84667969 m 2
 11.94140625 2876.26953125 11.94140625 2876.26953125 15.2216796875 2879.97949219 c 2
 264.80859375 3216 l 1
 267.661132812 3216 l 1
 270.78515625 3220.20019531 270.78515625 3220.20019531 274.80859375 3224 c 0
 292.80859375 3242 292.80859375 3242 316.80859375 3242 c 0
 340.80859375 3242 340.80859375 3242 358.80859375 3224.5 c 0
 362.986328125 3220.43847656 362.986328125 3220.43847656 366.194335938 3216 c 1
 368.80859375 3216 l 1
 605.197265625 2889.14257812 l 2
 607.9765625 2885.84570312 607.9765625 2885.84570312 610.33984375 2882.03125 c 2
 611.80859375 2880 l 1
 611.61328125 2879.88671875 l 1
 623.584960938 2858.83496094 623.584960938 2858.83496094 617.485351562 2834.71875 c 0
 611.330078125 2810.37988281 611.330078125 2810.37988281 589.678710938 2797.87988281 c 0
 568.028320312 2785.37988281 568.028320312 2785.37988281 544.305664062 2792.46875 c 0
 520.217773438 2798.19042969 520.217773438 2798.19042969 507.717773438 2819.84179688 c 0
 507.310546875 2820.54785156 507.310546875 2820.54785156 506.923828125 2821.25585938 c 2
 316.80859375 3091 l 1
 112.641601562 2811.14160156 l 2
 112.399414062 2810.70703125 112.399414062 2810.70703125 112.149414062 2810.27441406 c 0
 99.8994140625 2789.05664062 99.8994140625 2789.05664062 75.744140625 2782.21875 c 0
 51.587890625 2775.37988281 51.587890625 2775.37988281 29.9375 2787.87988281 c 0
 8.287109375 2800.37988281 8.287109375 2800.37988281 2.564453125 2824.46875 c 0
 -4.5234375 2848.19042969 -4.5234375 2848.19042969 7.9765625 2869.84179688 c 0
 7.990234375 2869.86523438 7.990234375 2869.86523438 8.00390625 2869.88769531 c 1
 7.80859375 2870 l 1
 9.1806640625 2871.84667969 l 2
EndSplineSet
Validated: 524289
EndChar

StartChar: R
Encoding: 82 82 54
Width: 1128
VWidth: 0
GlyphClass: 2
Flags: HW
LayerCount: 3
Fore
SplineSet
855.80859375 305 m 1
 1127.80859375 -82 l 1
 945.80859375 -82 l 1
 665.80859375 305 l 1
 855.80859375 305 l 1
9.1806640625 2875.84667969 m 2
 11.94140625 2880.26953125 11.94140625 2880.26953125 15.2216796875 2883.97949219 c 2
 264.80859375 3220 l 1
 267.661132812 3220 l 1
 270.78515625 3224.20019531 270.78515625 3224.20019531 274.80859375 3228 c 0
 292.80859375 3246 292.80859375 3246 316.80859375 3246 c 0
 340.80859375 3246 340.80859375 3246 358.80859375 3228.5 c 0
 362.986328125 3224.43847656 362.986328125 3224.43847656 366.194335938 3220 c 1
 368.80859375 3220 l 1
 605.197265625 2893.14257812 l 2
 607.9765625 2889.84570312 607.9765625 2889.84570312 610.33984375 2886.03125 c 2
 611.80859375 2884 l 1
 611.61328125 2883.88671875 l 1
 623.584960938 2862.83496094 623.584960938 2862.83496094 617.485351562 2838.71875 c 0
 611.330078125 2814.37988281 611.330078125 2814.37988281 589.678710938 2801.87988281 c 0
 568.028320312 2789.37988281 568.028320312 2789.37988281 544.305664062 2796.46875 c 0
 520.217773438 2802.19042969 520.217773438 2802.19042969 507.717773438 2823.84179688 c 0
 507.310546875 2824.54785156 507.310546875 2824.54785156 506.923828125 2825.25585938 c 2
 316.80859375 3095 l 1
 112.641601562 2815.14160156 l 2
 112.399414062 2814.70703125 112.399414062 2814.70703125 112.149414062 2814.27441406 c 0
 99.8994140625 2793.05664062 99.8994140625 2793.05664062 75.744140625 2786.21875 c 0
 51.587890625 2779.37988281 51.587890625 2779.37988281 29.9375 2791.87988281 c 0
 8.287109375 2804.37988281 8.287109375 2804.37988281 2.564453125 2828.46875 c 0
 -4.5234375 2852.19042969 -4.5234375 2852.19042969 7.9765625 2873.84179688 c 0
 7.990234375 2873.86523438 7.990234375 2873.86523438 8.00390625 2873.88769531 c 1
 7.80859375 2874 l 1
 9.1806640625 2875.84667969 l 2
EndSplineSet
Validated: 524289
EndChar

StartChar: S
Encoding: 83 83 55
Width: 801
GlyphClass: 2
Flags: HW
LayerCount: 3
Fore
SplineSet
388 117 m 0
 446 117 446 117 488.5 137 c 0
 531 157 531 157 553.5 192 c 0
 576 227 576 227 586 265.5 c 0
 596 304 596 304 596 348 c 0
 596 397 596 397 585.5 438 c 0
 575 479 575 479 552.5 514.5 c 0
 530 550 530 550 488 570.5 c 0
 446 591 446 591 388 591 c 2
 387 591 l 2
 318 591 318 591 269 551.5 c 0
 220 512 220 512 200 459.5 c 0
 180 407 180 407 180 351 c 0
 180 253 180 253 232 185 c 0
 284 117 284 117 388 117 c 0
383 774 m 0
 461 774 461 774 521.5 746.5 c 0
 582 719 582 719 640 666 c 0
 698 612 698 612 734 530.5 c 0
 770 449 770 449 770 351 c 0
 770 253 770 253 731 165 c 0
 692 77 692 77 640 36 c 0
 573 -17 573 -17 516 -44.5 c 0
 459 -72 459 -72 383 -72 c 0
 306 -72 306 -72 247.5 -44.5 c 0
 189 -17 189 -17 127 36 c 0
 71 82 71 82 35.5 166.5 c 0
 0 251 0 251 0 351 c 0
 0 552 0 552 127 666 c 0
 185 718 185 718 245 746 c 0
 305 774 305 774 383 774 c 0
191.014648438 2871.84667969 m 2
 193.776367188 2876.26953125 193.776367188 2876.26953125 197.055664062 2879.97949219 c 2
 446.643554688 3216 l 1
 449.49609375 3216 l 1
 452.620117188 3220.20019531 452.620117188 3220.20019531 456.643554688 3224 c 0
 474.643554688 3242 474.643554688 3242 498.643554688 3242 c 0
 522.643554688 3242 522.643554688 3242 540.643554688 3224.5 c 0
 544.821289062 3220.43847656 544.821289062 3220.43847656 548.029296875 3216 c 1
 550.643554688 3216 l 1
 787.03125 2889.14257812 l 2
 789.810546875 2885.84570312 789.810546875 2885.84570312 792.174804688 2882.03125 c 2
 793.643554688 2880 l 1
 793.447265625 2879.88671875 l 1
 805.418945312 2858.83496094 805.418945312 2858.83496094 799.3203125 2834.71875 c 0
 793.165039062 2810.37988281 793.165039062 2810.37988281 771.513671875 2797.87988281 c 0
 749.86328125 2785.37988281 749.86328125 2785.37988281 726.140625 2792.46875 c 0
 702.052734375 2798.19042969 702.052734375 2798.19042969 689.552734375 2819.84179688 c 0
 689.145507812 2820.54785156 689.145507812 2820.54785156 688.758789062 2821.25585938 c 2
 498.643554688 3091 l 1
 294.4765625 2811.14160156 l 2
 294.234375 2810.70703125 294.234375 2810.70703125 293.984375 2810.27441406 c 0
 281.734375 2789.05664062 281.734375 2789.05664062 257.579101562 2782.21875 c 0
 233.422851562 2775.37988281 233.422851562 2775.37988281 211.772460938 2787.87988281 c 0
 190.122070312 2800.37988281 190.122070312 2800.37988281 184.399414062 2824.46875 c 0
 177.311523438 2848.19042969 177.311523438 2848.19042969 189.811523438 2869.84179688 c 0
 189.825195312 2869.86523438 189.825195312 2869.86523438 189.837890625 2869.88769531 c 1
 189.643554688 2870 l 1
 191.014648438 2871.84667969 l 2
EndSplineSet
Validated: 524289
EndChar

StartChar: T
Encoding: 84 84 56
Width: 620
VWidth: 0
GlyphClass: 2
Flags: HW
LayerCount: 3
Fore
SplineSet
9.1806640625 3068.84667969 m 2
 11.94140625 3073.26953125 11.94140625 3073.26953125 15.2216796875 3076.97949219 c 2
 264.80859375 3413 l 1
 267.661132812 3413 l 1
 270.78515625 3417.20019531 270.78515625 3417.20019531 274.80859375 3421 c 0
 292.80859375 3439 292.80859375 3439 316.80859375 3439 c 0
 340.80859375 3439 340.80859375 3439 358.80859375 3421.5 c 0
 362.986328125 3417.43847656 362.986328125 3417.43847656 366.194335938 3413 c 1
 368.80859375 3413 l 1
 605.197265625 3086.14257812 l 2
 607.9765625 3082.84570312 607.9765625 3082.84570312 610.33984375 3079.03125 c 2
 611.80859375 3077 l 1
 611.61328125 3076.88671875 l 1
 623.584960938 3055.83496094 623.584960938 3055.83496094 617.485351562 3031.71875 c 0
 611.330078125 3007.37988281 611.330078125 3007.37988281 589.678710938 2994.87988281 c 0
 568.028320312 2982.37988281 568.028320312 2982.37988281 544.305664062 2989.46875 c 0
 520.217773438 2995.19042969 520.217773438 2995.19042969 507.717773438 3016.84179688 c 0
 507.310546875 3017.54785156 507.310546875 3017.54785156 506.923828125 3018.25585938 c 2
 316.80859375 3288 l 1
 112.641601562 3008.14160156 l 2
 112.399414062 3007.70703125 112.399414062 3007.70703125 112.149414062 3007.27441406 c 0
 99.8994140625 2986.05664062 99.8994140625 2986.05664062 75.744140625 2979.21875 c 0
 51.587890625 2972.37988281 51.587890625 2972.37988281 29.9375 2984.87988281 c 0
 8.287109375 2997.37988281 8.287109375 2997.37988281 2.564453125 3021.46875 c 0
 -4.5234375 3045.19042969 -4.5234375 3045.19042969 7.9765625 3066.84179688 c 0
 7.990234375 3066.86523438 7.990234375 3066.86523438 8.00390625 3066.88769531 c 1
 7.80859375 3067 l 1
 9.1806640625 3068.84667969 l 2
EndSplineSet
Validated: 524289
EndChar

StartChar: U
Encoding: 85 85 57
Width: 731
VWidth: 0
GlyphClass: 2
Flags: HW
LayerCount: 3
Fore
SplineSet
398.80859375 -44 m 0
 609.80859375 -44 609.80859375 -44 609.80859375 780 c 1
 610.80859375 780 l 1
 610.80859375 805 610.80859375 805 628.80859375 822 c 0
 646.80859375 840 646.80859375 840 670.80859375 840 c 0
 694.80859375 840 694.80859375 840 712.80859375 822.5 c 0
 730.80859375 805 730.80859375 805 730.80859375 780.5 c 0
 730.80859375 780.25 730.80859375 780.25 730.806640625 780 c 1
 730.80859375 780 l 1
 729.80859375 -174 729.80859375 -174 395.764648438 -174 c 0
 181.80859375 -174 181.80859375 -174 181.80859375 48 c 0
 181.80859375 54 181.80859375 54 181.80859375 60 c 0
 181.80859375 85 181.80859375 85 199.80859375 102 c 0
 217.80859375 120 217.80859375 120 241.80859375 120 c 0
 265.80859375 120 265.80859375 120 283.80859375 102.5 c 0
 301.80859375 85 301.80859375 85 301.80859375 60.5 c 0
 301.80859375 60.25 301.80859375 60.25 301.806640625 60 c 1
 301.80859375 60 l 1
 301.80859375 54 301.80859375 54 301.80859375 49 c 0
 301.80859375 -44 301.80859375 -44 398.80859375 -44 c 0
9.1806640625 2083.84667969 m 2
 11.94140625 2088.26953125 11.94140625 2088.26953125 15.2216796875 2091.97949219 c 2
 264.80859375 2428 l 1
 267.661132812 2428 l 1
 270.78515625 2432.20019531 270.78515625 2432.20019531 274.80859375 2436 c 0
 292.80859375 2454 292.80859375 2454 316.80859375 2454 c 0
 340.80859375 2454 340.80859375 2454 358.80859375 2436.5 c 0
 362.986328125 2432.43847656 362.986328125 2432.43847656 366.194335938 2428 c 1
 368.80859375 2428 l 1
 605.197265625 2101.14257812 l 2
 607.9765625 2097.84570312 607.9765625 2097.84570312 610.33984375 2094.03125 c 2
 611.80859375 2092 l 1
 611.61328125 2091.88671875 l 1
 623.584960938 2070.83496094 623.584960938 2070.83496094 617.485351562 2046.71875 c 0
 611.330078125 2022.37988281 611.330078125 2022.37988281 589.678710938 2009.87988281 c 0
 568.028320312 1997.37988281 568.028320312 1997.37988281 544.305664062 2004.46875 c 0
 520.217773438 2010.19042969 520.217773438 2010.19042969 507.717773438 2031.84179688 c 0
 507.310546875 2032.54785156 507.310546875 2032.54785156 506.923828125 2033.25585938 c 2
 316.80859375 2303 l 1
 112.641601562 2023.14160156 l 2
 112.399414062 2022.70703125 112.399414062 2022.70703125 112.149414062 2022.27441406 c 0
 99.8994140625 2001.05664062 99.8994140625 2001.05664062 75.744140625 1994.21875 c 0
 51.587890625 1987.37988281 51.587890625 1987.37988281 29.9375 1999.87988281 c 0
 8.287109375 2012.37988281 8.287109375 2012.37988281 2.564453125 2036.46875 c 0
 -4.5234375 2060.19042969 -4.5234375 2060.19042969 7.9765625 2081.84179688 c 0
 7.990234375 2081.86523438 7.990234375 2081.86523438 8.00390625 2081.88769531 c 1
 7.80859375 2082 l 1
 9.1806640625 2083.84667969 l 2
EndSplineSet
Validated: 524289
EndChar

StartChar: V
Encoding: 86 86 58
Width: 620
VWidth: 0
GlyphClass: 2
Flags: HW
LayerCount: 3
Fore
SplineSet
416.80859375 15 m 1025
9.1806640625 2870.84667969 m 2
 11.94140625 2875.26953125 11.94140625 2875.26953125 15.2216796875 2878.97949219 c 2
 264.80859375 3215 l 1
 267.661132812 3215 l 1
 270.78515625 3219.20019531 270.78515625 3219.20019531 274.80859375 3223 c 0
 292.80859375 3241 292.80859375 3241 316.80859375 3241 c 0
 340.80859375 3241 340.80859375 3241 358.80859375 3223.5 c 0
 362.986328125 3219.43847656 362.986328125 3219.43847656 366.194335938 3215 c 1
 368.80859375 3215 l 1
 605.197265625 2888.14257812 l 2
 607.9765625 2884.84570312 607.9765625 2884.84570312 610.33984375 2881.03125 c 2
 611.80859375 2879 l 1
 611.61328125 2878.88671875 l 1
 623.584960938 2857.83496094 623.584960938 2857.83496094 617.485351562 2833.71875 c 0
 611.330078125 2809.37988281 611.330078125 2809.37988281 589.678710938 2796.87988281 c 0
 568.028320312 2784.37988281 568.028320312 2784.37988281 544.305664062 2791.46875 c 0
 520.217773438 2797.19042969 520.217773438 2797.19042969 507.717773438 2818.84179688 c 0
 507.310546875 2819.54785156 507.310546875 2819.54785156 506.923828125 2820.25585938 c 2
 316.80859375 3090 l 1
 112.641601562 2810.14160156 l 2
 112.399414062 2809.70703125 112.399414062 2809.70703125 112.149414062 2809.27441406 c 0
 99.8994140625 2788.05664062 99.8994140625 2788.05664062 75.744140625 2781.21875 c 0
 51.587890625 2774.37988281 51.587890625 2774.37988281 29.9375 2786.87988281 c 0
 8.287109375 2799.37988281 8.287109375 2799.37988281 2.564453125 2823.46875 c 0
 -4.5234375 2847.19042969 -4.5234375 2847.19042969 7.9765625 2868.84179688 c 0
 7.990234375 2868.86523438 7.990234375 2868.86523438 8.00390625 2868.88769531 c 1
 7.80859375 2869 l 1
 9.1806640625 2870.84667969 l 2
536.806640625 1695 m 1
 536.80859375 1695 l 1
 536.80859375 15.5 l 1
 536.80859375 15 l 1
 536.806640625 15 l 1
 536.629882812 -9.18359375 536.629882812 -9.18359375 519.30859375 -27 c 0
 501.80859375 -45 501.80859375 -45 476.80859375 -45 c 0
 451.80859375 -45 451.80859375 -45 434.80859375 -27 c 0
 416.80859375 -10 416.80859375 -10 416.80859375 15 c 2
 416.80859375 1695 l 2
 416.80859375 1720 416.80859375 1720 434.80859375 1737 c 0
 452.80859375 1755 452.80859375 1755 476.80859375 1755 c 0
 500.80859375 1755 500.80859375 1755 518.80859375 1737.5 c 0
 536.80859375 1720 536.80859375 1720 536.80859375 1695.5 c 0
 536.80859375 1695.25 536.80859375 1695.25 536.806640625 1695 c 1
EndSplineSet
Validated: 524289
EndChar

StartChar: W
Encoding: 87 87 59
Width: 620
VWidth: 0
GlyphClass: 2
Flags: HW
LayerCount: 3
Fore
SplineSet
467.80859375 11 m 1025
587.806640625 1691 m 1
 587.80859375 1691 l 1
 587.80859375 11.5 l 1
 587.80859375 11 l 1
 587.806640625 11 l 1
 587.629882812 -13.18359375 587.629882812 -13.18359375 570.30859375 -31 c 0
 552.80859375 -49 552.80859375 -49 527.80859375 -49 c 0
 502.80859375 -49 502.80859375 -49 485.80859375 -31 c 0
 467.80859375 -14 467.80859375 -14 467.80859375 11 c 2
 467.80859375 1691 l 2
 467.80859375 1716 467.80859375 1716 485.80859375 1733 c 0
 503.80859375 1751 503.80859375 1751 527.80859375 1751 c 0
 551.80859375 1751 551.80859375 1751 569.80859375 1733.5 c 0
 587.80859375 1716 587.80859375 1716 587.80859375 1691.5 c 0
 587.80859375 1691.25 587.80859375 1691.25 587.806640625 1691 c 1
9.1806640625 2875.84667969 m 2
 11.94140625 2880.26953125 11.94140625 2880.26953125 15.2216796875 2883.97949219 c 2
 264.80859375 3220 l 1
 267.661132812 3220 l 1
 270.78515625 3224.20019531 270.78515625 3224.20019531 274.80859375 3228 c 0
 292.80859375 3246 292.80859375 3246 316.80859375 3246 c 0
 340.80859375 3246 340.80859375 3246 358.80859375 3228.5 c 0
 362.986328125 3224.43847656 362.986328125 3224.43847656 366.194335938 3220 c 1
 368.80859375 3220 l 1
 605.197265625 2893.14257812 l 2
 607.9765625 2889.84570312 607.9765625 2889.84570312 610.33984375 2886.03125 c 2
 611.80859375 2884 l 1
 611.61328125 2883.88671875 l 1
 623.584960938 2862.83496094 623.584960938 2862.83496094 617.485351562 2838.71875 c 0
 611.330078125 2814.37988281 611.330078125 2814.37988281 589.678710938 2801.87988281 c 0
 568.028320312 2789.37988281 568.028320312 2789.37988281 544.305664062 2796.46875 c 0
 520.217773438 2802.19042969 520.217773438 2802.19042969 507.717773438 2823.84179688 c 0
 507.310546875 2824.54785156 507.310546875 2824.54785156 506.923828125 2825.25585938 c 2
 316.80859375 3095 l 1
 112.641601562 2815.14160156 l 2
 112.399414062 2814.70703125 112.399414062 2814.70703125 112.149414062 2814.27441406 c 0
 99.8994140625 2793.05664062 99.8994140625 2793.05664062 75.744140625 2786.21875 c 0
 51.587890625 2779.37988281 51.587890625 2779.37988281 29.9375 2791.87988281 c 0
 8.287109375 2804.37988281 8.287109375 2804.37988281 2.564453125 2828.46875 c 0
 -4.5234375 2852.19042969 -4.5234375 2852.19042969 7.9765625 2873.84179688 c 0
 7.990234375 2873.86523438 7.990234375 2873.86523438 8.00390625 2873.88769531 c 1
 7.80859375 2874 l 1
 9.1806640625 2875.84667969 l 2
EndSplineSet
Validated: 524289
EndChar

StartChar: X
Encoding: 88 88 60
Width: 1119
VWidth: 0
GlyphClass: 3
Flags: HW
LayerCount: 3
Fore
SplineSet
541.356445312 61 m 1025
737.37109375 104 m 0
 795.37109375 104 795.37109375 104 837.87109375 124 c 0
 880.37109375 144 880.37109375 144 902.87109375 179 c 0
 925.37109375 214 925.37109375 214 935.37109375 252.5 c 0
 945.37109375 291 945.37109375 291 945.37109375 335 c 0
 945.37109375 384 945.37109375 384 934.87109375 425 c 0
 924.37109375 466 924.37109375 466 901.87109375 501.5 c 0
 879.37109375 537 879.37109375 537 837.37109375 557.5 c 0
 795.37109375 578 795.37109375 578 737.37109375 578 c 2
 736.37109375 578 l 2
 695.325195312 578 695.325195312 578 661.356445312 564.022460938 c 1
 661.356445312 115.254882812 l 1
 695.060546875 104 695.060546875 104 737.37109375 104 c 0
732.37109375 761 m 0
 810.37109375 761 810.37109375 761 870.87109375 733.5 c 0
 931.37109375 706 931.37109375 706 989.37109375 653 c 0
 1047.37109375 599 1047.37109375 599 1083.37109375 517.5 c 0
 1119.37109375 436 1119.37109375 436 1119.37109375 338 c 0
 1119.37109375 240 1119.37109375 240 1080.37109375 152 c 0
 1041.37109375 64 1041.37109375 64 989.37109375 23 c 0
 922.37109375 -30 922.37109375 -30 865.37109375 -57.5 c 0
 808.37109375 -85 808.37109375 -85 732.37109375 -85 c 0
 655.37109375 -85 655.37109375 -85 596.87109375 -57.5 c 0
 538.37109375 -30 538.37109375 -30 476.37109375 23 c 0
 420.37109375 69 420.37109375 69 384.87109375 153.5 c 0
 349.37109375 238 349.37109375 238 349.37109375 338 c 0
 349.37109375 539 349.37109375 539 476.37109375 653 c 0
 508.555664062 681.85546875 508.555664062 681.85546875 541.356445312 703.3203125 c 1
 541.356445312 741 l 2
 541.356445312 766 541.356445312 766 559.356445312 783 c 0
 577.356445312 801 577.356445312 801 601.356445312 801 c 0
 625.356445312 801 625.356445312 801 643.356445312 783.5 c 0
 656.490234375 770.73046875 656.490234375 770.73046875 660.041015625 754.235351562 c 1
 694.032226562 761 694.032226562 761 732.37109375 761 c 0
541.356445312 422.604492188 m 1
 529.37109375 381.350585938 529.37109375 381.350585938 529.37109375 338 c 0
 529.37109375 290.951171875 529.37109375 290.951171875 541.356445312 250.81640625 c 1
 541.356445312 422.604492188 l 1
9.1806640625 2871.84667969 m 2
 11.94140625 2876.26953125 11.94140625 2876.26953125 15.2216796875 2879.97949219 c 2
 264.80859375 3216 l 1
 267.661132812 3216 l 1
 270.78515625 3220.20019531 270.78515625 3220.20019531 274.80859375 3224 c 0
 292.80859375 3242 292.80859375 3242 316.80859375 3242 c 0
 340.80859375 3242 340.80859375 3242 358.80859375 3224.5 c 0
 362.986328125 3220.43847656 362.986328125 3220.43847656 366.194335938 3216 c 1
 368.80859375 3216 l 1
 605.197265625 2889.14257812 l 2
 607.9765625 2885.84570312 607.9765625 2885.84570312 610.33984375 2882.03125 c 2
 611.80859375 2880 l 1
 611.61328125 2879.88671875 l 1
 623.584960938 2858.83496094 623.584960938 2858.83496094 617.485351562 2834.71875 c 0
 611.330078125 2810.37988281 611.330078125 2810.37988281 589.678710938 2797.87988281 c 0
 568.028320312 2785.37988281 568.028320312 2785.37988281 544.305664062 2792.46875 c 0
 520.217773438 2798.19042969 520.217773438 2798.19042969 507.717773438 2819.84179688 c 0
 507.310546875 2820.54785156 507.310546875 2820.54785156 506.923828125 2821.25585938 c 2
 316.80859375 3091 l 1
 112.641601562 2811.14160156 l 2
 112.399414062 2810.70703125 112.399414062 2810.70703125 112.149414062 2810.27441406 c 0
 99.8994140625 2789.05664062 99.8994140625 2789.05664062 75.744140625 2782.21875 c 0
 51.587890625 2775.37988281 51.587890625 2775.37988281 29.9375 2787.87988281 c 0
 8.287109375 2800.37988281 8.287109375 2800.37988281 2.564453125 2824.46875 c 0
 -4.5234375 2848.19042969 -4.5234375 2848.19042969 7.9765625 2869.84179688 c 0
 7.990234375 2869.86523438 7.990234375 2869.86523438 8.00390625 2869.88769531 c 1
 7.80859375 2870 l 1
 9.1806640625 2871.84667969 l 2
EndSplineSet
Validated: 524289
LCarets2: 1 0
EndChar

StartChar: Y
Encoding: 89 89 61
Width: 893
VWidth: 0
GlyphClass: 2
Flags: HW
LayerCount: 3
Fore
SplineSet
0 60 m 1025
119.998172893 180 m 1
 120 180 l 1
 120 60.5 l 1
 120 60 l 1
 119.998172893 60 l 1
 119.8211862 35.8160772344 119.8211862 35.8160772344 102.5 18 c 0
 85 0 85 0 60 0 c 0
 35 0 35 0 18 18 c 0
 0 35 0 35 0 60 c 2
 0 180 l 2
 0 205 0 205 18 222 c 0
 36 240 36 240 60 240 c 0
 84 240 84 240 102 222.5 c 0
 120 205 120 205 120 180.5 c 0
 120 180.24966068 120 180.24966068 119.998172893 180 c 1
282.371522952 2875.84648615 m 2
 285.132426465 2880.26953399 285.132426465 2880.26953399 288.412316198 2883.97922725 c 2
 538 3220 l 1
 540.852112418 3220 l 1
 543.976337987 3224.19987477 543.976337987 3224.19987477 548 3228 c 0
 566 3246 566 3246 590 3246 c 0
 614 3246 614 3246 632 3228.5 c 0
 636.177520997 3224.43852125 636.177520997 3224.43852125 639.385504123 3220 c 1
 642 3220 l 1
 878.387967443 2893.14256354 l 2
 881.167181849 2889.84529403 881.167181849 2889.84529403 883.531289588 2886.03080946 c 2
 885 2884 l 1
 884.80404902 2883.88695136 l 1
 896.775867488 2862.83456966 896.775867488 2862.83456966 890.676757812 2838.71875 c 0
 884.521484375 2814.37988281 884.521484375 2814.37988281 862.870117188 2801.87988281 c 0
 841.219726562 2789.37988281 841.219726562 2789.37988281 817.497070312 2796.46875 c 0
 793.409179688 2802.19042969 793.409179688 2802.19042969 780.909179688 2823.84179688 c 0
 780.501576969 2824.54777752 780.501576969 2824.54777752 780.114801974 2825.2559616 c 2
 590 3095 l 1
 385.832804115 2815.14155101 l 2
 385.590786324 2814.70737098 385.590786324 2814.70737098 385.340820312 2814.27441406 c 0
 373.090820312 2793.05664062 373.090820312 2793.05664062 348.935546875 2786.21875 c 0
 324.779296875 2779.37988281 324.779296875 2779.37988281 303.12890625 2791.87988281 c 0
 281.478515625 2804.37988281 281.478515625 2804.37988281 275.755859375 2828.46875 c 0
 268.66796875 2852.19042969 268.66796875 2852.19042969 281.16796875 2873.84179688 c 0
 281.181244999 2873.86479175 281.181244999 2873.86479175 281.194534319 2873.88776866 c 1
 281 2874 l 1
 282.371522952 2875.84648615 l 2
EndSplineSet
Validated: 524289
EndChar

StartChar: Z
Encoding: 90 90 62
Width: 995
GlyphClass: 2
Flags: HW
LayerCount: 3
Fore
SplineSet
715.80859375 605 m 0
 814.80859375 605 814.80859375 605 899.80859375 527 c 0
 941.80859375 489 941.80859375 489 968.30859375 430 c 0
 994.80859375 371 994.80859375 371 994.80859375 300 c 0
 994.80859375 230 994.80859375 230 966.30859375 166.5 c 0
 937.80859375 103 937.80859375 103 900.80859375 73 c 0
 851.80859375 34 851.80859375 34 811.30859375 14.5 c 0
 770.80859375 -5 770.80859375 -5 715.80859375 -5 c 0
 660.80859375 -5 660.80859375 -5 618.80859375 15 c 0
 576.80859375 35 576.80859375 35 530.80859375 73 c 0
 490.80859375 107 490.80859375 107 465.30859375 167.5 c 0
 439.80859375 228 439.80859375 228 439.80859375 300 c 0
 439.80859375 444 439.80859375 444 530.80859375 527 c 0
 617.80859375 605 617.80859375 605 715.80859375 605 c 0
718.80859375 116 m 0
 781.80859375 116 781.80859375 116 815.30859375 172.5 c 0
 848.80859375 229 848.80859375 229 848.80859375 288 c 0
 848.80859375 353 848.80859375 353 815.30859375 411.5 c 0
 781.80859375 470 781.80859375 470 718.80859375 470 c 0
 660.80859375 470 660.80859375 470 621.30859375 410.5 c 0
 581.80859375 351 581.80859375 351 581.80859375 297 c 0
 581.80859375 238 581.80859375 238 620.80859375 177 c 0
 659.80859375 116 659.80859375 116 718.80859375 116 c 0
9.1806640625 2871.84667969 m 2
 11.94140625 2876.26953125 11.94140625 2876.26953125 15.2216796875 2879.97949219 c 2
 264.80859375 3216 l 1
 267.661132812 3216 l 1
 270.78515625 3220.20019531 270.78515625 3220.20019531 274.80859375 3224 c 0
 292.80859375 3242 292.80859375 3242 316.80859375 3242 c 0
 340.80859375 3242 340.80859375 3242 358.80859375 3224.5 c 0
 362.986328125 3220.43847656 362.986328125 3220.43847656 366.194335938 3216 c 1
 368.80859375 3216 l 1
 605.197265625 2889.14257812 l 2
 607.9765625 2885.84570312 607.9765625 2885.84570312 610.33984375 2882.03125 c 2
 611.80859375 2880 l 1
 611.61328125 2879.88671875 l 1
 623.584960938 2858.83496094 623.584960938 2858.83496094 617.485351562 2834.71875 c 0
 611.330078125 2810.37988281 611.330078125 2810.37988281 589.678710938 2797.87988281 c 0
 568.028320312 2785.37988281 568.028320312 2785.37988281 544.305664062 2792.46875 c 0
 520.217773438 2798.19042969 520.217773438 2798.19042969 507.717773438 2819.84179688 c 0
 507.310546875 2820.54785156 507.310546875 2820.54785156 506.923828125 2821.25585938 c 2
 316.80859375 3091 l 1
 112.641601562 2811.14160156 l 2
 112.399414062 2810.70703125 112.399414062 2810.70703125 112.149414062 2810.27441406 c 0
 99.8994140625 2789.05664062 99.8994140625 2789.05664062 75.744140625 2782.21875 c 0
 51.587890625 2775.37988281 51.587890625 2775.37988281 29.9375 2787.87988281 c 0
 8.287109375 2800.37988281 8.287109375 2800.37988281 2.564453125 2824.46875 c 0
 -4.5234375 2848.19042969 -4.5234375 2848.19042969 7.9765625 2869.84179688 c 0
 7.990234375 2869.86523438 7.990234375 2869.86523438 8.00390625 2869.88769531 c 1
 7.80859375 2870 l 1
 9.1806640625 2871.84667969 l 2
EndSplineSet
Validated: 524289
EndChar

StartChar: bracketleft
Encoding: 91 91 63
Width: 485
GlyphClass: 2
Flags: HW
LayerCount: 3
Fore
SplineSet
425 3130 m 2
 120 3130 l 1
 120 -880 l 1
 424 -880 l 2
 448 -880 448 -880 466 -897.5 c 0
 484 -915 484 -915 484 -939.5 c 0
 484 -964 484 -964 466.5 -982 c 0
 449 -1000 449 -1000 424 -1000 c 2
 0 -1000 l 1
 0 3250 l 1
 425 3250 l 2
 449 3250 449 3250 467 3232.5 c 0
 485 3215 485 3215 485 3190.5 c 0
 485 3166 485 3166 467.5 3148 c 0
 450 3130 450 3130 425 3130 c 2
EndSplineSet
Validated: 1
EndChar

StartChar: backslash
Encoding: 92 92 64
Width: 2245
GlyphClass: 2
Flags: HW
LayerCount: 3
Fore
SplineSet
111.899414062 2772.28417969 m 1
 2236.89941406 -908.32421875 l 1
 2236.89746094 -908.32421875 2236.89746094 -908.32421875 2236.89550781 -908.326171875 c 0
 2248.8359375 -929.360351562 2248.8359375 -929.360351562 2242.74316406 -953.451171875 c 0
 2236.58789062 -977.790039062 2236.58789062 -977.790039062 2214.93652344 -990.290039062 c 0
 2193.28613281 -1002.79003906 2193.28613281 -1002.79003906 2169.56347656 -995.701171875 c 0
 2145.47558594 -989.979492188 2145.47558594 -989.979492188 2132.97558594 -968.328125 c 0
 2132.8203125 -968.057617188 2132.8203125 -968.057617188 2132.66699219 -967.787109375 c 2
 8.203125 2711.89257812 l 2
 8.08984375 2712.0859375 8.08984375 2712.0859375 7.9765625 2712.28125 c 0
 -4.5234375 2733.93164062 -4.5234375 2733.93164062 2.564453125 2757.65429688 c 0
 9.1533203125 2782.24316406 9.1533203125 2782.24316406 29.9375 2794.24316406 c 0
 50.72265625 2806.24316406 50.72265625 2806.24316406 75.060546875 2800.08789062 c 0
 99.3994140625 2793.93164062 99.3994140625 2793.93164062 111.649414062 2772.71484375 c 0
 111.774414062 2772.49902344 111.774414062 2772.49902344 111.897460938 2772.28222656 c 1
 111.899414062 2772.28417969 l 1
EndSplineSet
Validated: 524289
EndChar

StartChar: bracketright
Encoding: 93 93 65
Width: 485
GlyphClass: 2
Flags: HW
LayerCount: 3
Fore
SplineSet
61 3250 m 2
 485 3250 l 1
 485 -1000 l 1
 60 -1000 l 2
 36 -1000 36 -1000 18 -982.5 c 0
 0 -965 0 -965 0 -940.5 c 0
 0 -916 0 -916 17.5 -898 c 0
 35 -880 35 -880 60 -880 c 2
 365 -880 l 1
 365 3130 l 1
 61 3130 l 2
 37 3130 37 3130 19 3147.5 c 0
 1 3165 1 3165 1 3189.5 c 0
 1 3214 1 3214 18.5 3232 c 0
 36 3250 36 3250 61 3250 c 2
EndSplineSet
Validated: 1
EndChar

StartChar: asciicircum
Encoding: 94 94 66
Width: 620
GlyphClass: 2
Flags: HW
LayerCount: 3
Fore
SplineSet
9.1806640625 1680.84667969 m 2
 11.94140625 1685.26953125 11.94140625 1685.26953125 15.2216796875 1688.97949219 c 2
 264.80859375 2025 l 1
 267.661132812 2025 l 1
 270.78515625 2029.20019531 270.78515625 2029.20019531 274.80859375 2033 c 0
 292.80859375 2051 292.80859375 2051 316.80859375 2051 c 0
 340.80859375 2051 340.80859375 2051 358.80859375 2033.5 c 0
 362.986328125 2029.43847656 362.986328125 2029.43847656 366.194335938 2025 c 1
 368.80859375 2025 l 1
 605.197265625 1698.14257812 l 2
 607.9765625 1694.84570312 607.9765625 1694.84570312 610.33984375 1691.03125 c 2
 611.80859375 1689 l 1
 611.61328125 1688.88671875 l 1
 623.584960938 1667.83496094 623.584960938 1667.83496094 617.485351562 1643.71875 c 0
 611.330078125 1619.37988281 611.330078125 1619.37988281 589.678710938 1606.87988281 c 0
 568.028320312 1594.37988281 568.028320312 1594.37988281 544.305664062 1601.46875 c 0
 520.217773438 1607.19042969 520.217773438 1607.19042969 507.717773438 1628.84179688 c 0
 507.310546875 1629.54785156 507.310546875 1629.54785156 506.923828125 1630.25585938 c 2
 316.80859375 1900 l 1
 112.641601562 1620.14160156 l 2
 112.399414062 1619.70703125 112.399414062 1619.70703125 112.149414062 1619.27441406 c 0
 99.8994140625 1598.05664062 99.8994140625 1598.05664062 75.744140625 1591.21875 c 0
 51.587890625 1584.37988281 51.587890625 1584.37988281 29.9375 1596.87988281 c 0
 8.287109375 1609.37988281 8.287109375 1609.37988281 2.564453125 1633.46875 c 0
 -4.5234375 1657.19042969 -4.5234375 1657.19042969 7.9765625 1678.84179688 c 0
 7.990234375 1678.86523438 7.990234375 1678.86523438 8.00390625 1678.88769531 c 1
 7.80859375 1679 l 1
 9.1806640625 1680.84667969 l 2
EndSplineSet
Validated: 524289
EndChar

StartChar: underscore
Encoding: 95 95 67
Width: 1353
GlyphClass: 2
Flags: HW
LayerCount: 3
Fore
SplineSet
0 60 m 0
 0 85 0 85 18 102 c 0
 36 120 36 120 60 120 c 2
 1293 120 l 2
 1317 120 1317 120 1335 102.5 c 0
 1353 85 1353 85 1353 60.5 c 0
 1353 36 1353 36 1335.5 18 c 0
 1318 0 1318 0 1293 0 c 2
 60 0 l 2
 35 0 35 0 18 18 c 0
 0 35 0 35 0 60 c 0
EndSplineSet
Validated: 1
EndChar

StartChar: grave
Encoding: 96 96 68
Width: 581
GlyphClass: 2
Flags: HW
LayerCount: 3
Fore
SplineSet
99 2101 m 1
 565 1691 l 1
 563.262863043 1689.24312285 l 1
 581 1671.82044917 581 1671.82044917 581 1647.5 c 0
 581 1623 581 1623 563.5 1605 c 0
 546 1587 546 1587 521 1587 c 0
 496.347791256 1587 496.347791256 1587 479.474544381 1604.5026642 c 1
 477 1602 l 1
 21 2003 l 1
 22.8715790703 2005.35147114 l 2
 20.358781245 2007.50246692 20.358781245 2007.50246692 18 2010 c 0
 0 2027 0 2027 0 2052 c 0
 0 2077 0 2077 18 2094 c 0
 36 2112 36 2112 60 2112 c 0
 80.877656634 2112 80.877656634 2112 97.214932575 2098.75722298 c 1
 99 2101 l 1
EndSplineSet
Validated: 524289
EndChar

StartChar: a
Encoding: 97 97 69
Width: 466
VWidth: 0
GlyphClass: 2
Flags: HW
LayerCount: 3
Fore
SplineSet
412.94140625 668.692382812 m 25,0,-1
 392.94140625 634.051757812 l 25,1,-1
 385.62109375 661.372070312 l 25,2,-1
 420.262695312 641.372070312 l 1049,3,-1
72.94140625 79.794921875 m 25,0,-1
 52.94140625 45.154296875 l 25,1,-1
 45.62109375 72.474609375 l 25,2,-1
 80.2626953125 52.474609375 l 1049,3,-1
10.98046875 92.474609375 m 1025
433.375 703.083007812 m 0
 465.942382812 684.280273438 465.942382812 684.280273438 465.942382812 656.604492188 c 0,0,0
 465.942382812 640.4921875 465.942382812 640.4921875 454.903320312 621.372070312 c 2
 114.903320312 32.474609375 l 2
 95.884765625 -0.466796875 95.884765625 -0.466796875 68.0380859375 -0.466796875 c 0,0,0
 51.9609375 -0.466796875 51.9609375 -0.466796875 32.94140625 10.513671875 c 0
 0 29.533203125 0 29.533203125 0 57.37890625 c 0,0,0
 0 73.455078125 0 73.455078125 10.98046875 92.474609375 c 2
 350.98046875 681.372070312 l 2
 362.98046875 702.15625 362.98046875 702.15625 385.836914062 709.744140625 c 0
 408.693359375 717.333007812 408.693359375 717.333007812 433.375 703.083007812 c 0
EndSplineSet
Validated: 524291
EndChar

StartChar: b
Encoding: 98 98 70
Width: 448
VWidth: 0
GlyphClass: 2
Flags: HW
LayerCount: 3
Fore
SplineSet
60 881 m 25,0,-1
 60 841 l 25,1,-1
 40 861 l 25,2,-1
 80 861 l 1049,3,-1
60 876 m 25,0,-1
 60 836 l 25,1,-1
 40 856 l 25,2,-1
 80 856 l 1049,3,-1
0 60 m 1025
119.998172893 1740 m 1
 120 1740 l 1
 120 1488.58061274 l 1
 165.341040732 1510.01384083 165.341040732 1510.01384083 227.813831252 1510.01384083 c 0,0,0
 229.401384083 1510.01384083 229.401384083 1510.01384083 231 1510 c 0
 336 1509 336 1509 398 1421 c 0
 448.260869565 1348.56521739 448.260869565 1348.56521739 448.260869565 1273.94517958 c 0,0,0
 448.260869565 1197.13043478 448.260869565 1197.13043478 395 1118 c 0
 354.204550845 1056.80682627 354.204550845 1056.80682627 120 837.877351069 c 1
 120 60.5 l 1
 120 60 l 1
 119.998172893 60 l 1
 119.8211862 35.8160772344 119.8211862 35.8160772344 102.5 18 c 0
 85 0 85 0 60 0 c 0
 35 0 35 0 18 18 c 0
 0 35 0 35 0 60 c 2
 0 855 l 1
 0 856 l 1
 0 861 l 1
 0 1225 l 1
 0 1740 l 2
 0 1765 0 1765 18 1782 c 0
 36 1800 36 1800 60 1800 c 0
 84 1800 84 1800 102 1782.5 c 0
 120 1765 120 1765 120 1740.5 c 0
 120 1740.24966068 120 1740.24966068 119.998172893 1740 c 1
120 1222 m 2
 120 999 l 1
 167 1047 167 1047 214 1095 c 0
 329.074380165 1210.07438017 329.074380165 1210.07438017 329.074380165 1269.98914009 c 0,0,0
 329.074380165 1383.59049122 329.074380165 1383.59049122 234 1390 c 0
 229.615384615 1390.26923077 229.615384615 1390.26923077 225.399408284 1390.26923077 c 0,0,0
 120 1390.26923077 120 1390.26923077 120 1222 c 2
EndSplineSet
Validated: 524291
EndChar

StartChar: c
Encoding: 99 99 71
Width: 770
GlyphClass: 2
Flags: HW
LayerCount: 3
Fore
SplineSet
640 60 m 0
 698 6 698 6 734 -75.5 c 0
 770 -157 770 -157 770 -255 c 0
 770 -353 770 -353 731 -441 c 0
 692 -529 692 -529 632.5 -576 c 0
 573 -623 573 -623 516 -650.5 c 0
 459 -678 459 -678 382.5 -678 c 0
 306 -678 306 -678 247.5 -650.5 c 0
 189 -623 189 -623 130 -573.5 c 0
 71 -524 71 -524 35.5 -439.5 c 0
 0 -355 0 -355 0 -255 c 0
 0 -54 0 -54 127 60 c 0
 247.461914062 168 247.461914062 168 384.63671875 168 c 0
 521.811523438 168 521.811523438 168 640 60 c 0
388 -515 m 0
 565.423828125 -515 565.423828125 -515 608 -350.5 c 0
 619 -308 619 -308 619 -256 c 0
 619 -204 619 -204 607.5 -158.5 c 0
 596 -113 596 -113 571 -73.5 c 0
 517.518554688 11 517.518554688 11 388 11 c 2
 386 11 l 2
 270.125 11 270.125 11 210.5 -79 c 0
 157 -159.754882812 157 -159.754882812 157 -261.876953125 c 0
 157 -364 157 -364 215 -439.5 c 0
 273 -515 273 -515 388 -515 c 0
EndSplineSet
Validated: 524289
EndChar

StartChar: d
Encoding: 100 100 72
Width: 361
VWidth: 0
GlyphClass: 2
Flags: HW
LayerCount: 3
Fore
SplineSet
60 -46 m 25,0,-1
 60 -6 l 25,1,-1
 80 -26 l 25,2,-1
 40 -26 l 1049,3,-1
317.87890625 -501.936523438 m 25,0,-1
 283.237304688 -481.936523438 l 25,1,-1
 310.55859375 -474.616210938 l 25,2,-1
 290.55859375 -509.256835938 l 1049,3,-1
352.26953125 -522.369140625 m 0
 339.01953125 -545.319335938 339.01953125 -545.319335938 316.48046875 -551.359375 c 0
 293.940429688 -557.3984375 293.940429688 -557.3984375 269.258789062 -543.1484375 c 0
 266.514648438 -541.564453125 266.514648438 -541.564453125 264.014648438 -539.892578125 c 0
 0 -382.31640625 0 -382.31640625 0 -26 c 0
 0 34 0 34 60 34 c 0
 120 34 120 34 120 -26 c 0
 120 -316 120 -316 331 -440 c 1
 330.900390625 -440.172851562 l 1
 353.122070312 -453.151367188 353.122070312 -453.151367188 359.296875 -476.197265625 c 0
 365.51953125 -499.419921875 365.51953125 -499.419921875 352.26953125 -522.369140625 c 0
EndSplineSet
Validated: 524291
EndChar

StartChar: e
Encoding: 101 101 73
Width: 599
VWidth: 0
GlyphClass: 2
Flags: HW
LayerCount: 3
Fore
SplineSet
54.796875 120.495117188 m 1025
544.42578125 42.875 m 1
 544.42578125 42.8740234375 l 1
 66.03515625 1.0205078125 l 2
 65.89453125 1.0078125 65.89453125 1.0078125 65.75390625 0.9951171875 c 0
 65.611328125 0.982421875 65.611328125 0.982421875 65.46875 0.970703125 c 2
 65.255859375 0.9521484375 l 1
 65.255859375 0.953125 l 1
 41.1484375 -0.9775390625 41.1484375 -0.9775390625 21.890625 14.724609375 c 0
 2.43359375 30.58984375 2.43359375 30.58984375 0.2548828125 55.494140625 c 0
 -1.923828125 80.3994140625 -1.923828125 80.3994140625 14.525390625 98.9033203125 c 0
 29.892578125 118.31640625 29.892578125 118.31640625 54.796875 120.495117188 c 2
 533.966796875 162.416992188 l 2
 558.872070312 164.595703125 558.872070312 164.595703125 577.375976562 148.146484375 c 0
 596.875976562 131.783203125 596.875976562 131.783203125 598.967773438 107.875 c 0
 601.059570312 83.9658203125 601.059570312 83.9658203125 585.1953125 64.509765625 c 0
 569.330078125 45.052734375 569.330078125 45.052734375 544.923828125 42.9169921875 c 0
 544.674804688 42.8955078125 544.674804688 42.8955078125 544.42578125 42.875 c 1
EndSplineSet
Validated: 524289
EndChar

StartChar: f
Encoding: 102 102 74
Width: 120
VWidth: 0
GlyphClass: 2
Flags: HW
LayerCount: 3
Fore
SplineSet
0 57 m 1025
119.998172893 737 m 1
 120 737 l 1
 120 57.5 l 1
 120 57 l 1
 119.998172893 57 l 1
 119.8211862 32.8160772344 119.8211862 32.8160772344 102.5 15 c 0
 85 -3 85 -3 60 -3 c 0
 35 -3 35 -3 18 15 c 0
 0 32 0 32 0 57 c 2
 0 737 l 2
 0 762 0 762 18 779 c 0
 36 797 36 797 60 797 c 0
 84 797 84 797 102 779.5 c 0
 120 762 120 762 120 737.5 c 0
 120 737.24966068 120 737.24966068 119.998172893 737 c 1
EndSplineSet
Validated: 524289
EndChar

StartChar: g
Encoding: 103 103 75
Width: 120
VWidth: 0
GlyphClass: 2
Flags: HW
LayerCount: 3
Fore
SplineSet
0 60 m 1025
119.998172893 1740 m 1
 120 1740 l 1
 120 60.5 l 1
 120 60 l 1
 119.998172893 60 l 1
 119.8211862 35.8160772344 119.8211862 35.8160772344 102.5 18 c 0
 85 0 85 0 60 0 c 0
 35 0 35 0 18 18 c 0
 0 35 0 35 0 60 c 2
 0 1740 l 2
 0 1765 0 1765 18 1782 c 0
 36 1800 36 1800 60 1800 c 0
 84 1800 84 1800 102 1782.5 c 0
 120 1765 120 1765 120 1740.5 c 0
 120 1740.24966068 120 1740.24966068 119.998172893 1740 c 1
EndSplineSet
Validated: 524289
EndChar

StartChar: h
Encoding: 104 104 76
Width: 120
VWidth: 0
GlyphClass: 3
Flags: HW
LayerCount: 3
Fore
SplineSet
0 60 m 1025
119.998046875 740 m 1
 120 740 l 1
 120 60.5 l 1
 120 60 l 1
 119.998046875 60 l 1
 119.821289062 35.81640625 119.821289062 35.81640625 102.5 18 c 0
 85 0 85 0 60 0 c 0
 35 0 35 0 18 18 c 0
 0 35 0 35 0 60 c 2
 0 740 l 2
 0 765 0 765 18 782 c 0
 36 800 36 800 60 800 c 0
 84 800 84 800 102 782.5 c 0
 120 765 120 765 120 740.5 c 0
 120 740.25 120 740.25 119.998046875 740 c 1
EndSplineSet
Validated: 524289
LCarets2: 1 760
EndChar

StartChar: i
Encoding: 105 105 77
Width: 149
VWidth: 0
GlyphClass: 2
Flags: HW
LayerCount: 3
Fore
SplineSet
149 584 m 1
 149 26 l 1
 0 26 l 1
 0 584 l 1
 149 584 l 1
EndSplineSet
Validated: 1
EndChar

StartChar: j
Encoding: 106 106 78
Width: 449
VWidth: 0
GlyphClass: 2
Flags: HW
LayerCount: 3
Fore
SplineSet
0 154 m 1
 161 154 l 1
 161 -26 l 1
 321 155 l 1
 449 58 l 1
 161 -206 l 1
 0 -360 l 1
 0 154 l 1
EndSplineSet
Validated: 1
EndChar

StartChar: k
Encoding: 107 107 79
Width: 120
VWidth: 3070
GlyphClass: 2
Flags: HW
LayerCount: 3
Fore
SplineSet
0 61 m 1025
119.998046875 741 m 1
 120 741 l 1
 120 61.5 l 1
 120 61 l 1
 119.998046875 61 l 1
 119.821289062 36.81640625 119.821289062 36.81640625 102.5 19 c 0
 85 1 85 1 60 1 c 0
 35 1 35 1 18 19 c 0
 0 36 0 36 0 61 c 2
 0 741 l 2
 0 766 0 766 18 783 c 0
 36 801 36 801 60 801 c 0
 84 801 84 801 102 783.5 c 0
 120 766 120 766 120 741.5 c 0
 120 741.25 120 741.25 119.998046875 741 c 1
EndSplineSet
Validated: 524289
EndChar

StartChar: l
Encoding: 108 108 80
Width: 333
GlyphClass: 2
Flags: HW
LayerCount: 3
Fore
SplineSet
53.5 348.5 m 0
 107 397 107 397 166.5 397 c 0
 226 397 226 397 279.5 347.5 c 0
 333 298 333 298 333 214 c 0
 333 172 333 172 316 134 c 0
 299 96 299 96 277 78 c 0
 217 31 217 31 164 31 c 0
 111 31 111 31 55 78 c 0
 0 123.833007812 0 123.833007812 0 211.916992188 c 0
 0 300 0 300 53.5 348.5 c 0
EndSplineSet
Validated: 524289
EndChar

StartChar: m
Encoding: 109 109 81
Width: 120
VWidth: 3070
GlyphClass: 2
Flags: HW
LayerCount: 3
Fore
SplineSet
0 60 m 1025
60.1142578125 0 m 0
 60.0576171875 0 60.0576171875 0 60 0 c 0
 35 0 35 0 18 18 c 0
 0 35 0 35 0 60 c 2
 0 1740 l 2
 0 1765 0 1765 18 1782 c 0
 36 1800 36 1800 60 1800 c 0
 84 1800 84 1800 102 1782.5 c 0
 120 1765 120 1765 120 1740.5 c 0
 120 1740.25 120 1740.25 119.998046875 1740 c 1
 120 1740 l 1
 120 65.8974609375 l 2
 120.225585938 63.2431640625 120.225585938 63.2431640625 120.225585938 60.5 c 0
 120.225585938 36 120.225585938 36 102.725585938 18 c 0
 85.2255859375 0 85.2255859375 0 60.2255859375 0 c 0
 60.169921875 0 60.169921875 0 60.1142578125 0 c 0
EndSplineSet
Validated: 524289
EndChar

StartChar: o
Encoding: 111 111 83
Width: 514
VWidth: 0
GlyphClass: 2
Flags: HW
LayerCount: 3
Fore
SplineSet
51.2197265625 90.3212890625 m 25,0,-1
 71.2197265625 124.962890625 l 25,1,-1
 78.5400390625 97.6416015625 l 25,2,-1
 43.8994140625 117.641601562 l 1049,3,-1
441.219726562 765.821289062 m 25,0,-1
 461.219726562 800.461914062 l 25,1,-1
 468.540039062 773.141601562 l 25,2,-1
 433.899414062 793.141601562 l 1049,3,-1
30.7861328125 55.9306640625 m 0
 7.8369140625 69.1806640625 7.8369140625 69.1806640625 1.7978515625 91.720703125 c 0
 -4.2421875 114.259765625 -4.2421875 114.259765625 10.0078125 138.94140625 c 0
 21.2353515625 158.387695312 21.2353515625 158.387695312 36.8740234375 165.610351562 c 0
 179.776367188 252.123046875 179.776367188 252.123046875 282.908203125 430.75390625 c 0
 386.267578125 609.778320312 386.267578125 609.778320312 390.313476562 775.09765625 c 0
 388.228515625 794.037109375 388.228515625 794.037109375 400.0078125 814.440429688 c 0
 414.2578125 839.122070312 414.2578125 839.122070312 435.614257812 844.112304688 c 0
 456.970703125 849.102539062 456.970703125 849.102539062 481.219726562 835.102539062 c 0
 514.162109375 816.083984375 514.162109375 816.083984375 514.162109375 788.23828125 c 0,0,0
 514.162109375 785.69921875 514.162109375 785.69921875 513.888671875 783.086914062 c 1
 513.908203125 783.086914062 513.908203125 783.086914062 513.928710938 783.086914062 c 1
 512.581054688 588.559570312 512.581054688 588.559570312 387.581054688 372.052734375 c 0
 263.095703125 156.436523438 263.095703125 156.436523438 92.939453125 55.861328125 c 0
 85.66796875 51.236328125 85.66796875 51.236328125 76.958984375 48.90234375 c 0
 53.736328125 42.6806640625 53.736328125 42.6806640625 30.7861328125 55.9306640625 c 0
EndSplineSet
Validated: 524291
EndChar

StartChar: p
Encoding: 112 112 84
Width: 480
VWidth: 3070
GlyphClass: 2
Flags: HW
LayerCount: 3
Fore
SplineSet
0 60 m 1025
120.2890625 897 m 1
 360.296875 1138.01202929 360.296875 1138.01202929 360.296875 1282.73925781 c 0,0,0
 360.296875 1456 360.296875 1456 234.2890625 1456 c 0
 120.2890625 1456 120.2890625 1456 120.2890625 1224 c 0
 120.2890625 1192 120.2890625 1192 120.2890625 897 c 1
0 740 m 2
 0 743.168105485 0 743.168105485 0.2890625 746.207738747 c 2
 0.2890625 751.480034722 l 2
 0.287109375 751.739583333 0.287109375 751.739583333 0.287109375 752 c 0
 0.287109375 752.260416667 0.287109375 752.260416667 0.2890625 752.519965278 c 2
 0.2890625 1231 l 2
 1.2890625 1579 1.2890625 1579 234.7890625 1579 c 0
 480.2890625 1579 480.2890625 1579 480.2890625 1280 c 0
 480.2890625 1089.4519007 480.2890625 1089.4519007 120 728.712006685 c 1
 120 60.5 l 1
 120 60 l 1
 119.998172893 60 l 1
 119.8211862 35.8160772344 119.8211862 35.8160772344 102.5 18 c 0
 85 0 85 0 60 0 c 0
 35 0 35 0 18 18 c 0
 0 35 0 35 0 60 c 2
 0 740 l 2
EndSplineSet
Validated: 524289
EndChar

StartChar: q
Encoding: 113 113 85
Width: 120
VWidth: 0
GlyphClass: 2
Flags: HW
LayerCount: 3
Fore
SplineSet
0 61 m 1025
119.998046875 741 m 1
 120 741 l 1
 120 61.5 l 1
 120 61 l 1
 119.998046875 61 l 1
 119.821289062 36.81640625 119.821289062 36.81640625 102.5 19 c 0
 85 1 85 1 60 1 c 0
 35 1 35 1 18 19 c 0
 0 36 0 36 0 61 c 2
 0 741 l 2
 0 766 0 766 18 783 c 0
 36 801 36 801 60 801 c 0
 84 801 84 801 102 783.5 c 0
 120 766 120 766 120 741.5 c 0
 120 741.25 120 741.25 119.998046875 741 c 1
EndSplineSet
Validated: 524289
EndChar

StartChar: r
Encoding: 114 114 86
Width: 462
VWidth: 0
GlyphClass: 2
Flags: HW
LayerCount: 3
Fore
SplineSet
190 299 m 1
 462 -88 l 1
 280 -88 l 1
 0 299 l 1
 190 299 l 1
EndSplineSet
Validated: 1
EndChar

StartChar: s
Encoding: 115 115 87
Width: 770
GlyphClass: 2
Flags: HW
LayerCount: 3
Fore
SplineSet
388 141 m 0
 547.428710938 141 547.428710938 141 586 289.5 c 0
 596 328 596 328 596 374.5 c 0
 596 421 596 421 585.5 462 c 0
 575 503 575 503 552.5 538.5 c 0
 504.013671875 615 504.013671875 615 388 615 c 2
 387 615 l 2
 318 615 318 615 269 575.5 c 0
 180 503.754882812 180 503.754882812 180 390.377929688 c 0
 180 277 180 277 232 209 c 0
 284 141 284 141 388 141 c 0
640 690 m 0
 698 636 698 636 734 554.5 c 0
 770 473 770 473 770 375 c 0
 770 277 770 277 731 189 c 0
 692 101 692 101 632.5 54 c 0
 573 7 573 7 516 -20.5 c 0
 459 -48 459 -48 382.5 -48 c 0
 306 -48 306 -48 247.5 -20.5 c 0
 189 7 189 7 130 56.5 c 0
 71 106 71 106 35.5 190.5 c 0
 0 275 0 275 0 375 c 0
 0 576 0 576 127 690 c 0
 247.461914062 798 247.461914062 798 384.63671875 798 c 0
 521.811523438 798 521.811523438 798 640 690 c 0
EndSplineSet
Validated: 524289
EndChar

StartChar: u
Encoding: 117 117 89
Width: 585
VWidth: 0
GlyphClass: 2
Flags: HW
LayerCount: 3
Fore
SplineSet
217 -44 m 0
 428 -44 428 -44 428 780 c 1
 429 780 l 1
 429 805 429 805 447 822 c 0
 465 840 465 840 489 840 c 0
 513 840 513 840 531 822.5 c 0
 549 805 549 805 549 780.5 c 0
 549 780.24966068 549 780.24966068 548.998172893 780 c 1
 549 780 l 1
 548 -174 548 -174 213.956054688 -174 c 0
 0 -174 0 -174 0 48 c 0
 0 54 0 54 0 60 c 0
 0 85 0 85 18 102 c 0
 36 120 36 120 60 120 c 0
 84 120 84 120 102 102.5 c 0
 120 85 120 85 120 60.5 c 0
 120 60.2496606801 120 60.2496606801 119.998172893 60 c 1
 120 60 l 1
 120 54 120 54 120 49 c 0
 120 -44 120 -44 217 -44 c 0
EndSplineSet
Validated: 524289
Layer: 2
SplineSet
291.913085938 1746.18457031 m 4
 357.490234375 1746.48242188 420.852539062 1717.75390625 482 1660 c 4
 550.186523438 1595.75390625 584.432617188 1510.96386719 584.740234375 1405.63085938 c 4
 585.099609375 1301.63085938 550.852539062 1218.84082031 482 1157.26074219 c 4
 418.852539062 1100.17382812 355.82421875 1071.44628906 292.913085938 1071.07714844 c 4
 231.82421875 1070.77929688 168.39453125 1099.5078125 102.625976562 1157.26074219 c 4
 35.728515625 1216.17382812 2.279296875 1298.29785156 2.279296875 1403.63085938 c 4
 2.279296875 1514.29785156 35.728515625 1599.75390625 102.625976562 1660 c 4
 166.39453125 1717.08691406 229.490234375 1745.81542969 291.913085938 1746.18457031 c 4
293.903320312 1197.13085938 m 4
 344.154296875 1197.46386719 385.49609375 1222.56054688 417.928710938 1272.41992188 c 4
 447.49609375 1317.89355469 461.75390625 1362.40820312 460.704101562 1405.96289062 c 4
 459.087890625 1463.74121094 447.279296875 1509.96386719 425.279296875 1544.63085938 c 4
 393.946289062 1595.29785156 349.8203125 1620.7265625 292.903320312 1620.91796875 c 4
 238.487304688 1620.7265625 196.612304688 1595.29785156 167.279296875 1544.63085938 c 4
 137.946289062 1493.29785156 123.553710938 1446.2265625 124.103515625 1403.41894531 c 4
 124.220703125 1357.56054688 138.329101562 1313.56054688 166.428710938 1271.41992188 c 4
 199.662109375 1221.56054688 242.154296875 1196.79785156 293.903320312 1197.13085938 c 4
EndSplineSet
Refer: 320 57346 S 1 0 0 1 396.279 1158.63 2
Refer: 320 57346 S 1 0 0 1 2.2793 1342.63 2
Refer: 320 57346 S 1 0 0 1 253.279 1073.63 2
Refer: 320 57346 S 1 0 0 1 212.913 1073.08 2
Refer: 320 57346 S 1 0 0 1 464.279 1342.63 2
Refer: 320 57346 S 1 0 0 1 29.2793 1474.63 2
Refer: 320 57346 S 1 0 0 1 432.279 1211.63 2
Refer: 320 57346 S 1 0 0 1 67.2793 1538.63 2
Refer: 320 57346 S 1 0 0 1 252.279 1623.63 2
Refer: 320 57346 S 1 0 0 1 217.279 1623.63 2
EndChar

StartChar: v
Encoding: 118 118 90
Width: 120
VWidth: 0
GlyphClass: 2
Flags: HW
LayerCount: 3
Fore
SplineSet
0 15 m 1025
119.998172893 1695 m 1
 120 1695 l 1
 120 15.5 l 1
 120 15 l 1
 119.998172893 15 l 1
 119.8211862 -9.18392276564 119.8211862 -9.18392276564 102.5 -27 c 0
 85 -45 85 -45 60 -45 c 0
 35 -45 35 -45 18 -27 c 0
 0 -10 0 -10 0 15 c 2
 0 1695 l 2
 0 1720 0 1720 18 1737 c 0
 36 1755 36 1755 60 1755 c 0
 84 1755 84 1755 102 1737.5 c 0
 120 1720 120 1720 120 1695.5 c 0
 120 1695.24966068 120 1695.24966068 119.998172893 1695 c 1
EndSplineSet
Validated: 524289
EndChar

StartChar: w
Encoding: 119 119 91
Width: 120
VWidth: 0
GlyphClass: 2
Flags: HW
LayerCount: 3
Fore
SplineSet
0 15 m 1025
119.998172893 1695 m 1
 120 1695 l 1
 120 15.5 l 1
 120 15 l 1
 119.998172893 15 l 1
 119.8211862 -9.18392276564 119.8211862 -9.18392276564 102.5 -27 c 0
 85 -45 85 -45 60 -45 c 0
 35 -45 35 -45 18 -27 c 0
 0 -10 0 -10 0 15 c 2
 0 1695 l 2
 0 1720 0 1720 18 1737 c 0
 36 1755 36 1755 60 1755 c 0
 84 1755 84 1755 102 1737.5 c 0
 120 1720 120 1720 120 1695.5 c 0
 120 1695.24966068 120 1695.24966068 119.998172893 1695 c 1
EndSplineSet
Validated: 524289
EndChar

StartChar: x
Encoding: 120 120 92
Width: 770
GlyphClass: 3
Flags: HW
LayerCount: 3
Fore
SplineSet
191.985351562 61 m 1025
388 104 m 0
 446 104 446 104 488.5 124 c 0
 531 144 531 144 553.5 179 c 0
 576 214 576 214 586 252.5 c 0
 596 291 596 291 596 335 c 0
 596 384 596 384 585.5 425 c 0
 575 466 575 466 552.5 501.5 c 0
 530 537 530 537 488 557.5 c 0
 446 578 446 578 388 578 c 2
 387 578 l 2
 345.954101562 578 345.954101562 578 311.985351562 564.022460938 c 1
 311.985351562 115.254882812 l 1
 345.689453125 104 345.689453125 104 388 104 c 0
383 761 m 0
 461 761 461 761 521.5 733.5 c 0
 582 706 582 706 640 653 c 0
 698 599 698 599 734 517.5 c 0
 770 436 770 436 770 338 c 0
 770 240 770 240 731 152 c 0
 692 64 692 64 640 23 c 0
 573 -30 573 -30 516 -57.5 c 0
 459 -85 459 -85 383 -85 c 0
 306 -85 306 -85 247.5 -57.5 c 0
 189 -30 189 -30 127 23 c 0
 71 69 71 69 35.5 153.5 c 0
 0 238 0 238 0 338 c 0
 0 539 0 539 127 653 c 0
 159.184570312 681.85546875 159.184570312 681.85546875 191.985351562 703.3203125 c 1
 191.985351562 741 l 2
 191.985351562 766 191.985351562 766 209.985351562 783 c 0
 227.985351562 801 227.985351562 801 251.985351562 801 c 0
 275.985351562 801 275.985351562 801 293.985351562 783.5 c 0
 307.119140625 770.73046875 307.119140625 770.73046875 310.669921875 754.235351562 c 1
 344.66015625 761 344.66015625 761 383 761 c 0
191.985351562 250.81640625 m 1
 191.985351562 422.604492188 l 1
 180 381.350585938 180 381.350585938 180 338 c 0
 180 290.951171875 180 290.951171875 191.985351562 250.81640625 c 1
EndSplineSet
Validated: 524289
LCarets2: 1 -7
EndChar

StartChar: y
Encoding: 121 121 93
Width: 120
VWidth: 0
GlyphClass: 2
Flags: HW
LayerCount: 3
Fore
SplineSet
0 60 m 1025
119.998172893 180 m 1
 120 180 l 1
 120 60.5 l 1
 120 60 l 1
 119.998172893 60 l 1
 119.8211862 35.8160772344 119.8211862 35.8160772344 102.5 18 c 0
 85 0 85 0 60 0 c 0
 35 0 35 0 18 18 c 0
 0 35 0 35 0 60 c 2
 0 180 l 2
 0 205 0 205 18 222 c 0
 36 240 36 240 60 240 c 0
 84 240 84 240 102 222.5 c 0
 120 205 120 205 120 180.5 c 0
 120 180.24966068 120 180.24966068 119.998172893 180 c 1
EndSplineSet
Validated: 524289
EndChar

StartChar: z
Encoding: 122 122 94
Width: 555
GlyphClass: 2
Flags: HW
LayerCount: 3
Fore
SplineSet
0 306 m 0
 0 450 0 450 89 530.5 c 0
 178 611 178 611 276.5 611 c 0
 375 611 375 611 460 533 c 0
 555 447.047851562 555 447.047851562 555 306 c 0
 555 236 555 236 526.5 172.5 c 0
 498 109 498 109 455 74.5 c 0
 412 40 412 40 371.5 20.5 c 0
 331 1 331 1 276 1 c 0
 185.420898438 1 185.420898438 1 91 79 c 0
 51 113 51 113 25.5 173.5 c 0
 0 234 0 234 0 306 c 0
181 183 m 0
 220 122 220 122 281 122 c 0
 342 122 342 122 375.5 178.5 c 0
 409 235 409 235 409 297 c 0
 409 359 409 359 375.5 417.5 c 0
 342 476 342 476 281.5 476 c 0
 221 476 221 476 181.5 416.5 c 0
 142 357 142 357 142 300.5 c 0
 142 244 142 244 181 183 c 0
EndSplineSet
Validated: 524289
EndChar

StartChar: braceleft
Encoding: 123 123 95
Width: 792
GlyphClass: 2
Flags: HW
LayerCount: 3
Fore
SplineSet
0 1082 m 0
 0 1107 0 1107 18 1124 c 0
 36 1142 36 1142 60 1142 c 0
 60.2062763016 1142 60.2062763016 1142 60.412109375 1141.99870725 c 1
 60.412109375 1142.51953125 l 1
 124.024414062 1142.51953125 l 2
 244.084960938 1143.00878906 244.084960938 1143.00878906 290.273925781 1185.71826172 c 0
 336.462890625 1228.42773438 336.462890625 1228.42773438 336.462890625 1358.10742188 c 2
 336.462890625 2567.14550781 l 2
 336 2746 336 2746 405.111816406 2807.60009765 c 0
 474.223632812 2869.20019531 474.223632812 2869.20019531 679.556640625 2869.20019531 c 2
 732.087890625 2869.20019531 l 1
 732.087890625 2868.83007812 l 1
 756.087890625 2868.83007812 756.087890625 2868.83007812 774.087890625 2851.33007812 c 0
 792.087890625 2833.83007812 792.087890625 2833.83007812 792.087890625 2809.33007812 c 0
 792.087890625 2784.83007812 792.087890625 2784.83007812 774.587890625 2766.83007812 c 0
 757.087890625 2748.83007812 757.087890625 2748.83007812 732.087890625 2748.83007812 c 1
 732.087890625 2748.82519531 l 1
 674.630859375 2748.82519531 l 2
 673.917175466 2748.82608878 673.917175466 2748.82608878 673.206276603 2748.82608878 c 0,0,0
 534.831204986 2748.82608878 534.831204986 2748.82608878 501.975585938 2714.97460938 c 0
 468.951171875 2680.94921875 468.951171875 2680.94921875 468.951171875 2563.86328125 c 2
 468.951171875 1348.2578125 l 2
 469 1220 469 1220 432 1161.5 c 0
 395 1103 395 1103 313.970703125 1082.31835938 c 1
 385 1060 385 1060 426.975585938 1002.03417969 c 0
 468.951171875 944.067382812 468.951171875 944.067382812 468.951171875 815.55859375 c 2
 468.951171875 -313.041015625 l 2
 469 -409 469 -409 524.424804688 -465.7109375 c 0
 560.004882812 -501.004882812 560.004882812 -501.004882812 674.630859375 -501.004882812 c 2
 730.711058229 -501.004882812 l 2
 731.104715313 -501 731.104715313 -501 731.5 -501 c 0
 755.5 -501 755.5 -501 773.5 -518.5 c 0
 791.5 -536 791.5 -536 791.5 -560.5 c 0
 791.5 -585 791.5 -585 774 -603 c 0
 756.706125901 -620.787984788 756.706125901 -620.787984788 732.087890625 -620.997502753 c 1
 732.087890625 -621.200195312 l 1
 679.556640625 -621.200195312 l 2
 478 -621 478 -621 407.231445312 -559.69921875 c 0
 336.462890625 -498.3984375 336.462890625 -498.3984375 336.462890625 -316.32421875 c 2
 336.462890625 804.887695312 l 2
 336 930 336 930 292.958984375 976.435546875 c 0
 249.19140625 1021.80175781 249.19140625 1021.80175781 124.024414062 1021.80175781 c 2
 60.412109375 1021.80175781 l 1
 60.412109375 1022.00122584 l 1
 60.2063100706 1022.00122584 60.2063100706 1022.00122584 60 1022 c 0
 35 1022 35 1022 18 1040 c 0
 0 1057 0 1057 0 1082 c 0
EndSplineSet
Validated: 524321
EndChar

StartChar: bar
Encoding: 124 124 96
Width: 120
GlyphClass: 2
Flags: HW
LayerCount: 3
Fore
SplineSet
119.998172893 3250 m 1
 120 3250 l 1
 120 -999.5 l 1
 120 -1000 l 1
 119.998172893 -1000 l 1
 119.8211862 -1024.18392277 119.8211862 -1024.18392277 102.5 -1042 c 0
 85 -1060 85 -1060 60 -1060 c 0
 35 -1060 35 -1060 18 -1042 c 0
 0 -1025 0 -1025 0 -1000 c 2
 0 3250 l 2
 0 3275 0 3275 18 3292 c 0
 36 3310 36 3310 60 3310 c 0
 84 3310 84 3310 102 3292.5 c 0
 120 3275 120 3275 120 3250.5 c 0
 120 3250.24966068 120 3250.24966068 119.998172893 3250 c 1
EndSplineSet
Validated: 524289
EndChar

StartChar: braceright
Encoding: 125 125 97
Width: 792
GlyphClass: 2
Flags: HW
LayerCount: 3
Fore
SplineSet
792.087890625 1166 m 0
 792.087890625 1141 792.087890625 1141 774.087890625 1124 c 0
 756.087890625 1106 756.087890625 1106 732.087890625 1106 c 0
 731.881835938 1106 731.881835938 1106 731.67578125 1106.00097656 c 1
 731.67578125 1105.48046875 l 1
 668.063476562 1105.48046875 l 2
 548.002929688 1104.99121094 548.002929688 1104.99121094 499.12890625 1059.79882812 c 0
 455.625 1019.57226562 455.625 1019.57226562 455.625 889.892578125 c 2
 455.625 -319.145507812 l 2
 456.087890625 -498 456.087890625 -498 385.857421875 -560.459960938 c 0
 317.864257812 -621.200195312 317.864257812 -621.200195312 112.53125 -621.200195312 c 2
 60 -621.200195312 l 1
 60 -620.830078125 l 1
 36 -620.830078125 36 -620.830078125 18 -603.330078125 c 0
 0 -585.830078125 0 -585.830078125 0 -561.330078125 c 0
 0 -536.830078125 0 -536.830078125 17.5 -518.830078125 c 0
 35 -500.830078125 35 -500.830078125 60 -500.830078125 c 1
 60 -500.825195312 l 1
 117.45703125 -500.825195312 l 2
 118.205078125 -500.826171875 118.205078125 -500.826171875 118.94921875 -500.826171875 c 0,0,0
 257.256835938 -500.826171875 257.256835938 -500.826171875 288.663085938 -468.53125 c 0
 323.13671875 -432.94921875 323.13671875 -432.94921875 323.13671875 -315.86328125 c 2
 323.13671875 899.7421875 l 2
 323.087890625 1028 323.087890625 1028 360.893554688 1086.88378906 c 0
 397.087890625 1145 397.087890625 1145 478.1171875 1165.68164062 c 1
 407.087890625 1188 407.087890625 1188 365.112304688 1245.96582031 c 0
 323.13671875 1303.93261719 323.13671875 1303.93261719 323.13671875 1432.44140625 c 2
 323.13671875 2561.04101562 l 2
 323.087890625 2657 323.087890625 2657 267.663085938 2713.7109375 c 0
 232.083007812 2749.00488281 232.083007812 2749.00488281 117.45703125 2749.00488281 c 2
 61.376953125 2749.00488281 l 2
 60.9833984375 2749 60.9833984375 2749 60.587890625 2749 c 0
 36.587890625 2749 36.587890625 2749 18.587890625 2766.5 c 0
 0.587890625 2784 0.587890625 2784 0.587890625 2808.5 c 0
 0.587890625 2833 0.587890625 2833 18.087890625 2851 c 0
 35.3818359375 2868.78808594 35.3818359375 2868.78808594 60 2868.99707031 c 1
 60 2869.20019531 l 1
 112.53125 2869.20019531 l 2
 314.087890625 2869 314.087890625 2869 385.857421875 2806.45996094 c 0
 455.625 2746.3984375 455.625 2746.3984375 455.625 2564.32421875 c 2
 455.625 1443.11230469 l 2
 456.087890625 1318 456.087890625 1318 499.12890625 1271.56445312 c 0
 542.896484375 1226.19824219 542.896484375 1226.19824219 668.063476562 1226.19824219 c 2
 731.67578125 1226.19824219 l 1
 731.67578125 1225.99902344 l 1
 731.881835938 1225.99902344 731.881835938 1225.99902344 732.087890625 1226 c 0
 757.087890625 1226 757.087890625 1226 774.087890625 1208 c 0
 792.087890625 1191 792.087890625 1191 792.087890625 1166 c 0
EndSplineSet
Validated: 524321
EndChar

StartChar: asciitilde
Encoding: 126 126 98
Width: 1118
GlyphClass: 2
Flags: HW
LayerCount: 3
Fore
SplineSet
529 839.920898438 m 1
 416.640625 902.920898438 416.640625 902.920898438 320.555664062 902.83984375 c 0
 194.640625 902.920898438 194.640625 902.920898438 90 842.920898438 c 1
 89.7939453125 843.280273438 89.7939453125 843.280273438 89.587890625 843.639648438 c 1
 76.544921875 835.919921875 76.544921875 835.919921875 60.5 835.919921875 c 0
 36 835.919921875 36 835.919921875 18 853.419921875 c 0
 0 870.919921875 0 870.919921875 0 895.919921875 c 0
 0 920.919921875 0 920.919921875 18 937.919921875 c 0
 23.638671875 943.890625 23.638671875 943.890625 30.158203125 947.880859375 c 0
 29.5791015625 948.900390625 29.5791015625 948.900390625 29 949.920898438 c 0
 156.640625 1023.92089844 156.640625 1023.92089844 320.555664062 1023.83984375 c 0
 432.60546875 1023.90722656 432.60546875 1023.90722656 544.157226562 970.251953125 c 1
 551.083984375 971.984375 551.083984375 971.984375 558.685546875 971.984375 c 0
 574.897460938 971.984375 574.897460938 971.984375 588.262695312 964.322265625 c 1
 588.725585938 965.154296875 588.725585938 965.154296875 589.185546875 965.983398438 c 1
 701.544921875 902.983398438 701.544921875 902.983398438 797.629882812 903.064453125 c 0
 923.544921875 902.983398438 923.544921875 902.983398438 1028.18554688 962.983398438 c 1
 1028.39160156 962.624023438 1028.39160156 962.624023438 1028.59765625 962.264648438 c 1
 1041.640625 969.984375 1041.640625 969.984375 1057.68554688 969.984375 c 0
 1082.18554688 969.984375 1082.18554688 969.984375 1100.18554688 952.484375 c 0
 1118.18554688 934.984375 1118.18554688 934.984375 1118.18554688 909.984375 c 0
 1118.18554688 884.984375 1118.18554688 884.984375 1100.18554688 867.984375 c 0
 1094.546875 862.013671875 1094.546875 862.013671875 1088.02734375 858.0234375 c 0
 1088.60644531 857.00390625 1088.60644531 857.00390625 1089.18554688 855.983398438 c 0
 961.544921875 781.983398438 961.544921875 781.983398438 797.629882812 782.064453125 c 0
 685.580078125 781.997070312 685.580078125 781.997070312 574.028320312 835.65234375 c 1
 567.1015625 833.919921875 567.1015625 833.919921875 559.5 833.919921875 c 0
 543.288085938 833.919921875 543.288085938 833.919921875 529.922851562 841.58203125 c 1
 529.459960938 840.75 529.459960938 840.75 529 839.920898438 c 1
EndSplineSet
Validated: 524321
EndChar

StartChar: exclamdown
Encoding: 161 161 100
Width: 203
GlyphClass: 2
Flags: HW
LayerCount: 3
Fore
SplineSet
0 0 m 1
 0 655 l 1
 21 1012 l 1
 182 1012 l 1
 203 655 l 1
 203 0 l 1
 0 0 l 1
0 1239 m 1
 0 1493 l 1
 203 1493 l 1
 203 1239 l 1
 0 1239 l 1
EndSplineSet
Validated: 1
EndChar

StartChar: cent
Encoding: 162 162 101
Width: 848
GlyphClass: 2
Flags: HW
LayerCount: 3
Fore
SplineSet
485 127 m 1
 485 991 l 1
 352 979 352 979 272.5 860.5 c 0
 193 742 193 742 193 559 c 0
 193 376 193 376 272.5 258.5 c 0
 352 141 352 141 485 127 c 1
588 1145 m 1
 702.58984375 1138.75 702.58984375 1138.75 848 1077 c 1
 848 905 l 1
 715.859375 983.458007812 715.859375 983.458007812 588 993 c 1
 588 123 l 1
 715.120117188 131.920898438 715.120117188 131.920898438 848 213 c 1
 848 41 l 1
 702.58984375 -20.75 702.58984375 -20.75 588 -27 c 1
 588 -313 l 1
 485 -313 l 1
 485 -27 l 1
 260 -4 260 -4 130 151.5 c 0
 0 307 0 307 0 557.5 c 0
 0 808 0 808 131 968 c 0
 263 1126 263 1126 485 1145 c 1
 485 1432 l 1
 588 1432 l 1
 588 1145 l 1
EndSplineSet
Validated: 524289
EndChar

StartChar: sterling
Encoding: 163 163 102
Width: 973
GlyphClass: 2
Flags: HW
LayerCount: 3
Fore
SplineSet
678 1520 m 0
 804.133789062 1520 804.133789062 1520 953 1462 c 1
 953 1278 l 1
 829 1366 829 1366 696 1366 c 0
 563 1366 563 1366 499.5 1277 c 0
 436 1188 436 1188 436 995 c 2
 436 778 l 1
 807 778 l 1
 807 635 l 1
 436 635 l 1
 436 170 l 1
 973 170 l 1
 973 0 l 1
 0 0 l 1
 0 170 l 1
 236 170 l 1
 236 635 l 1
 37 635 l 1
 37 778 l 1
 236 778 l 1
 236 1016 l 2
 236 1269 236 1269 345 1395 c 0
 456 1520 456 1520 678 1520 c 0
EndSplineSet
Validated: 524289
EndChar

StartChar: currency
Encoding: 164 164 103
Width: 895
GlyphClass: 2
Flags: HW
LayerCount: 3
Fore
SplineSet
260 922 m 1
 350.516601562 983 350.516601562 983 445.274414062 983 c 0
 540.032226562 983 540.032226562 983 639 924 c 1
 805 1090 l 1
 895 997 l 1
 729 831 l 1
 788 733.935546875 788 733.935546875 788 637.7578125 c 0
 788 541.581054688 788 541.581054688 727 455 c 1
 895 289 l 1
 801 195 l 1
 635 362 l 1
 544.483398438 301 544.483398438 301 449.098632812 301 c 0
 353.713867188 301 353.713867188 301 256 358 c 1
 92 195 l 1
 0 285 l 1
 166 451 l 1
 106 547.774414062 106 547.774414062 106 644.559570312 c 0
 106 741.344726562 106 741.344726562 168 829 c 1
 0 995 l 1
 94 1090 l 1
 260 922 l 1
295 488 m 0
 359 426 359 426 449 426 c 0
 539 426 539 426 601 489.5 c 0
 663 553 663 553 663 643.5 c 0
 663 734 663 734 601.5 795 c 0
 540 856 540 856 448.5 856 c 0
 357 856 357 856 295 795 c 0
 233 734 233 734 233 643 c 0
 233 552 233 552 295 488 c 0
EndSplineSet
Validated: 524289
EndChar

StartChar: yen
Encoding: 165 165 104
Width: 1159
GlyphClass: 2
Flags: HW
LayerCount: 3
Fore
SplineSet
0 1493 m 1
 215 1493 l 1
 579 834 l 1
 942 1493 l 1
 1159 1493 l 1
 829 932 l 1
 1081 932 l 1
 1081 821 l 1
 766 821 l 1
 680 670 l 1
 680 635 l 1
 1081 635 l 1
 1081 524 l 1
 680 524 l 1
 680 0 l 1
 477 0 l 1
 477 524 l 1
 78 524 l 1
 78 635 l 1
 477 635 l 1
 477 670 l 1
 387 821 l 1
 78 821 l 1
 78 932 l 1
 321 932 l 1
 0 1493 l 1
EndSplineSet
Validated: 1
EndChar

StartChar: brokenbar
Encoding: 166 166 105
Width: 172
GlyphClass: 2
Flags: HW
LayerCount: 3
Fore
SplineSet
172 408 m 1
 172 -350 l 1
 0 -350 l 1
 0 408 l 1
 172 408 l 1
172 1432 m 1
 172 674 l 1
 0 674 l 1
 0 1432 l 1
 172 1432 l 1
EndSplineSet
Validated: 1
EndChar

StartChar: section
Encoding: 167 167 106
Width: 837
GlyphClass: 2
Flags: HW
LayerCount: 3
Fore
SplineSet
551 410 m 1
 673 500.516601562 673 500.516601562 673 584.2578125 c 0
 673 668 673 668 601 736.5 c 0
 529 805 529 805 286 936 c 1
 163 845.262695312 163 845.262695312 163 762.630859375 c 0
 163 680 163 680 233 610 c 1
 308 541 308 541 551 410 c 1
184 1006 m 1
 65 1091.28320312 65 1091.28320312 65 1226.64160156 c 0
 65 1362 65 1362 164.5 1441 c 0
 264 1520 264 1520 419.5 1520 c 0
 575 1520 575 1520 737 1462 c 1
 737 1298 l 1
 573.390625 1376 573.390625 1376 464.6953125 1376 c 0
 356 1376 356 1376 303 1335.5 c 0
 250 1295 250 1295 250 1225 c 0
 250 1135 250 1135 455 1020 c 0
 479 1006 479 1006 495 997 c 0
 707 878 707 878 772 801 c 0
 837 724 837 724 837 623 c 0
 837 442.881835938 837 442.881835938 653 340 c 1
 772 238.274414062 772 238.274414062 772 105.63671875 c 0
 772 -27 772 -27 670 -111 c 0
 568 -195 568 -195 411 -195 c 0
 254 -195 254 -195 80 -137 c 1
 80 27 l 1
 253.333007812 -51 253.333007812 -51 363.666992188 -51 c 1,0,0
 363.666992188 -132.297851562 363.666992188 -132.297851562 531 -9 c 0
 587 33 587 33 587 109 c 0
 587 211 587 211 366 334 c 1
 342 348 l 1
 131 466 131 466 65.5 543.5 c 0
 0 621 0 621 0 723 c 0
 0 906 0 906 184 1006 c 1
EndSplineSet
Validated: 524321
EndChar

StartChar: dieresis
Encoding: 168 168 107
Width: 594
GlyphClass: 2
Flags: HW
LayerCount: 3
Fore
SplineSet
392 1552 m 1
 594 1552 l 1
 594 1350 l 1
 392 1350 l 1
 392 1552 l 1
0 1552 m 1
 203 1552 l 1
 203 1350 l 1
 0 1350 l 1
 0 1552 l 1
EndSplineSet
Validated: 1
EndChar

StartChar: copyright
Encoding: 169 169 108
Width: 1233
GlyphClass: 2
Flags: HW
LayerCount: 3
Fore
SplineSet
722.713867188 433.66796875 m 0
 706.565081737 429.985761997 706.565081737 429.985761997 690.759500739 429.985761997 c 0,0,0
 639.31156618 429.985761997 639.31156618 429.985761997 591.5 469 c 0
 529.496031746 519.595238095 529.496031746 519.595238095 529.496031746 636.62329932 c 0,0,0
 529.496031746 756.411293721 529.496031746 756.411293721 586.5 823 c 0
 643 889 643 889 756 889 c 0
 869 889 869 889 896.4609375 849.12109375 c 0
 953 771 953 771 967 667 c 0
 976.230316409 598.431935247 976.230316409 598.431935247 976.230316409 522.795954368 c 0,0,0
 976.230316409 483.711736571 976.230316409 483.711736571 973.765625 442.740234375 c 0
 951 77 951 77 673.305664062 65.9404296875 c 0
 664.111202435 65.5830828836 664.111202435 65.5830828836 655.07229619 65.5830828836 c 0,0,0
 463.262058946 65.5830828836 463.262058946 65.5830828836 341.5 226.5 c 0
 214 395 214 395 214 674 c 0
 214 953 214 953 354 1119.5 c 0
 494 1286 494 1286 730.590820312 1287.73535156 c 0
 732.180132591 1287.74526944 732.180132591 1287.74526944 733.768094922 1287.74526944 c 0,0,0
 828.188383065 1287.74526944 828.188383065 1287.74526944 917.8359375 1252.68066406 c 1
 918.127014791 1253.49933626 l 1
 926.603657082 1250.74023438 926.603657082 1250.74023438 936 1250.74023438 c 0
 960 1250.74023438 960 1250.74023438 978 1268.24023438 c 0
 996 1285.74023438 996 1285.74023438 996 1310.24023438 c 0
 996 1334.74023438 996 1334.74023438 978.5 1352.74023438 c 0
 969.423333474 1362.07623423 969.423333474 1362.07623423 958.329053676 1366.56996224 c 1
 958.875 1368.10546875 l 1
 856.935485532 1410.09128546 856.935485532 1410.09128546 759.347153565 1410.09128546 c 0,0,0
 754.796776305 1410.09128546 754.796776305 1410.09128546 750.255859375 1410 c 0
 440 1406 440 1406 263.5 1209 c 0
 87 1012 87 1012 87 676.5 c 0
 87 341 87 341 243 147.5 c 0
 399 -46 399 -46 674 -46.259765625 c 0
 846 -46 846 -46 953.5 70 c 0
 1061 186 1061 186 1070.88085938 363.48046875 c 0
 1074.29333577 422.830157704 1074.29333577 422.830157704 1074.29333577 477.193630362 c 0,0,0
 1074.29333577 727.413328464 1074.29333577 727.413328464 1002 872 c 0
 967 943 967 943 866 987 c 0
 813.229616694 1010.25474519 813.229616694 1010.25474519 743.669130809 1010.25474519 c 0,0,0
 735.457419296 1010.25474519 735.457419296 1010.25474519 727.01171875 1009.93066406 c 0
 567 1005 567 1005 499.581054688 909.475585938 c 0
 415 790 415 790 413 635.5 c 0
 412.953488372 631.906976744 412.953488372 631.906976744 412.953488372 628.345451722 c 0,0,0
 412.953488372 478.761400799 412.953488372 478.761400799 495 384.740234375 c 0
 567.802081172 301.327765975 567.802081172 301.327765975 665.432962702 301.327765975 c 0,0,0
 712.634962807 301.327765975 712.634962807 301.327765975 765.640625 320.825195312 c 1
 765.574327532 321.000091006 765.574327532 321.000091006 765.507958688 321.175169936 c 0
 787.267418969 329.520022282 787.267418969 329.520022282 797.940429688 351.592773438 c 0
 808.870117188 374.193359375 808.870117188 374.193359375 800.490234375 397.215820312 c 0
 792.111328125 420.23828125 792.111328125 420.23828125 769.509765625 431.16796875 c 0
 746.909179688 442.096679688 746.909179688 442.096679688 723.416992188 433.545898438 c 0
 723.128179494 433.440791602 723.128179494 433.440791602 722.841433468 433.333541797 c 0
 722.77766981 433.500705259 722.77766981 433.500705259 722.713867188 433.66796875 c 0
EndSplineSet
Validated: 524297
Layer: 2
SplineSet
864 1071 m 5
 864 963 l 5
 823.333333333 983 785.333333333 996.666666667 750 1004 c 4
 716.666666667 1013.33333333 679 1018 637 1018 c 4
 559.666666667 1018 498 993.333333333 452 944 c 4
 407.333333333 893.333333333 385 825.666666667 385 741 c 4
 385 652.333333333 408.333333333 584.666666667 455 538 c 4
 502.333333333 490.666666667 569 467 655 467 c 4
 693.666666667 467 729.333333333 471.333333333 762 480 c 4
 796 488 830 500.666666667 864 518 c 5
 864 414 l 5
 826 398 789.666666667 386.666666667 755 380 c 4
 715 372.666666667 675.666666667 369 637 369 c 4
 515.666666667 369 421.333333333 402.333333333 354 469 c 4
 284.666666667 535.666666667 250 626.333333333 250 741 c 4
 250 856.333333333 284.666666667 947.666666667 354 1015 c 132
 423.333333333 1082.33333333 517.666666667 1116 637 1116 c 4
 675.666666667 1116 715 1112.33333333 755 1105 c 4
 789.666666667 1098.33333333 826 1087 864 1071 c 5
616 1255 m 4
 544.666666667 1255 479.333333333 1242.66666667 420 1218 c 4
 358.666666667 1192.66666667 303.333333333 1155.33333333 254 1106 c 4
 204 1056 166 1000.33333333 140 939 c 4
 114.666666667 877 102 811 102 741 c 4
 102 671.666666667 114.666666667 606.666666667 140 546 c 132
 165.333333333 485.333333333 203.333333333 429.666666667 254 379 c 4
 305.333333333 327.666666667 360.666666667 289.666666667 420 265 c 4
 482 239.666666667 547.333333333 227 616 227 c 4
 686 227 751.333333333 239.666666667 812 265 c 4
 872 289.666666667 927.666666667 327.666666667 979 379 c 4
 1031 431 1068.66666667 486.666666667 1092 546 c 4
 1117.33333333 604.666666667 1130 669.666666667 1130 741 c 4
 1130 811 1117.33333333 877 1092 939 c 4
 1066.66666667 999.666666667 1029 1055.33333333 979 1106 c 4
 929.666666667 1155.33333333 874.666666667 1192.66666667 814 1218 c 4
 754 1242.66666667 688 1255 616 1255 c 4
616 1358 m 4
 700 1358 778.666666667 1343 852 1313 c 4
 924.666666667 1283 991 1238 1051 1178 c 4
 1110.33333333 1117.33333333 1155.66666667 1050.33333333 1187 977 c 4
 1217.66666667 905 1233 826.333333333 1233 741 c 4
 1233 657.666666667 1218 579.666666667 1188 507 c 4
 1156.66666667 434.333333333 1111 367.666666667 1051 307 c 4
 990.333333333 247 923.666666667 201.333333333 851 170 c 4
 778.333333333 140 700 125 616 125 c 4
 533.333333333 125 455.333333333 140 382 170 c 4
 308.666666667 201.333333333 242 247 182 307 c 4
 121.333333333 367.666666667 76 434.333333333 46 507 c 4
 15.3333333333 579 0 657 0 741 c 4
 0 826.333333333 15.3333333333 905 46 977 c 4
 77.3333333333 1050.33333333 122.666666667 1117.33333333 182 1178 c 4
 242 1238 308.333333333 1283 381 1313 c 4
 454.333333333 1343 532.666666667 1358 616 1358 c 4
EndSplineSet
EndChar

StartChar: ordfeminine
Encoding: 170 170 109
Width: 691
GlyphClass: 2
Flags: HW
LayerCount: 3
Fore
SplineSet
23 592 m 1
 691 592 l 1
 691 469 l 1
 23 469 l 1
 23 592 l 1
62 1464 m 1
 193.310546875 1520 193.310546875 1520 328 1520 c 0
 512 1520 512 1520 598 1434 c 0
 684 1348 684 1348 684 1165 c 2
 684 717 l 1
 541 717 l 1
 541 829 l 1
 441.7578125 698 441.7578125 698 279 698 c 0
 151 698 151 698 75 766 c 0
 0 834 0 834 0 956.5 c 0
 0 1079 0 1079 93 1149 c 0
 186 1219 186 1219 359 1219 c 2
 541 1219 l 1
 541 1223 l 2
 541 1405 541 1405 305 1405 c 0
 202.12109375 1405 202.12109375 1405 62 1337 c 1
 62 1464 l 1
414 1104 m 2
 269 1104 269 1104 207.5 1069.5 c 0
 146 1035 146 1035 146 964 c 0
 146 893 146 893 189 855 c 0
 232 817 232 817 321 817 c 0
 410 817 410 817 476 888 c 0
 541 961 541 961 541 1075 c 2
 541 1104 l 1
 414 1104 l 2
EndSplineSet
Validated: 524289
EndChar

StartChar: guillemotleft
Encoding: 171 171 110
Width: 923
GlyphClass: 2
Flags: HW
LayerCount: 3
Fore
SplineSet
923 1059 m 1
 923 868 l 1
 622 600 l 1
 923 332 l 1
 923 141 l 1
 454 559 l 1
 454 641 l 1
 923 1059 l 1
469 1059 m 1
 469 868 l 1
 168 600 l 1
 469 332 l 1
 469 141 l 1
 0 559 l 1
 0 641 l 1
 469 1059 l 1
EndSplineSet
Validated: 1
EndChar

StartChar: logicalnot
Encoding: 172 172 111
Width: 1057
GlyphClass: 2
Flags: HW
LayerCount: 3
Fore
SplineSet
0 862 m 1
 1057 862 l 1
 1057 371 l 1
 889 371 l 1
 889 690 l 1
 0 690 l 1
 0 862 l 1
EndSplineSet
Validated: 1
EndChar

StartChar: uni00AD
Encoding: 173 173 112
Width: 521
GlyphClass: 2
Flags: HW
LayerCount: 3
Fore
SplineSet
0 643 m 1
 521 643 l 1
 521 479 l 1
 0 479 l 1
 0 643 l 1
EndSplineSet
Validated: 1
EndChar

StartChar: registered
Encoding: 174 174 113
Width: 1233
GlyphClass: 2
Flags: HW
LayerCount: 3
Fore
SplineSet
616.5 1255 m 0
 403 1255 403 1255 254 1106 c 0
 102 954 102 954 102 741 c 0
 102 531 102 531 254 379 c 0
 406 227 406 227 616 227 c 0
 827 227 827 227 979 379 c 0
 1130 530 1130 530 1130 741 c 0
 1130 952.986666667 1130 952.986666667 980 1103.99333333 c 0
 830 1255 830 1255 616.5 1255 c 0
616.5 1358 m 0
 871 1358 871 1358 1051 1178 c 0
 1233 991.91011236 1233 991.91011236 1233 741 c 0
 1233 491.022222222 1233 491.022222222 1051 307 c 0
 866.977777778 125 866.977777778 125 616 125 c 0
 364 125 364 125 182 307 c 0
 0 489 0 489 0 741 c 0
 0 991.91011236 0 991.91011236 181 1174.95505618 c 0
 362 1358 362 1358 616.5 1358 c 0
594 1016 m 2
 492 1016 l 1
 492 784 l 1
 594 784 l 2
 684 784 684 784 721 811 c 0
 758 838 758 838 758 900.5 c 0
 758 963 758 963 721 990 c 0
 683 1016 683 1016 594 1016 c 2
600 1100 m 2
 891 1100 891 1100 891 901 c 0
 891 830 891 830 847.5 783.5 c 0
 804 737 804 737 723 723 c 1
 760.054298643 713.248868778 760.054298643 713.248868778 838 592 c 2
 952 406 l 1
 809 406 l 1
 702 580 l 2
 651 661 651 661 621.5 681.5 c 0
 592 702 592 702 547 702 c 2
 492 702 l 1
 492 406 l 1
 362 406 l 1
 362 1100 l 1
 600 1100 l 2
EndSplineSet
Validated: 524289
EndChar

StartChar: macron
Encoding: 175 175 114
Width: 598
GlyphClass: 2
Flags: HW
LayerCount: 3
Fore
SplineSet
0 1526 m 1
 598 1526 l 1
 598 1378 l 1
 0 1378 l 1
 0 1526 l 1
EndSplineSet
Validated: 1
EndChar

StartChar: degree
Encoding: 176 176 115
Width: 635
GlyphClass: 2
Flags: HW
LayerCount: 3
Fore
SplineSet
317 1391 m 0
 238 1391 238 1391 182.5 1335.5 c 0
 127 1280 127 1280 127 1200 c 0
 127 1120 127 1120 182 1066 c 0
 237 1012 237 1012 316.5 1012 c 0
 396 1012 396 1012 452 1067 c 0
 508 1122 508 1122 508 1200.5 c 0
 508 1279 508 1279 452 1335 c 0
 396 1391 396 1391 317 1391 c 0
317 1520 m 0
 381 1520 381 1520 441.5 1494.5 c 0
 563.890625 1442.9140625 563.890625 1442.9140625 611 1323 c 0
 635 1266 635 1266 635 1200 c 0
 635 1069 635 1069 542 976 c 0
 448 885 448 885 314 885 c 0
 180 885 180 885 90 975 c 0
 0 1065 0 1065 0 1199 c 0
 0 1333 0 1333 91.5 1426.5 c 0
 183 1520 183 1520 317 1520 c 0
EndSplineSet
Validated: 524289
EndChar

StartChar: plusminus
Encoding: 177 177 116
Width: 1057
GlyphClass: 2
Flags: HW
LayerCount: 3
Fore
SplineSet
612 1171 m 1
 612 842 l 1
 1057 842 l 1
 1057 672 l 1
 612 672 l 1
 612 340 l 1
 444 340 l 1
 444 672 l 1
 0 672 l 1
 0 842 l 1
 444 842 l 1
 444 1171 l 1
 612 1171 l 1
0 170 m 1
 1057 170 l 1
 1057 0 l 1
 0 0 l 1
 0 170 l 1
EndSplineSet
Validated: 1
EndChar

StartChar: uni00B2
Encoding: 178 178 117
Width: 571
GlyphClass: 2
Flags: HW
LayerCount: 3
Fore
SplineSet
6 1464 m 1
 134 1520 134 1520 264 1520 c 0
 394 1520 394 1520 479.5 1453 c 0
 565 1386 565 1386 565 1280 c 0
 565 1222 565 1222 527.5 1163 c 0
 490 1104 490 1104 372 987 c 2
 161 782 l 1
 571 782 l 1
 571 668 l 1
 0 668 l 1
 0 778 l 1
 231 1004 l 2
 337 1107 337 1107 375 1164.5 c 0
 413 1222 413 1222 413 1278.5 c 0
 413 1335 413 1335 363 1373 c 0
 313 1411 313 1411 222.5 1411 c 0
 132 1411 132 1411 6 1339 c 1
 6 1464 l 1
EndSplineSet
Validated: 1
EndChar

StartChar: uni00B3
Encoding: 179 179 118
Width: 598
GlyphClass: 2
Flags: HW
LayerCount: 3
Fore
SplineSet
577 1303 m 0
 577 1160 577 1160 405 1120 c 1
 598 1077.33691406 598 1077.33691406 598 911 c 0
 598 788 598 788 503.5 720.5 c 0
 409 653 409 653 231 653 c 0
 124.86328125 653 124.86328125 653 0 694 c 1
 0 815 l 1
 134.538085938 762 134.538085938 762 230.76953125 762 c 0
 327 762 327 762 387 802 c 0
 446 844 446 844 446 911 c 0
 446 1061 446 1061 227 1061 c 2
 161 1061 l 1
 161 1169 l 1
 235 1169 l 2
 426 1169 426 1169 426 1292 c 0
 426 1347 426 1347 378 1380 c 0
 328 1411 328 1411 239.3046875 1411 c 0
 150.608398438 1411 150.608398438 1411 28 1364 c 1
 28 1485 l 1
 175.77734375 1520 175.77734375 1520 264 1520 c 0
 408 1520 408 1520 492.5 1461 c 0
 577 1402 577 1402 577 1303 c 0
EndSplineSet
Validated: 524289
EndChar

StartChar: acute
Encoding: 180 180 119
Width: 479
GlyphClass: 2
Flags: HW
LayerCount: 3
Fore
SplineSet
281 1638 m 1
 479 1638 l 1
 154 1262 l 1
 0 1262 l 1
 281 1638 l 1
EndSplineSet
Validated: 1
EndChar

StartChar: mu
Encoding: 181 181 120
Width: 987
GlyphClass: 2
Flags: HW
LayerCount: 3
Fore
SplineSet
698 129 m 1
 606.321289062 -29 606.321289062 -29 429.03125 -29 c 0
 251.741210938 -29 251.741210938 -29 167 127 c 1
 167 -428 l 1
 0 -428 l 1
 0 1120 l 1
 184 1120 l 1
 184 424 l 2
 184 282 184 282 244 206.5 c 0
 304 131 304 131 415 131 c 0
 671 131 671 131 671 467 c 2
 671 1120 l 1
 856 1120 l 1
 856 256 l 2
 856 141 856 141 921 141 c 0
 941 141 941 141 987 164 c 1
 987 16 l 1
 913.200195312 -29 913.200195312 -29 847 -29 c 0
 722.623046875 -29 722.623046875 -29 698 129 c 1
EndSplineSet
Validated: 524289
EndChar

StartChar: paragraph
Encoding: 182 182 121
Width: 924
GlyphClass: 2
Flags: HW
LayerCount: 3
Fore
SplineSet
476 1493 m 2
 924 1493 l 1
 924 -197 l 1
 783 -197 l 1
 783 1370 l 1
 592 1370 l 1
 592 -197 l 1
 451 -197 l 1
 451 649 l 1
 238 665 238 665 118 776 c 0
 0 887 0 887 0 1074 c 0
 0 1261 0 1261 130 1377 c 0
 263 1493 263 1493 476 1493 c 2
EndSplineSet
Validated: 1
EndChar

StartChar: periodcentered
Encoding: 183 183 122
Width: 252
GlyphClass: 2
Flags: HW
LayerCount: 3
Fore
SplineSet
0 864 m 1
 252 864 l 1
 252 559 l 1
 0 559 l 1
 0 864 l 1
EndSplineSet
Validated: 1
EndChar

StartChar: cedilla
Encoding: 184 184 123
Width: 414
GlyphClass: 2
Flags: HW
LayerCount: 3
Fore
SplineSet
275 -178 m 0
 275 -125.713867188 275 -125.713867188 187 0 c 1
 305 0 l 1
 414 -120.678710938 414 -120.678710938 414 -215 c 0
 414 -395 414 -395 176 -395 c 0
 84 -395 84 -395 0 -371 c 1
 0 -240 l 1
 65.6845703125 -272 65.6845703125 -272 156 -272 c 0
 275 -272 275 -272 275 -178 c 0
EndSplineSet
Validated: 524289
EndChar

StartChar: uni00B9
Encoding: 185 185 124
Width: 571
GlyphClass: 2
Flags: HW
LayerCount: 3
Fore
SplineSet
18 778 m 1
 223 778 l 1
 223 1389 l 1
 0 1348 l 1
 0 1464 l 1
 229 1503 l 1
 367 1503 l 1
 367 778 l 1
 571 778 l 1
 571 668 l 1
 18 668 l 1
 18 778 l 1
EndSplineSet
Validated: 1
EndChar

StartChar: ordmasculine
Encoding: 186 186 125
Width: 745
GlyphClass: 2
Flags: HW
LayerCount: 3
Fore
SplineSet
32 592 m 1
 708 592 l 1
 708 469 l 1
 32 469 l 1
 32 592 l 1
372 1520 m 0
 542 1520 542 1520 644 1408 c 0
 745 1295 745 1295 745 1108.5 c 0
 745 922 745 922 644.5 810 c 0
 544 698 544 698 372.5 698 c 0
 201 698 201 698 100.5 810 c 0
 0 922 0 922 0 1109 c 0
 0 1296 0 1296 101 1408 c 0
 202 1520 202 1520 372 1520 c 0
532 894 m 0
 590 973 590 973 590 1110.5 c 0
 590 1248 590 1248 532.5 1325.5 c 0
 475 1403 475 1403 372.5 1403 c 0
 270 1403 270 1403 212.5 1325 c 0
 155 1247 155 1247 155 1107.5 c 0
 155 968 155 968 213 891.5 c 0
 271 815 271 815 371.5 815 c 0
 472 815 472 815 532 894 c 0
EndSplineSet
Validated: 1
EndChar

StartChar: guillemotright
Encoding: 187 187 126
Width: 923
GlyphClass: 2
Flags: HW
LayerCount: 3
Fore
SplineSet
0 1059 m 1
 469 641 l 1
 469 559 l 1
 0 141 l 1
 0 332 l 1
 301 600 l 1
 0 868 l 1
 0 1059 l 1
454 1059 m 1
 923 641 l 1
 923 559 l 1
 454 141 l 1
 454 332 l 1
 755 600 l 1
 454 868 l 1
 454 1059 l 1
EndSplineSet
Validated: 1
EndChar

StartChar: onequarter
Encoding: 188 188 127
Width: 1087
GlyphClass: 2
Flags: HW
LayerCount: 3
Fore
SplineSet
24 504 m 1
 0 612 l 1
 1060 874 l 1
 1087 766 l 1
 24 504 l 1
77 934 m 1
 282 934 l 1
 282 1545 l 1
 59 1504 l 1
 59 1620 l 1
 288 1659 l 1
 426 1659 l 1
 426 934 l 1
 630 934 l 1
 630 824 l 1
 77 824 l 1
 77 934 l 1
812 440 m 1
 538 27 l 1
 812 27 l 1
 812 440 l 1
788 565 m 1
 950 565 l 1
 950 27 l 1
 1066 27 l 1
 1066 -84 l 1
 950 -84 l 1
 950 -270 l 1
 812 -270 l 1
 812 -84 l 1
 425 -84 l 1
 425 37 l 1
 788 565 l 1
EndSplineSet
Validated: 1
EndChar

StartChar: onehalf
Encoding: 189 189 128
Width: 1087
GlyphClass: 2
Flags: HW
LayerCount: 3
Fore
SplineSet
502 526 m 1
 630 582 630 582 759.5 582 c 0
 889 582 889 582 975 515 c 0
 1061 448 1061 448 1061 342 c 0
 1061 284 1061 284 1024 225 c 0
 987 166 987 166 868 49 c 2
 657 -156 l 1
 1067 -156 l 1
 1067 -270 l 1
 496 -270 l 1
 496 -160 l 1
 727 66 l 2
 828 164 828 164 868.5 225.5 c 0
 909 287 909 287 909 342 c 0
 909 397 909 397 859 435 c 0
 809 473 809 473 717.5 473 c 0
 626 473 626 473 502 401 c 1
 502 526 l 1
24 504 m 1
 0 612 l 1
 1060 874 l 1
 1087 766 l 1
 24 504 l 1
77 934 m 1
 282 934 l 1
 282 1545 l 1
 59 1504 l 1
 59 1620 l 1
 288 1659 l 1
 426 1659 l 1
 426 934 l 1
 630 934 l 1
 630 824 l 1
 77 824 l 1
 77 934 l 1
EndSplineSet
Validated: 1
EndChar

StartChar: threequarters
Encoding: 190 190 129
Width: 1087
GlyphClass: 2
Flags: HW
LayerCount: 3
Fore
SplineSet
24 504 m 1
 0 612 l 1
 1060 874 l 1
 1087 766 l 1
 24 504 l 1
649 1459 m 0
 649 1316 649 1316 477 1276 c 1
 570 1255 570 1255 621 1201 c 0
 670 1146 670 1146 670 1067 c 0
 670 944 670 944 575.5 876.5 c 0
 481 809 481 809 303 809 c 0
 196.86328125 809 196.86328125 809 72 850 c 1
 72 971 l 1
 209.799804688 918 209.799804688 918 304.400390625 918 c 0
 399 918 399 918 459 958 c 0
 518 1000 518 1000 518 1067 c 0
 518 1217 518 1217 299 1217 c 2
 233 1217 l 1
 233 1325 l 1
 307 1325 l 2
 498 1325 498 1325 498 1448 c 0
 498 1503 498 1503 450 1536 c 0
 400 1567 400 1567 311.3046875 1567 c 0
 222.608398438 1567 222.608398438 1567 100 1520 c 1
 100 1641 l 1
 241.944335938 1676 241.944335938 1676 360.97265625 1676 c 0
 480 1676 480 1676 564.5 1617 c 0
 649 1558 649 1558 649 1459 c 0
812 440 m 1
 538 27 l 1
 812 27 l 1
 812 440 l 1
788 565 m 1
 950 565 l 1
 950 27 l 1
 1066 27 l 1
 1066 -84 l 1
 950 -84 l 1
 950 -270 l 1
 812 -270 l 1
 812 -84 l 1
 425 -84 l 1
 425 37 l 1
 788 565 l 1
EndSplineSet
Validated: 524289
EndChar

